<svg width="29" height="29" viewBox="0 0 29 29" fill="none" xmlns="http://www.w3.org/2000/svg">
<path d="M10.8763 5.99585H8.45964C7.8187 5.99585 7.20401 6.24853 6.75079 6.69831C6.29758 7.14808 6.04297 7.75811 6.04297 8.39418V22.7842C6.04297 23.4203 6.29758 24.0303 6.75079 24.4801C7.20401 24.9298 7.8187 25.1825 8.45964 25.1825H20.543C21.1839 25.1825 21.7986 24.9298 22.2518 24.4801C22.705 24.0303 22.9596 23.4203 22.9596 22.7842V8.39418C22.9596 7.75811 22.705 7.14808 22.2518 6.69831C21.7986 6.24853 21.1839 5.99585 20.543 5.99585H18.1263" stroke="black" stroke-width="1.5" stroke-linecap="round" stroke-linejoin="round"/>
<path d="M15.7083 3.59753H13.2917C11.957 3.59753 10.875 4.6713 10.875 5.99587C10.875 7.32043 11.957 8.3942 13.2917 8.3942H15.7083C17.043 8.3942 18.125 7.32043 18.125 5.99587C18.125 4.6713 17.043 3.59753 15.7083 3.59753Z" stroke="black" stroke-width="1.5" stroke-linecap="round" stroke-linejoin="round"/>
<path d="M10.875 14.39H10.8875" stroke="black" stroke-width="1.5" stroke-linecap="round" stroke-linejoin="round"/>
<path d="M15.707 14.39H18.1237" stroke="black" stroke-width="1.5" stroke-linecap="round" stroke-linejoin="round"/>
<path d="M10.875 19.1866H10.8875" stroke="black" stroke-width="1.5" stroke-linecap="round" stroke-linejoin="round"/>
<path d="M15.707 19.1866H18.1237" stroke="black" stroke-width="1.5" stroke-linecap="round" stroke-linejoin="round"/>
</svg>
