<svg width="27" height="28" viewBox="0 0 27 28" fill="none" xmlns="http://www.w3.org/2000/svg">
<path d="M21.375 10.4175H10.125C8.88236 10.4175 7.875 11.4539 7.875 12.7325V19.6775C7.875 20.956 8.88236 21.9925 10.125 21.9925H21.375C22.6176 21.9925 23.625 20.956 23.625 19.6775V12.7325C23.625 11.4539 22.6176 10.4175 21.375 10.4175Z" stroke="black" stroke-width="1.5" stroke-linecap="round" stroke-linejoin="round"/>
<path d="M15.75 18.52C16.9926 18.52 18 17.4836 18 16.205C18 14.9265 16.9926 13.89 15.75 13.89C14.5074 13.89 13.5 14.9265 13.5 16.205C13.5 17.4836 14.5074 18.52 15.75 18.52Z" stroke="black" stroke-width="1.5" stroke-linecap="round" stroke-linejoin="round"/>
<path d="M19.125 10.4175V8.10248C19.125 7.4885 18.8879 6.89967 18.466 6.46552C18.044 6.03138 17.4717 5.78748 16.875 5.78748H5.625C5.02826 5.78748 4.45597 6.03138 4.03401 6.46552C3.61205 6.89967 3.375 7.4885 3.375 8.10248V15.0475C3.375 15.6615 3.61205 16.2503 4.03401 16.6844C4.45597 17.1186 5.02826 17.3625 5.625 17.3625H7.875" stroke="black" stroke-width="1.5" stroke-linecap="round" stroke-linejoin="round"/>
</svg>
