<svg width="26" height="26" viewBox="0 0 26 26" fill="none" xmlns="http://www.w3.org/2000/svg">
<path d="M5.77687 9.0689C6.92324 9.0689 7.85256 8.14744 7.85256 7.01077C7.85256 5.87409 6.92324 4.95264 5.77687 4.95264C4.63049 4.95264 3.70117 5.87409 3.70117 7.01077C3.70117 8.14744 4.63049 9.0689 5.77687 9.0689Z" stroke="black" stroke-width="1.43702" stroke-linecap="round" stroke-linejoin="round"/>
<path d="M13.0425 9.0689C14.1889 9.0689 15.1182 8.14744 15.1182 7.01077C15.1182 5.87409 14.1889 4.95264 13.0425 4.95264C11.8961 4.95264 10.9668 5.87409 10.9668 7.01077C10.9668 8.14744 11.8961 9.0689 13.0425 9.0689Z" stroke="black" stroke-width="1.43702" stroke-linecap="round" stroke-linejoin="round"/>
<path d="M20.3062 9.0689C21.4525 9.0689 22.3819 8.14744 22.3819 7.01077C22.3819 5.87409 21.4525 4.95264 20.3062 4.95264C19.1598 4.95264 18.2305 5.87409 18.2305 7.01077C18.2305 8.14744 19.1598 9.0689 20.3062 9.0689Z" stroke="black" stroke-width="1.43702" stroke-linecap="round" stroke-linejoin="round"/>
<path d="M5.77687 21.417C6.92324 21.417 7.85256 20.4956 7.85256 19.3589C7.85256 18.2222 6.92324 17.3008 5.77687 17.3008C4.63049 17.3008 3.70117 18.2222 3.70117 19.3589C3.70117 20.4956 4.63049 21.417 5.77687 21.417Z" stroke="black" stroke-width="1.43702" stroke-linecap="round" stroke-linejoin="round"/>
<path d="M13.0425 21.417C14.1889 21.417 15.1182 20.4956 15.1182 19.3589C15.1182 18.2222 14.1889 17.3008 13.0425 17.3008C11.8961 17.3008 10.9668 18.2222 10.9668 19.3589C10.9668 20.4956 11.8961 21.417 13.0425 21.417Z" stroke="black" stroke-width="1.43702" stroke-linecap="round" stroke-linejoin="round"/>
<path d="M5.77734 9.06836V17.3009" stroke="black" stroke-width="1.43702" stroke-linecap="round" stroke-linejoin="round"/>
<path d="M13.043 9.06836V17.3009" stroke="black" stroke-width="1.43702" stroke-linecap="round" stroke-linejoin="round"/>
<path d="M20.3072 9.06836V11.1265C20.3072 11.6723 20.0885 12.1958 19.6993 12.5818C19.31 12.9678 18.782 13.1846 18.2315 13.1846H5.77734" stroke="black" stroke-width="1.43702" stroke-linecap="round" stroke-linejoin="round"/>
</svg>
