<svg width="24" height="24" viewBox="0 0 24 24" fill="none" xmlns="http://www.w3.org/2000/svg">
<path d="M10.6934 3.49121L19.4187 12.1398C19.6572 12.404 19.789 12.7462 19.789 13.1007C19.789 13.4553 19.6572 13.7974 19.4187 14.0617L13.6018 19.8274C13.3352 20.0637 12.99 20.1944 12.6323 20.1944C12.2746 20.1944 11.9295 20.0637 11.6628 19.8274L2.9375 11.1788V7.33501C2.9375 6.31557 3.34607 5.33789 4.07332 4.61703C4.80057 3.89618 5.78694 3.49121 6.81543 3.49121H10.6934Z" stroke="black" stroke-width="1.39605" stroke-linecap="round" stroke-linejoin="round"/>
<path d="M8.75537 11.1788C9.82623 11.1788 10.6943 10.3183 10.6943 9.25686C10.6943 8.19543 9.82623 7.33496 8.75537 7.33496C7.68451 7.33496 6.81641 8.19543 6.81641 9.25686C6.81641 10.3183 7.68451 11.1788 8.75537 11.1788Z" stroke="black" stroke-width="1.39605" stroke-linecap="round" stroke-linejoin="round"/>
</svg>
