<svg width="22" height="25" viewBox="0 0 22 25" fill="none" xmlns="http://www.w3.org/2000/svg">
<path d="M15.1927 8.2776V5.19464C15.1927 4.92209 15.0987 4.66071 14.9314 4.46798C14.7642 4.27526 14.5373 4.16699 14.3007 4.16699H5.3815C4.9084 4.16699 4.45467 4.38353 4.12013 4.76898C3.7856 5.15442 3.59766 5.67719 3.59766 6.22229C3.59766 6.76739 3.7856 7.29017 4.12013 7.67561C4.45467 8.06106 4.9084 8.2776 5.3815 8.2776H16.0846C16.3211 8.2776 16.548 8.38587 16.7153 8.57859C16.8825 8.77131 16.9765 9.0327 16.9765 9.30525V12.3882M16.9765 16.4988V19.5818C16.9765 19.8543 16.8825 20.1157 16.7153 20.3084C16.548 20.5011 16.3211 20.6094 16.0846 20.6094H5.3815C4.9084 20.6094 4.45467 20.3929 4.12013 20.0074C3.7856 19.622 3.59766 19.0992 3.59766 18.5541V6.22229" stroke="black" stroke-width="1.39605" stroke-linecap="round" stroke-linejoin="round"/>
<path d="M17.8672 12.3877V16.4983H14.2995C13.8264 16.4983 13.3726 16.2818 13.0381 15.8963C12.7036 15.5109 12.5156 14.9881 12.5156 14.443C12.5156 13.8979 12.7036 13.3751 13.0381 12.9897C13.3726 12.6042 13.8264 12.3877 14.2995 12.3877H17.8672Z" stroke="black" stroke-width="1.39605" stroke-linecap="round" stroke-linejoin="round"/>
</svg>
