<svg width="26" height="27" viewBox="0 0 26 27" fill="none" xmlns="http://www.w3.org/2000/svg">
<path d="M20.1309 10.1836H9.66049C8.50396 10.1836 7.56641 11.1482 7.56641 12.3382V18.8019C7.56641 19.9918 8.50396 20.9565 9.66049 20.9565H20.1309C21.2874 20.9565 22.225 19.9918 22.225 18.8019V12.3382C22.225 11.1482 21.2874 10.1836 20.1309 10.1836Z" stroke="black" stroke-width="1.39605" stroke-linecap="round" stroke-linejoin="round"/>
<path d="M14.8949 17.7247C16.0514 17.7247 16.9889 16.76 16.9889 15.5701C16.9889 14.3802 16.0514 13.4155 14.8949 13.4155C13.7383 13.4155 12.8008 14.3802 12.8008 15.5701C12.8008 16.76 13.7383 17.7247 14.8949 17.7247Z" stroke="black" stroke-width="1.39605" stroke-linecap="round" stroke-linejoin="round"/>
<path d="M18.0375 10.1837V8.02909C18.0375 7.45766 17.8168 6.90963 17.4241 6.50557C17.0314 6.10151 16.4988 5.87451 15.9434 5.87451H5.47299C4.9176 5.87451 4.38496 6.10151 3.99225 6.50557C3.59953 6.90963 3.37891 7.45766 3.37891 8.02909V14.4928C3.37891 15.0642 3.59953 15.6123 3.99225 16.0163C4.38496 16.4204 4.9176 16.6474 5.47299 16.6474H7.56707" stroke="black" stroke-width="1.39605" stroke-linecap="round" stroke-linejoin="round"/>
</svg>
