<svg width="26" height="26" viewBox="0 0 26 26" fill="none" xmlns="http://www.w3.org/2000/svg">
<path d="M5.41667 8.5933C6.61328 8.5933 7.58333 7.63146 7.58333 6.44496C7.58333 5.25847 6.61328 4.29663 5.41667 4.29663C4.22005 4.29663 3.25 5.25847 3.25 6.44496C3.25 7.63146 4.22005 8.5933 5.41667 8.5933Z" stroke="black" stroke-width="1.5" stroke-linecap="round" stroke-linejoin="round"/>
<path d="M12.9987 8.5933C14.1953 8.5933 15.1654 7.63146 15.1654 6.44496C15.1654 5.25847 14.1953 4.29663 12.9987 4.29663C11.8021 4.29663 10.832 5.25847 10.832 6.44496C10.832 7.63146 11.8021 8.5933 12.9987 8.5933Z" stroke="black" stroke-width="1.5" stroke-linecap="round" stroke-linejoin="round"/>
<path d="M20.5846 8.5933C21.7813 8.5933 22.7513 7.63146 22.7513 6.44496C22.7513 5.25847 21.7813 4.29663 20.5846 4.29663C19.388 4.29663 18.418 5.25847 18.418 6.44496C18.418 7.63146 19.388 8.5933 20.5846 8.5933Z" stroke="black" stroke-width="1.5" stroke-linecap="round" stroke-linejoin="round"/>
<path d="M5.41667 21.4833C6.61328 21.4833 7.58333 20.5215 7.58333 19.335C7.58333 18.1485 6.61328 17.1866 5.41667 17.1866C4.22005 17.1866 3.25 18.1485 3.25 19.335C3.25 20.5215 4.22005 21.4833 5.41667 21.4833Z" stroke="black" stroke-width="1.5" stroke-linecap="round" stroke-linejoin="round"/>
<path d="M12.9987 21.4833C14.1953 21.4833 15.1654 20.5215 15.1654 19.335C15.1654 18.1485 14.1953 17.1866 12.9987 17.1866C11.8021 17.1866 10.832 18.1485 10.832 19.335C10.832 20.5215 11.8021 21.4833 12.9987 21.4833Z" stroke="black" stroke-width="1.5" stroke-linecap="round" stroke-linejoin="round"/>
<path d="M5.41797 8.59338V17.1867" stroke="black" stroke-width="1.5" stroke-linecap="round" stroke-linejoin="round"/>
<path d="M13 8.59338V17.1867" stroke="black" stroke-width="1.5" stroke-linecap="round" stroke-linejoin="round"/>
<path d="M20.5846 8.59338V10.7417C20.5846 11.3115 20.3564 11.8579 19.95 12.2608C19.5437 12.6637 18.9926 12.8901 18.418 12.8901H5.41797" stroke="black" stroke-width="1.5" stroke-linecap="round" stroke-linejoin="round"/>
</svg>
