<svg width="25" height="25" viewBox="0 0 25 25" fill="none" xmlns="http://www.w3.org/2000/svg">
<path d="M11.1299 3.81836L20.1113 12.7207C20.3568 12.9927 20.4925 13.3449 20.4925 13.7098C20.4925 14.0748 20.3568 14.427 20.1113 14.699L14.1237 20.6339C13.8493 20.8772 13.494 21.0117 13.1258 21.0117C12.7576 21.0117 12.4023 20.8772 12.1279 20.6339L3.14648 11.7315V7.77495C3.14648 6.7256 3.56704 5.71922 4.31563 4.97722C5.06422 4.23521 6.07953 3.81836 7.1382 3.81836H11.1299Z" stroke="black" stroke-width="1.43702" stroke-linecap="round" stroke-linejoin="round"/>
<path d="M9.13258 11.7315C10.2349 11.7315 11.1284 10.8458 11.1284 9.7532C11.1284 8.66062 10.2349 7.7749 9.13258 7.7749C8.0303 7.7749 7.13672 8.66062 7.13672 9.7532C7.13672 10.8458 8.0303 11.7315 9.13258 11.7315Z" stroke="black" stroke-width="1.43702" stroke-linecap="round" stroke-linejoin="round"/>
</svg>
