<svg width="73" height="28" viewBox="0 0 73 28" fill="none" xmlns="http://www.w3.org/2000/svg">
<path d="M27.1201 24.265C30.4484 24.265 33.1465 23.2303 33.1465 21.954C33.1465 20.6777 30.4484 19.6431 27.1201 19.6431C23.7918 19.6431 21.0938 20.6777 21.0938 21.954C21.0938 23.2303 23.7918 24.265 27.1201 24.265Z" stroke="black" stroke-width="1.5" stroke-linecap="round" stroke-linejoin="round"/>
<path d="M51.2256 24.265C54.5538 24.265 57.2519 23.2303 57.2519 21.954C57.2519 20.6777 54.5538 19.6431 51.2256 19.6431C47.8973 19.6431 45.1992 20.6777 45.1992 21.954C45.1992 23.2303 47.8973 24.265 51.2256 24.265Z" stroke="black" stroke-width="1.5" stroke-linecap="round" stroke-linejoin="round"/>
<path d="M9.03906 3.46643H15.0654L21.0918 17.3321C21.7418 18.041 22.9748 18.6497 24.6052 19.0665C26.2356 19.4833 28.175 19.6856 30.1313 19.6431H51.2236C53.1799 19.6856 55.1193 19.4833 56.7497 19.0665C58.38 18.6497 59.6131 18.041 60.2631 17.3321L63.2763 9.24381H17.476" stroke="black" stroke-width="1.5" stroke-linecap="round" stroke-linejoin="round"/>
</svg>
