<svg width="25" height="26" viewBox="0 0 25 26" fill="none" xmlns="http://www.w3.org/2000/svg">
<path d="M11.4583 3.70752L20.8333 13C21.0896 13.284 21.2312 13.6516 21.2312 14.0325C21.2312 14.4135 21.0896 14.7811 20.8333 15.065L14.5833 21.26C14.2969 21.514 13.926 21.6544 13.5417 21.6544C13.1573 21.6544 12.7865 21.514 12.5 21.26L3.125 11.9675V7.83752C3.125 6.74218 3.56399 5.69169 4.34539 4.91717C5.12679 4.14264 6.1866 3.70752 7.29167 3.70752H11.4583Z" stroke="black" stroke-width="1.5" stroke-linecap="round" stroke-linejoin="round"/>
<path d="M9.3763 11.9675C10.5269 11.9675 11.4596 11.043 11.4596 9.90252C11.4596 8.76206 10.5269 7.83752 9.3763 7.83752C8.22571 7.83752 7.29297 8.76206 7.29297 9.90252C7.29297 11.043 8.22571 11.9675 9.3763 11.9675Z" stroke="black" stroke-width="1.5" stroke-linecap="round" stroke-linejoin="round"/>
</svg>
