<svg width="25" height="25" viewBox="0 0 25 25" fill="none" xmlns="http://www.w3.org/2000/svg">
<path d="M5.07121 8.12001C6.1849 8.12001 7.08773 7.22482 7.08773 6.12055C7.08773 5.01628 6.1849 4.12109 5.07121 4.12109C3.95752 4.12109 3.05469 5.01628 3.05469 6.12055C3.05469 7.22482 3.95752 8.12001 5.07121 8.12001Z" stroke="black" stroke-width="1.39605" stroke-linecap="round" stroke-linejoin="round"/>
<path d="M12.1298 8.12001C13.2435 8.12001 14.1463 7.22482 14.1463 6.12055C14.1463 5.01628 13.2435 4.12109 12.1298 4.12109C11.0161 4.12109 10.1133 5.01628 10.1133 6.12055C10.1133 7.22482 11.0161 8.12001 12.1298 8.12001Z" stroke="black" stroke-width="1.39605" stroke-linecap="round" stroke-linejoin="round"/>
<path d="M19.1845 8.12001C20.2982 8.12001 21.201 7.22482 21.201 6.12055C21.201 5.01628 20.2982 4.12109 19.1845 4.12109C18.0708 4.12109 17.168 5.01628 17.168 6.12055C17.168 7.22482 18.0708 8.12001 19.1845 8.12001Z" stroke="black" stroke-width="1.39605" stroke-linecap="round" stroke-linejoin="round"/>
<path d="M5.07121 20.1171C6.1849 20.1171 7.08773 19.2219 7.08773 18.1176C7.08773 17.0134 6.1849 16.1182 5.07121 16.1182C3.95752 16.1182 3.05469 17.0134 3.05469 18.1176C3.05469 19.2219 3.95752 20.1171 5.07121 20.1171Z" stroke="black" stroke-width="1.39605" stroke-linecap="round" stroke-linejoin="round"/>
<path d="M12.1298 20.1171C13.2435 20.1171 14.1463 19.2219 14.1463 18.1176C14.1463 17.0134 13.2435 16.1182 12.1298 16.1182C11.0161 16.1182 10.1133 17.0134 10.1133 18.1176C10.1133 19.2219 11.0161 20.1171 12.1298 20.1171Z" stroke="black" stroke-width="1.39605" stroke-linecap="round" stroke-linejoin="round"/>
<path d="M5.07031 8.11963V16.1175" stroke="black" stroke-width="1.39605" stroke-linecap="round" stroke-linejoin="round"/>
<path d="M12.1289 8.11963V16.1175" stroke="black" stroke-width="1.39605" stroke-linecap="round" stroke-linejoin="round"/>
<path d="M19.186 8.11963V10.1191C19.186 10.6494 18.9735 11.1579 18.5953 11.5329C18.2172 11.9079 17.7043 12.1185 17.1694 12.1185H5.07031" stroke="black" stroke-width="1.39605" stroke-linecap="round" stroke-linejoin="round"/>
</svg>
