<svg width="31" height="28" viewBox="0 0 31 28" fill="none" xmlns="http://www.w3.org/2000/svg">
<path d="M11.4933 24.5022C12.8983 24.5022 14.0373 23.4675 14.0373 22.1912C14.0373 20.9149 12.8983 19.8802 11.4933 19.8802C10.0882 19.8802 8.94922 20.9149 8.94922 22.1912C8.94922 23.4675 10.0882 24.5022 11.4933 24.5022Z" stroke="black" stroke-width="1.5" stroke-linecap="round" stroke-linejoin="round"/>
<path d="M21.6691 24.5022C23.0741 24.5022 24.2131 23.4675 24.2131 22.1912C24.2131 20.9149 23.0741 19.8802 21.6691 19.8802C20.264 19.8802 19.125 20.9149 19.125 22.1912C19.125 23.4675 20.264 24.5022 21.6691 24.5022Z" stroke="black" stroke-width="1.5" stroke-linecap="round" stroke-linejoin="round"/>
<path d="M3.85938 3.70361H6.40344L8.94751 17.5693C9.22191 18.2782 9.74245 18.8869 10.4307 19.3037C11.119 19.7205 11.9377 19.9228 12.7636 19.8803H21.6678C22.4937 19.9228 23.3124 19.7205 24.0007 19.3037C24.689 18.8869 25.2095 18.2782 25.4839 17.5693L26.756 9.48099H7.42107" stroke="black" stroke-width="1.5" stroke-linecap="round" stroke-linejoin="round"/>
</svg>
