<svg width="25" height="28" viewBox="0 0 25 28" fill="none" xmlns="http://www.w3.org/2000/svg">
<path d="M9.37435 23.8632C10.5249 23.8632 11.4577 22.8457 11.4577 21.5905C11.4577 20.3353 10.5249 19.3178 9.37435 19.3178C8.22376 19.3178 7.29102 20.3353 7.29102 21.5905C7.29102 22.8457 8.22376 23.8632 9.37435 23.8632Z" stroke="black" stroke-width="1.5" stroke-linecap="round" stroke-linejoin="round"/>
<path d="M17.7083 23.8632C18.8589 23.8632 19.7917 22.8457 19.7917 21.5905C19.7917 20.3353 18.8589 19.3178 17.7083 19.3178C16.5577 19.3178 15.625 20.3353 15.625 21.5905C15.625 22.8457 16.5577 23.8632 17.7083 23.8632Z" stroke="black" stroke-width="1.5" stroke-linecap="round" stroke-linejoin="round"/>
<path d="M3.125 3.40904H5.20833L7.29167 17.0451C7.51638 17.7422 7.94265 18.3408 8.50628 18.7507C9.0699 19.1606 9.74036 19.3596 10.4167 19.3178H17.7083C18.3846 19.3596 19.0551 19.1606 19.6187 18.7507C20.1824 18.3408 20.6086 17.7422 20.8333 17.0451L21.875 9.09074H6.04167" stroke="black" stroke-width="1.5" stroke-linecap="round" stroke-linejoin="round"/>
</svg>
