<svg width="21" height="28" viewBox="0 0 21 28" fill="none" xmlns="http://www.w3.org/2000/svg">
<path d="M7.94508 24.5022C8.90714 24.5022 9.68704 23.4675 9.68704 22.1912C9.68704 20.9149 8.90714 19.8802 7.94508 19.8802C6.98302 19.8802 6.20312 20.9149 6.20312 22.1912C6.20312 23.4675 6.98302 24.5022 7.94508 24.5022Z" stroke="black" stroke-width="1.5" stroke-linecap="round" stroke-linejoin="round"/>
<path d="M14.9138 24.5022C15.8759 24.5022 16.6558 23.4675 16.6558 22.1912C16.6558 20.9149 15.8759 19.8802 14.9138 19.8802C13.9518 19.8802 13.1719 20.9149 13.1719 22.1912C13.1719 23.4675 13.9518 24.5022 14.9138 24.5022Z" stroke="black" stroke-width="1.5" stroke-linecap="round" stroke-linejoin="round"/>
<path d="M2.71875 3.70361H4.46071L6.20266 17.5693C6.39055 18.2782 6.74697 18.8869 7.21824 19.3037C7.68951 19.7205 8.25011 19.9228 8.81559 19.8803H14.9124C15.4779 19.9228 16.0385 19.7205 16.5098 19.3037C16.9811 18.8869 17.3375 18.2782 17.5254 17.5693L18.3963 9.48099H5.15749" stroke="black" stroke-width="1.5" stroke-linecap="round" stroke-linejoin="round"/>
</svg>
