<svg width="28" height="28" viewBox="0 0 28 28" fill="none" xmlns="http://www.w3.org/2000/svg">
<path d="M10.1507 5.84961H7.90154C7.30502 5.84961 6.73293 6.08478 6.31112 6.50339C5.88931 6.92199 5.65234 7.48975 5.65234 8.08174V21.4746C5.65234 22.0666 5.88931 22.6343 6.31112 23.0529C6.73293 23.4715 7.30502 23.7067 7.90154 23.7067H19.1475C19.7441 23.7067 20.3162 23.4715 20.738 23.0529C21.1598 22.6343 21.3967 22.0666 21.3967 21.4746V8.08174C21.3967 7.48975 21.1598 6.92199 20.738 6.50339C20.3162 6.08478 19.7441 5.84961 19.1475 5.84961H16.8983" stroke="black" stroke-width="1.39605" stroke-linecap="round" stroke-linejoin="round"/>
<path d="M14.6488 3.61719H12.3996C11.1574 3.61719 10.1504 4.61655 10.1504 5.84932C10.1504 7.0821 11.1574 8.08146 12.3996 8.08146H14.6488C15.891 8.08146 16.898 7.0821 16.898 5.84932C16.898 4.61655 15.891 3.61719 14.6488 3.61719Z" stroke="black" stroke-width="1.39605" stroke-linecap="round" stroke-linejoin="round"/>
<path d="M10.1504 13.6616H10.1616" stroke="black" stroke-width="1.39605" stroke-linecap="round" stroke-linejoin="round"/>
<path d="M14.6504 13.6616H16.8996" stroke="black" stroke-width="1.39605" stroke-linecap="round" stroke-linejoin="round"/>
<path d="M10.1504 18.1265H10.1616" stroke="black" stroke-width="1.39605" stroke-linecap="round" stroke-linejoin="round"/>
<path d="M14.6504 18.1265H16.8996" stroke="black" stroke-width="1.39605" stroke-linecap="round" stroke-linejoin="round"/>
</svg>
