<svg width="28" height="29" viewBox="0 0 28 29" fill="none" xmlns="http://www.w3.org/2000/svg">
<path d="M10.5718 6.58984H8.2566C7.64258 6.58984 7.0537 6.83192 6.61951 7.26281C6.18533 7.6937 5.94141 8.27811 5.94141 8.88748V22.6733C5.94141 23.2827 6.18533 23.8671 6.61951 24.298C7.0537 24.7288 7.64258 24.9709 8.2566 24.9709H19.8326C20.4466 24.9709 21.0355 24.7288 21.4697 24.298C21.9039 23.8671 22.1478 23.2827 22.1478 22.6733V8.88748C22.1478 8.27811 21.9039 7.6937 21.4697 7.26281C21.0355 6.83192 20.4466 6.58984 19.8326 6.58984H17.5174" stroke="black" stroke-width="1.43702" stroke-linecap="round" stroke-linejoin="round"/>
<path d="M15.2027 4.29297H12.8875C11.6088 4.29297 10.5723 5.32165 10.5723 6.5906C10.5723 7.85955 11.6088 8.88824 12.8875 8.88824H15.2027C16.4813 8.88824 17.5179 7.85955 17.5179 6.5906C17.5179 5.32165 16.4813 4.29297 15.2027 4.29297Z" stroke="black" stroke-width="1.43702" stroke-linecap="round" stroke-linejoin="round"/>
<path d="M10.5723 14.6323H10.5848" stroke="black" stroke-width="1.43702" stroke-linecap="round" stroke-linejoin="round"/>
<path d="M15.2031 14.6323H17.5183" stroke="black" stroke-width="1.43702" stroke-linecap="round" stroke-linejoin="round"/>
<path d="M10.5723 19.2271H10.5848" stroke="black" stroke-width="1.43702" stroke-linecap="round" stroke-linejoin="round"/>
<path d="M15.2031 19.2271H17.5183" stroke="black" stroke-width="1.43702" stroke-linecap="round" stroke-linejoin="round"/>
</svg>
