<svg width="25" height="28" viewBox="0 0 25 28" fill="none" xmlns="http://www.w3.org/2000/svg">
<path d="M9.3763 24.5022C10.5269 24.5022 11.4596 23.4675 11.4596 22.1912C11.4596 20.9149 10.5269 19.8802 9.3763 19.8802C8.22571 19.8802 7.29297 20.9149 7.29297 22.1912C7.29297 23.4675 8.22571 24.5022 9.3763 24.5022Z" stroke="black" stroke-width="1.5" stroke-linecap="round" stroke-linejoin="round"/>
<path d="M17.7083 24.5022C18.8589 24.5022 19.7917 23.4675 19.7917 22.1912C19.7917 20.9149 18.8589 19.8802 17.7083 19.8802C16.5577 19.8802 15.625 20.9149 15.625 22.1912C15.625 23.4675 16.5577 24.5022 17.7083 24.5022Z" stroke="black" stroke-width="1.5" stroke-linecap="round" stroke-linejoin="round"/>
<path d="M3.125 3.70361H5.20833L7.29167 17.5693C7.51638 18.2782 7.94265 18.8869 8.50628 19.3037C9.0699 19.7205 9.74036 19.9228 10.4167 19.8803H17.7083C18.3846 19.9228 19.0551 19.7205 19.6187 19.3037C20.1824 18.8869 20.6086 18.2782 20.8333 17.5693L21.875 9.48099H6.04167" stroke="black" stroke-width="1.5" stroke-linecap="round" stroke-linejoin="round"/>
</svg>
