<svg width="25" height="36" viewBox="0 0 25 36" fill="none" xmlns="http://www.w3.org/2000/svg">
<path d="M9.77125 30.8211C10.8735 30.8211 11.7671 29.5308 11.7671 27.9391C11.7671 26.3474 10.8735 25.0571 9.77125 25.0571C8.66897 25.0571 7.77539 26.3474 7.77539 27.9391C7.77539 29.5308 8.66897 30.8211 9.77125 30.8211Z" stroke="black" stroke-width="1.43702" stroke-linecap="round" stroke-linejoin="round"/>
<path d="M17.7556 30.8211C18.8579 30.8211 19.7515 29.5308 19.7515 27.9391C19.7515 26.3474 18.8579 25.0571 17.7556 25.0571C16.6533 25.0571 15.7598 26.3474 15.7598 27.9391C15.7598 29.5308 16.6533 30.8211 17.7556 30.8211Z" stroke="black" stroke-width="1.43702" stroke-linecap="round" stroke-linejoin="round"/>
<path d="M3.78516 4.8833H5.78102L7.77688 22.1752C7.99215 23.0593 8.40053 23.8183 8.94049 24.3381C9.48045 24.8579 10.1228 25.1103 10.7707 25.0572H17.7562C18.4041 25.1103 19.0464 24.8579 19.5864 24.3381C20.1263 23.8183 20.5347 23.0593 20.75 22.1752L21.7479 12.0883H6.57936" stroke="black" stroke-width="1.43702" stroke-linecap="round" stroke-linejoin="round"/>
</svg>
