<svg width="24" height="35" viewBox="0 0 24 35" fill="none" xmlns="http://www.w3.org/2000/svg">
<path d="M8.75537 30.2037C9.82623 30.2037 10.6943 28.9501 10.6943 27.4038C10.6943 25.8575 9.82623 24.604 8.75537 24.604C7.68451 24.604 6.81641 25.8575 6.81641 27.4038C6.81641 28.9501 7.68451 30.2037 8.75537 30.2037Z" stroke="black" stroke-width="1.39605" stroke-linecap="round" stroke-linejoin="round"/>
<path d="M16.5112 30.2037C17.5821 30.2037 18.4502 28.9501 18.4502 27.4038C18.4502 25.8575 17.5821 24.604 16.5112 24.604C15.4404 24.604 14.5723 25.8575 14.5723 27.4038C14.5723 28.9501 15.4404 30.2037 16.5112 30.2037Z" stroke="black" stroke-width="1.39605" stroke-linecap="round" stroke-linejoin="round"/>
<path d="M2.9375 5.00488H4.87646L6.81543 21.8039C7.02457 22.6627 7.4213 23.4001 7.94587 23.9051C8.47044 24.4101 9.09443 24.6553 9.72387 24.6037H16.5102C17.1397 24.6553 17.7637 24.4101 18.2883 23.9051C18.8128 23.4001 19.2096 22.6627 19.4187 21.8039L20.3882 12.0045H5.65205" stroke="black" stroke-width="1.39605" stroke-linecap="round" stroke-linejoin="round"/>
</svg>
