<svg width="26" height="25" viewBox="0 0 26 25" fill="none" xmlns="http://www.w3.org/2000/svg">
<path d="M5.34327 8.53667C6.48965 8.53667 7.41897 7.61522 7.41897 6.47854C7.41897 5.34187 6.48965 4.42041 5.34327 4.42041C4.1969 4.42041 3.26758 5.34187 3.26758 6.47854C3.26758 7.61522 4.1969 8.53667 5.34327 8.53667Z" stroke="black" stroke-width="1.43702" stroke-linecap="round" stroke-linejoin="round"/>
<path d="M12.6089 8.53667C13.7553 8.53667 14.6846 7.61522 14.6846 6.47854C14.6846 5.34187 13.7553 4.42041 12.6089 4.42041C11.4625 4.42041 10.5332 5.34187 10.5332 6.47854C10.5332 7.61522 11.4625 8.53667 12.6089 8.53667Z" stroke="black" stroke-width="1.43702" stroke-linecap="round" stroke-linejoin="round"/>
<path d="M19.8726 8.53667C21.0189 8.53667 21.9483 7.61522 21.9483 6.47854C21.9483 5.34187 21.0189 4.42041 19.8726 4.42041C18.7262 4.42041 17.7969 5.34187 17.7969 6.47854C17.7969 7.61522 18.7262 8.53667 19.8726 8.53667Z" stroke="black" stroke-width="1.43702" stroke-linecap="round" stroke-linejoin="round"/>
<path d="M5.34327 20.8848C6.48965 20.8848 7.41897 19.9634 7.41897 18.8267C7.41897 17.69 6.48965 16.7686 5.34327 16.7686C4.1969 16.7686 3.26758 17.69 3.26758 18.8267C3.26758 19.9634 4.1969 20.8848 5.34327 20.8848Z" stroke="black" stroke-width="1.43702" stroke-linecap="round" stroke-linejoin="round"/>
<path d="M12.6089 20.8848C13.7553 20.8848 14.6846 19.9634 14.6846 18.8267C14.6846 17.69 13.7553 16.7686 12.6089 16.7686C11.4625 16.7686 10.5332 17.69 10.5332 18.8267C10.5332 19.9634 11.4625 20.8848 12.6089 20.8848Z" stroke="black" stroke-width="1.43702" stroke-linecap="round" stroke-linejoin="round"/>
<path d="M5.34375 8.53613V16.7687" stroke="black" stroke-width="1.43702" stroke-linecap="round" stroke-linejoin="round"/>
<path d="M12.6094 8.53613V16.7687" stroke="black" stroke-width="1.43702" stroke-linecap="round" stroke-linejoin="round"/>
<path d="M19.8736 8.53613V10.5943C19.8736 11.1401 19.6549 11.6636 19.2657 12.0496C18.8764 12.4356 18.3484 12.6524 17.7979 12.6524H5.34375" stroke="black" stroke-width="1.43702" stroke-linecap="round" stroke-linejoin="round"/>
</svg>
