<svg width="27" height="28" viewBox="0 0 27 28" fill="none" xmlns="http://www.w3.org/2000/svg">
<path d="M20.7574 10.9287H9.97975C8.78928 10.9287 7.82422 11.9217 7.82422 13.1465V19.7999C7.82422 21.0248 8.78928 22.0177 9.97975 22.0177H20.7574C21.9479 22.0177 22.9129 21.0248 22.9129 19.7999V13.1465C22.9129 11.9217 21.9479 10.9287 20.7574 10.9287Z" stroke="black" stroke-width="1.43702" stroke-linecap="round" stroke-linejoin="round"/>
<path d="M15.3684 18.6915C16.5589 18.6915 17.5239 17.6985 17.5239 16.4737C17.5239 15.2488 16.5589 14.2559 15.3684 14.2559C14.178 14.2559 13.2129 15.2488 13.2129 16.4737C13.2129 17.6985 14.178 18.6915 15.3684 18.6915Z" stroke="black" stroke-width="1.43702" stroke-linecap="round" stroke-linejoin="round"/>
<path d="M18.6004 10.9288V8.71096C18.6004 8.12277 18.3733 7.55866 17.9691 7.14274C17.5648 6.72682 17.0166 6.49316 16.4449 6.49316H5.66725C5.09557 6.49316 4.5473 6.72682 4.14306 7.14274C3.73882 7.55866 3.51172 8.12277 3.51172 8.71096V15.3644C3.51172 15.9526 3.73882 16.5167 4.14306 16.9326C4.5473 17.3485 5.09557 17.5822 5.66725 17.5822H7.82278" stroke="black" stroke-width="1.43702" stroke-linecap="round" stroke-linejoin="round"/>
</svg>
