<svg width="26" height="30" viewBox="0 0 26 30" fill="none" xmlns="http://www.w3.org/2000/svg">
<path d="M9.53621 25.9418C10.6877 25.9418 11.6213 24.8385 11.6213 23.4775C11.6213 22.1165 10.6877 21.0132 9.53621 21.0132C8.38468 21.0132 7.45117 22.1165 7.45117 23.4775C7.45117 24.8385 8.38468 25.9418 9.53621 25.9418Z" stroke="black" stroke-width="1.43702" stroke-linecap="round" stroke-linejoin="round"/>
<path d="M17.878 25.9418C19.0295 25.9418 19.963 24.8385 19.963 23.4775C19.963 22.1165 19.0295 21.0132 17.878 21.0132C16.7265 21.0132 15.793 22.1165 15.793 23.4775C15.793 24.8385 16.7265 25.9418 17.878 25.9418Z" stroke="black" stroke-width="1.43702" stroke-linecap="round" stroke-linejoin="round"/>
<path d="M3.28125 3.76318H5.36629L7.45133 18.5491C7.67622 19.305 8.10284 19.9541 8.66693 20.3986C9.23102 20.843 9.90203 21.0588 10.5789 21.0135H17.8765C18.5534 21.0588 19.2244 20.843 19.7885 20.3986C20.3526 19.9541 20.7792 19.305 21.0041 18.5491L22.0466 9.924H6.20031" stroke="black" stroke-width="1.43702" stroke-linecap="round" stroke-linejoin="round"/>
</svg>
