<svg width="28" height="28" viewBox="0 0 28 28" fill="none" xmlns="http://www.w3.org/2000/svg">
<path d="M10.3265 5.84912H8.07732C7.4808 5.84912 6.90871 6.08429 6.4869 6.5029C6.06509 6.9215 5.82813 7.48926 5.82812 8.08126V21.4741C5.82813 22.0661 6.06509 22.6338 6.4869 23.0524C6.90871 23.471 7.4808 23.7062 8.07732 23.7062H19.3233C19.9198 23.7062 20.4919 23.471 20.9137 23.0524C21.3355 22.6338 21.5725 22.0661 21.5725 21.4741V8.08126C21.5725 7.48926 21.3355 6.9215 20.9137 6.5029C20.4919 6.08429 19.9198 5.84912 19.3233 5.84912H17.0741" stroke="black" stroke-width="1.39605" stroke-linecap="round" stroke-linejoin="round"/>
<path d="M14.8246 3.6167H12.5754C11.3332 3.6167 10.3262 4.61606 10.3262 5.84883C10.3262 7.08161 11.3332 8.08097 12.5754 8.08097H14.8246C16.0668 8.08097 17.0738 7.08161 17.0738 5.84883C17.0738 4.61606 16.0668 3.6167 14.8246 3.6167Z" stroke="black" stroke-width="1.39605" stroke-linecap="round" stroke-linejoin="round"/>
<path d="M10.3262 13.6616H10.3374" stroke="black" stroke-width="1.39605" stroke-linecap="round" stroke-linejoin="round"/>
<path d="M14.8262 13.6616H17.0754" stroke="black" stroke-width="1.39605" stroke-linecap="round" stroke-linejoin="round"/>
<path d="M10.3262 18.126H10.3374" stroke="black" stroke-width="1.39605" stroke-linecap="round" stroke-linejoin="round"/>
<path d="M14.8262 18.126H17.0754" stroke="black" stroke-width="1.39605" stroke-linecap="round" stroke-linejoin="round"/>
</svg>
