<svg width="23" height="28" viewBox="0 0 23 28" fill="none" xmlns="http://www.w3.org/2000/svg">
<path d="M16.2904 9.58329V6.27079C16.2904 5.97795 16.1894 5.6971 16.0097 5.49003C15.83 5.28296 15.5862 5.16663 15.332 5.16663H5.7487C5.24037 5.16663 4.75285 5.39929 4.39341 5.81343C4.03397 6.22757 3.83203 6.78927 3.83203 7.37496C3.83203 7.96065 4.03397 8.52234 4.39341 8.93649C4.75285 9.35063 5.24037 9.58329 5.7487 9.58329H17.2487C17.5029 9.58329 17.7466 9.69962 17.9263 9.9067C18.1061 10.1138 18.207 10.3946 18.207 10.6875V14M18.207 18.4166V21.7291C18.207 22.022 18.1061 22.3028 17.9263 22.5099C17.7466 22.717 17.5029 22.8333 17.2487 22.8333H5.7487C5.24037 22.8333 4.75285 22.6006 4.39341 22.1865C4.03397 21.7723 3.83203 21.2106 3.83203 20.625V7.37496" stroke="black" stroke-width="1.5" stroke-linecap="round" stroke-linejoin="round"/>
<path d="M19.168 14V18.4167H15.3346C14.8263 18.4167 14.3388 18.184 13.9793 17.7699C13.6199 17.3557 13.418 16.794 13.418 16.2083C13.418 15.6226 13.6199 15.0609 13.9793 14.6468C14.3388 14.2327 14.8263 14 15.3346 14H19.168Z" stroke="black" stroke-width="1.5" stroke-linecap="round" stroke-linejoin="round"/>
</svg>
