<svg width="26" height="26" viewBox="0 0 26 26" fill="none" xmlns="http://www.w3.org/2000/svg">
<path d="M5.7671 9.0689C6.91348 9.0689 7.8428 8.14744 7.8428 7.01077C7.8428 5.87409 6.91348 4.95264 5.7671 4.95264C4.62073 4.95264 3.69141 5.87409 3.69141 7.01077C3.69141 8.14744 4.62073 9.0689 5.7671 9.0689Z" stroke="black" stroke-width="1.43702" stroke-linecap="round" stroke-linejoin="round"/>
<path d="M13.0327 9.0689C14.1791 9.0689 15.1084 8.14744 15.1084 7.01077C15.1084 5.87409 14.1791 4.95264 13.0327 4.95264C11.8864 4.95264 10.957 5.87409 10.957 7.01077C10.957 8.14744 11.8864 9.0689 13.0327 9.0689Z" stroke="black" stroke-width="1.43702" stroke-linecap="round" stroke-linejoin="round"/>
<path d="M20.2964 9.0689C21.4428 9.0689 22.3721 8.14744 22.3721 7.01077C22.3721 5.87409 21.4428 4.95264 20.2964 4.95264C19.15 4.95264 18.2207 5.87409 18.2207 7.01077C18.2207 8.14744 19.15 9.0689 20.2964 9.0689Z" stroke="black" stroke-width="1.43702" stroke-linecap="round" stroke-linejoin="round"/>
<path d="M5.7671 21.417C6.91348 21.417 7.8428 20.4956 7.8428 19.3589C7.8428 18.2222 6.91348 17.3008 5.7671 17.3008C4.62073 17.3008 3.69141 18.2222 3.69141 19.3589C3.69141 20.4956 4.62073 21.417 5.7671 21.417Z" stroke="black" stroke-width="1.43702" stroke-linecap="round" stroke-linejoin="round"/>
<path d="M13.0327 21.417C14.1791 21.417 15.1084 20.4956 15.1084 19.3589C15.1084 18.2222 14.1791 17.3008 13.0327 17.3008C11.8864 17.3008 10.957 18.2222 10.957 19.3589C10.957 20.4956 11.8864 21.417 13.0327 21.417Z" stroke="black" stroke-width="1.43702" stroke-linecap="round" stroke-linejoin="round"/>
<path d="M5.76758 9.06836V17.3009" stroke="black" stroke-width="1.43702" stroke-linecap="round" stroke-linejoin="round"/>
<path d="M13.0312 9.06836V17.3009" stroke="black" stroke-width="1.43702" stroke-linecap="round" stroke-linejoin="round"/>
<path d="M20.2974 9.06836V11.1265C20.2974 11.6723 20.0788 12.1958 19.6895 12.5818C19.3002 12.9678 18.7723 13.1846 18.2217 13.1846H5.76758" stroke="black" stroke-width="1.43702" stroke-linecap="round" stroke-linejoin="round"/>
</svg>
