<svg width="23" height="26" viewBox="0 0 23 26" fill="none" xmlns="http://www.w3.org/2000/svg">
<path d="M15.7634 8.50417V5.33076C15.7634 5.05021 15.6666 4.78115 15.4945 4.58277C15.3223 4.3844 15.0888 4.27295 14.8453 4.27295H5.66432C5.17733 4.27295 4.71029 4.49584 4.36593 4.8926C4.02158 5.28935 3.82813 5.82747 3.82812 6.38856C3.82813 6.94966 4.02158 7.48777 4.36593 7.88452C4.71029 8.28128 5.17733 8.50417 5.66432 8.50417H16.6815C16.925 8.50417 17.1585 8.61562 17.3307 8.814C17.5028 9.01237 17.5996 9.28143 17.5996 9.56198V12.7354M17.5996 16.9666V20.14C17.5996 20.4206 17.5028 20.6896 17.3307 20.888C17.1585 21.0864 16.925 21.1978 16.6815 21.1978H5.66432C5.17733 21.1978 4.71029 20.975 4.36593 20.5782C4.02158 20.1814 3.82813 19.6433 3.82812 19.0822V6.38856" stroke="black" stroke-width="1.43702" stroke-linecap="round" stroke-linejoin="round"/>
<path d="M18.5164 12.7358V16.9671H14.844C14.357 16.9671 13.89 16.7442 13.5456 16.3474C13.2013 15.9507 13.0078 15.4125 13.0078 14.8515C13.0078 14.2904 13.2013 13.7522 13.5456 13.3555C13.89 12.9587 14.357 12.7358 14.844 12.7358H18.5164Z" stroke="black" stroke-width="1.43702" stroke-linecap="round" stroke-linejoin="round"/>
</svg>
