<svg width="26" height="30" viewBox="0 0 26 30" fill="none" xmlns="http://www.w3.org/2000/svg">
<path d="M9.96004 25.9418C11.1116 25.9418 12.0451 24.8385 12.0451 23.4775C12.0451 22.1165 11.1116 21.0132 9.96004 21.0132C8.8085 21.0132 7.875 22.1165 7.875 23.4775C7.875 24.8385 8.8085 25.9418 9.96004 25.9418Z" stroke="black" stroke-width="1.43702" stroke-linecap="round" stroke-linejoin="round"/>
<path d="M18.3018 25.9418C19.4534 25.9418 20.3869 24.8385 20.3869 23.4775C20.3869 22.1165 19.4534 21.0132 18.3018 21.0132C17.1503 21.0132 16.2168 22.1165 16.2168 23.4775C16.2168 24.8385 17.1503 25.9418 18.3018 25.9418Z" stroke="black" stroke-width="1.43702" stroke-linecap="round" stroke-linejoin="round"/>
<path d="M3.70508 3.76318H5.79012L7.87516 18.5491C8.10005 19.305 8.52667 19.9541 9.09076 20.3986C9.65485 20.843 10.3259 21.0588 11.0027 21.0135H18.3004C18.9772 21.0588 19.6482 20.843 20.2123 20.3986C20.7764 19.9541 21.203 19.305 21.4279 18.5491L22.4704 9.924H6.62413" stroke="black" stroke-width="1.43702" stroke-linecap="round" stroke-linejoin="round"/>
</svg>
