<svg width="43" height="28" viewBox="0 0 43 28" fill="none" xmlns="http://www.w3.org/2000/svg">
<path d="M16.2993 24.5023C18.2078 24.5023 19.7549 23.4676 19.7549 22.1913C19.7549 20.915 18.2078 19.8804 16.2993 19.8804C14.3909 19.8804 12.8438 20.915 12.8438 22.1913C12.8438 23.4676 14.3909 24.5023 16.2993 24.5023Z" stroke="black" stroke-width="1.5" stroke-linecap="round" stroke-linejoin="round"/>
<path d="M30.1235 24.5023C32.032 24.5023 33.5791 23.4676 33.5791 22.1913C33.5791 20.915 32.032 19.8804 30.1235 19.8804C28.2151 19.8804 26.668 20.915 26.668 22.1913C26.668 23.4676 28.2151 24.5023 30.1235 24.5023Z" stroke="black" stroke-width="1.5" stroke-linecap="round" stroke-linejoin="round"/>
<path d="M5.93359 3.70361H9.38915L12.8447 17.5693C13.2174 18.2782 13.9245 18.8869 14.8593 19.3037C15.7942 19.7205 16.9063 19.9228 18.028 19.8803H30.1225C31.2442 19.9228 32.3563 19.7205 33.2912 19.3037C34.226 18.8869 34.9331 18.2782 35.3058 17.5693L37.0336 9.48099H10.7714" stroke="black" stroke-width="1.5" stroke-linecap="round" stroke-linejoin="round"/>
</svg>
