<svg width="26" height="31" viewBox="0 0 26 31" fill="none" xmlns="http://www.w3.org/2000/svg">
<path d="M9.53621 26.4096C10.6877 26.4096 11.6213 25.3063 11.6213 23.9453C11.6213 22.5843 10.6877 21.481 9.53621 21.481C8.38468 21.481 7.45117 22.5843 7.45117 23.9453C7.45117 25.3063 8.38468 26.4096 9.53621 26.4096Z" stroke="black" stroke-width="1.43702" stroke-linecap="round" stroke-linejoin="round"/>
<path d="M17.878 26.4096C19.0295 26.4096 19.963 25.3063 19.963 23.9453C19.963 22.5843 19.0295 21.481 17.878 21.481C16.7265 21.481 15.793 22.5843 15.793 23.9453C15.793 25.3063 16.7265 26.4096 17.878 26.4096Z" stroke="black" stroke-width="1.43702" stroke-linecap="round" stroke-linejoin="round"/>
<path d="M3.28125 4.23047H5.36629L7.45133 19.0164C7.67622 19.7723 8.10284 20.4214 8.66693 20.8659C9.23102 21.3103 9.90203 21.5261 10.5789 21.4807H17.8765C18.5534 21.5261 19.2244 21.3103 19.7885 20.8659C20.3526 20.4214 20.7792 19.7723 21.0041 19.0164L22.0466 10.3913H6.20031" stroke="black" stroke-width="1.43702" stroke-linecap="round" stroke-linejoin="round"/>
</svg>
