<svg width="13" height="13" viewBox="0 0 13 13" fill="none" xmlns="http://www.w3.org/2000/svg">
<path fill-rule="evenodd" clip-rule="evenodd" d="M9.51869 3.15222V10.1685C9.51869 10.4046 9.32726 10.596 9.09112 10.596C8.85497 10.596 8.66354 10.4046 8.66354 10.1685V3.15222L7.38133 4.43443C7.21435 4.60141 6.94363 4.60141 6.77665 4.43443C6.60967 4.26745 6.60967 3.99672 6.77665 3.82974L8.78877 1.81762C8.95575 1.65064 9.22648 1.65064 9.39346 1.81762L11.4056 3.82974C11.5726 3.99672 11.5726 4.26745 11.4056 4.43443C11.2386 4.60141 10.9679 4.60141 10.8009 4.43443L9.51869 3.15222ZM4.48838 3.12602C4.48838 2.88988 4.29694 2.69845 4.0608 2.69845C3.82465 2.69845 3.63322 2.88988 3.63322 3.12602V10.1423L2.35101 8.86006C2.18403 8.69308 1.91331 8.69308 1.74633 8.86006C1.57935 9.02704 1.57935 9.29777 1.74633 9.46475L3.75846 11.4769C3.92543 11.6439 4.19616 11.6439 4.36314 11.4769L6.37527 9.46475C6.54225 9.29777 6.54225 9.02704 6.37527 8.86006C6.20829 8.69308 5.93756 8.69308 5.77058 8.86006L4.48838 10.1423V3.12602Z" fill="#7C8DB5"/>
</svg>
