<svg width="13" height="13" viewBox="0 0 13 13" fill="none" xmlns="http://www.w3.org/2000/svg">
<path fill-rule="evenodd" clip-rule="evenodd" d="M9.05776 3.03796V10.0542C9.05776 10.2904 8.86632 10.4818 8.63018 10.4818C8.39403 10.4818 8.2026 10.2904 8.2026 10.0542V3.03796L6.92039 4.32017C6.75342 4.48715 6.48269 4.48715 6.31571 4.32017C6.14873 4.15319 6.14873 3.88247 6.31571 3.71549L8.32784 1.70336C8.49482 1.53638 8.76554 1.53638 8.93252 1.70336L10.9446 3.71549C11.1116 3.88247 11.1116 4.15319 10.9446 4.32017C10.7777 4.48715 10.5069 4.48715 10.34 4.32017L9.05776 3.03796ZM4.02744 3.01177C4.02744 2.77562 3.836 2.58419 3.59986 2.58419C3.36372 2.58419 3.17228 2.77562 3.17228 3.01177V10.028L1.89008 8.74581C1.7231 8.57883 1.45237 8.57883 1.28539 8.74581C1.11841 8.91278 1.11841 9.18351 1.28539 9.35049L3.29752 11.3626C3.4645 11.5296 3.73522 11.5296 3.9022 11.3626L5.91433 9.35049C6.08131 9.18351 6.08131 8.91278 5.91433 8.74581C5.74735 8.57883 5.47662 8.57883 5.30965 8.74581L4.02744 10.028V3.01177Z" fill="#7C8DB5"/>
</svg>
