<svg width="13" height="13" viewBox="0 0 13 13" fill="none" xmlns="http://www.w3.org/2000/svg">
<path fill-rule="evenodd" clip-rule="evenodd" d="M9.90151 2.57947V9.59572C9.90151 9.83186 9.71007 10.0233 9.47393 10.0233C9.23778 10.0233 9.04635 9.83186 9.04635 9.59572V2.57947L7.76414 3.86168C7.59717 4.02866 7.32644 4.02866 7.15946 3.86168C6.99248 3.6947 6.99248 3.42397 7.15946 3.25699L9.17159 1.24486C9.33857 1.07788 9.60929 1.07788 9.77627 1.24486L11.7884 3.25699C11.9554 3.42397 11.9554 3.6947 11.7884 3.86168C11.6214 4.02866 11.3507 4.02866 11.1837 3.86168L9.90151 2.57947ZM4.87119 2.55327C4.87119 2.31713 4.67975 2.12569 4.44361 2.12569C4.20747 2.12569 4.01603 2.31713 4.01603 2.55327V9.56952L2.73383 8.28731C2.56685 8.12033 2.29612 8.12033 2.12914 8.28731C1.96216 8.45429 1.96216 8.72502 2.12914 8.89199L4.14127 10.9041C4.30825 11.0711 4.57897 11.0711 4.74595 10.9041L6.75808 8.89199C6.92506 8.72502 6.92506 8.45429 6.75808 8.28731C6.5911 8.12033 6.32037 8.12033 6.1534 8.28731L4.87119 9.56952V2.55327Z" fill="#7C8DB5"/>
</svg>
