<svg width="10" height="10" viewBox="0 0 10 10" fill="none" xmlns="http://www.w3.org/2000/svg">
<g clip-path="url(#clip0_737_4732)">
<path fill-rule="evenodd" clip-rule="evenodd" d="M7.18652 2.64172V7.97646C7.18652 8.15601 7.04096 8.30157 6.86141 8.30157C6.68186 8.30157 6.53631 8.15601 6.53631 7.97646V2.64172L5.56139 3.61663C5.43443 3.74359 5.22858 3.74359 5.10162 3.61663C4.97466 3.48967 4.97466 3.28383 5.10162 3.15686L6.63153 1.62696C6.75849 1.5 6.96433 1.5 7.0913 1.62696L8.6212 3.15686C8.74816 3.28383 8.74816 3.48967 8.6212 3.61663C8.49424 3.74359 8.28839 3.74359 8.16143 3.61663L7.18652 2.64172ZM3.36175 2.6218C3.36175 2.44225 3.2162 2.29669 3.03665 2.29669C2.8571 2.29669 2.71155 2.44225 2.71155 2.6218V7.95654L1.73663 6.98163C1.60967 6.85466 1.40382 6.85466 1.27686 6.98163C1.1499 7.10859 1.1499 7.31443 1.27686 7.44139L2.80677 8.9713C2.93373 9.09826 3.13957 9.09826 3.26653 8.9713L4.79644 7.44139C4.9234 7.31443 4.9234 7.10859 4.79644 6.98163C4.66948 6.85466 4.46363 6.85466 4.33667 6.98163L3.36175 7.95654V2.6218Z" fill="#7C8DB5"/>
</g>
<defs>
<clipPath id="clip0_737_4732">
<rect width="9.17943" height="9.17943" fill="white" transform="translate(0.359375 0.709351)"/>
</clipPath>
</defs>
</svg>
