<svg width="13" height="13" viewBox="0 0 13 13" fill="none" xmlns="http://www.w3.org/2000/svg">
<path fill-rule="evenodd" clip-rule="evenodd" d="M8.9894 3.00281V10.0191C8.9894 10.2552 8.79796 10.4466 8.56182 10.4466C8.32568 10.4466 8.13424 10.2552 8.13424 10.0191V3.00281L6.85204 4.28502C6.68506 4.452 6.41433 4.452 6.24735 4.28502C6.08037 4.11804 6.08037 3.84731 6.24735 3.68033L8.25948 1.6682C8.42646 1.50122 8.69718 1.50122 8.86416 1.6682L10.8763 3.68033C11.0433 3.84731 11.0433 4.11804 10.8763 4.28502C10.7093 4.452 10.4386 4.452 10.2716 4.28502L8.9894 3.00281ZM3.95908 2.97661C3.95908 2.74047 3.76765 2.54903 3.5315 2.54903C3.29536 2.54903 3.10392 2.74047 3.10392 2.97661V9.99286L1.82172 8.71065C1.65474 8.54367 1.38401 8.54367 1.21703 8.71065C1.05005 8.87763 1.05005 9.14836 1.21703 9.31533L3.22916 11.3275C3.39614 11.4944 3.66686 11.4944 3.83384 11.3275L5.84597 9.31533C6.01295 9.14836 6.01295 8.87763 5.84597 8.71065C5.67899 8.54367 5.40827 8.54367 5.24129 8.71065L3.95908 9.99286V2.97661Z" fill="#7C8DB5"/>
</svg>
