<svg width="13" height="13" viewBox="0 0 13 13" fill="none" xmlns="http://www.w3.org/2000/svg">
<path fill-rule="evenodd" clip-rule="evenodd" d="M9.09877 2.57947V9.59572C9.09877 9.83186 8.90734 10.0233 8.6712 10.0233C8.43505 10.0233 8.24362 9.83186 8.24362 9.59572V2.57947L6.96141 3.86168C6.79443 4.02866 6.5237 4.02866 6.35672 3.86168C6.18975 3.6947 6.18975 3.42397 6.35672 3.25699L8.36885 1.24486C8.53583 1.07788 8.80656 1.07788 8.97354 1.24486L10.9857 3.25699C11.1526 3.42397 11.1526 3.6947 10.9857 3.86168C10.8187 4.02866 10.548 4.02866 10.381 3.86168L9.09877 2.57947ZM4.06845 2.55327C4.06845 2.31713 3.87702 2.12569 3.64088 2.12569C3.40473 2.12569 3.2133 2.31713 3.2133 2.55327V9.56952L1.93109 8.28731C1.76411 8.12033 1.49339 8.12033 1.32641 8.28731C1.15943 8.45429 1.15943 8.72502 1.32641 8.89199L3.33853 10.9041C3.50551 11.0711 3.77624 11.0711 3.94322 10.9041L5.95535 8.89199C6.12233 8.72502 6.12233 8.45429 5.95535 8.28731C5.78837 8.12033 5.51764 8.12033 5.35066 8.28731L4.06845 9.56952V2.55327Z" fill="#7C8DB5"/>
</svg>
