<svg width="7" height="8" viewBox="0 0 7 8" fill="none" xmlns="http://www.w3.org/2000/svg">
<g clip-path="url(#clip0_852_8621)">
<path fill-rule="evenodd" clip-rule="evenodd" d="M5.37655 2.24173V5.80192C5.37655 5.92175 5.27941 6.01888 5.15959 6.01888C5.03976 6.01888 4.94263 5.92175 4.94263 5.80192V2.24173L4.29201 2.89235C4.20728 2.97708 4.06991 2.97708 3.98518 2.89235C3.90045 2.80762 3.90045 2.67025 3.98518 2.58552L5.00617 1.56452C5.0909 1.47979 5.22827 1.47979 5.313 1.56452L6.334 2.58552C6.41873 2.67025 6.41873 2.80762 6.334 2.89235C6.24927 2.97708 6.1119 2.97708 6.02717 2.89235L5.37655 2.24173ZM2.82406 2.22844C2.82406 2.10861 2.72692 2.01147 2.6071 2.01147C2.48727 2.01147 2.39014 2.10861 2.39014 2.22844V5.78863L1.73952 5.13801C1.65479 5.05328 1.51742 5.05328 1.43269 5.13801C1.34796 5.22274 1.34796 5.36011 1.43269 5.44484L2.45368 6.46583C2.53841 6.55056 2.67578 6.55056 2.76051 6.46583L3.78151 5.44484C3.86624 5.36011 3.86624 5.22274 3.78151 5.13801C3.69678 5.05328 3.55941 5.05328 3.47468 5.13801L2.82406 5.78863V2.22844Z" fill="#7C8DB5"/>
</g>
<defs>
<clipPath id="clip0_852_8621">
<rect width="6.12598" height="6.12598" fill="white" transform="translate(0.820312 0.952148)"/>
</clipPath>
</defs>
</svg>
