<svg width="13" height="13" viewBox="0 0 13 13" fill="none" xmlns="http://www.w3.org/2000/svg">
<path fill-rule="evenodd" clip-rule="evenodd" d="M9.71791 3.15222V10.1685C9.71791 10.4046 9.52648 10.596 9.29034 10.596C9.05419 10.596 8.86276 10.4046 8.86276 10.1685V3.15222L7.58055 4.43443C7.41357 4.60141 7.14284 4.60141 6.97587 4.43443C6.80889 4.26745 6.80889 3.99672 6.97587 3.82974L8.98799 1.81762C9.15497 1.65064 9.4257 1.65064 9.59268 1.81762L11.6048 3.82974C11.7718 3.99672 11.7718 4.26745 11.6048 4.43443C11.4378 4.60141 11.1671 4.60141 11.0001 4.43443L9.71791 3.15222ZM4.68759 3.12602C4.68759 2.88988 4.49616 2.69845 4.26002 2.69845C4.02387 2.69845 3.83244 2.88988 3.83244 3.12602V10.1423L2.55023 8.86006C2.38325 8.69308 2.11253 8.69308 1.94555 8.86006C1.77857 9.02704 1.77857 9.29777 1.94555 9.46475L3.95767 11.4769C4.12465 11.6439 4.39538 11.6439 4.56236 11.4769L6.57449 9.46475C6.74147 9.29777 6.74147 9.02704 6.57449 8.86006C6.40751 8.69308 6.13678 8.69308 5.9698 8.86006L4.68759 10.1423V3.12602Z" fill="#7C8DB5"/>
</svg>
