<svg width="19" height="19" viewBox="0 0 19 19" fill="none" xmlns="http://www.w3.org/2000/svg">
<g clip-path="url(#clip0_1862_2306)">
<path d="M17.6337 0.246094H1.73423C0.985788 0.246094 0.376953 0.854929 0.376953 1.60337V3.54233C0.376953 4.29077 0.985788 4.89961 1.73423 4.89961H17.6337C18.3822 4.89961 18.991 4.29077 18.991 3.54233V1.60337C18.991 0.854929 18.3822 0.246094 17.6337 0.246094Z" fill="black"/>
<path d="M1.73423 18.8601H7.55112C8.29956 18.8601 8.90839 18.2512 8.90839 17.5028V7.80796C8.90839 7.05952 8.29956 6.45068 7.55112 6.45068H1.73423C0.985788 6.45068 0.376953 7.05952 0.376953 7.80796V17.5028C0.376953 18.2512 0.985788 18.8601 1.73423 18.8601Z" fill="black"/>
<path d="M17.6351 6.45068H11.8182C11.0698 6.45068 10.4609 7.05952 10.4609 7.80796V10.5225C10.4609 11.2709 11.0698 11.8798 11.8182 11.8798H17.6351C18.3835 11.8798 18.9924 11.2709 18.9924 10.5225V7.80796C18.9924 7.05952 18.3835 6.45068 17.6351 6.45068Z" fill="black"/>
<path d="M17.6351 13.4312H11.8182C11.0698 13.4312 10.4609 14.04 10.4609 14.7884V17.503C10.4609 18.2514 11.0698 18.8603 11.8182 18.8603H17.6351C18.3835 18.8603 18.9924 18.2514 18.9924 17.503V14.7884C18.9924 14.04 18.3835 13.4312 17.6351 13.4312Z" fill="black"/>
</g>
<defs>
<clipPath id="clip0_1862_2306">
<rect width="18.6141" height="18.6141" fill="white" transform="translate(0.376953 0.246094)"/>
</clipPath>
</defs>
</svg>
