<svg width="20" height="20" viewBox="0 0 20 20" fill="none" xmlns="http://www.w3.org/2000/svg">
<g clip-path="url(#clip0_1862_792)">
<path d="M18.5417 0H1.45833C0.654167 0 0 0.654167 0 1.45833V3.54167C0 4.34583 0.654167 5 1.45833 5H18.5417C19.3458 5 20 4.34583 20 3.54167V1.45833C20 0.654167 19.3458 0 18.5417 0Z" fill="black"/>
<path d="M1.45833 20H7.70833C8.5125 20 9.16667 19.3458 9.16667 18.5416V8.12496C9.16667 7.32079 8.5125 6.66663 7.70833 6.66663H1.45833C0.654167 6.66663 0 7.32079 0 8.12496V18.5416C0 19.3458 0.654167 20 1.45833 20Z" fill="black"/>
<path d="M18.5404 6.66663H12.2904C11.4862 6.66663 10.832 7.32079 10.832 8.12496V11.0416C10.832 11.8458 11.4862 12.5 12.2904 12.5H18.5404C19.3445 12.5 19.9987 11.8458 19.9987 11.0416V8.12496C19.9987 7.32079 19.3445 6.66663 18.5404 6.66663Z" fill="black"/>
<path d="M18.5404 14.1666H12.2904C11.4862 14.1666 10.832 14.8208 10.832 15.625V18.5416C10.832 19.3458 11.4862 20 12.2904 20H18.5404C19.3445 20 19.9987 19.3458 19.9987 18.5416V15.625C19.9987 14.8208 19.3445 14.1666 18.5404 14.1666Z" fill="black"/>
</g>
<defs>
<clipPath id="clip0_1862_792">
<rect width="20" height="20" fill="white"/>
</clipPath>
</defs>
</svg>
