<svg width="20" height="20" viewBox="0 0 20 20" fill="none" xmlns="http://www.w3.org/2000/svg">
<g clip-path="url(#clip0_1862_2211)">
<path d="M18.1264 0.373535H1.76038C0.989981 0.373535 0.363281 1.00024 0.363281 1.77064V3.7665C0.363281 4.5369 0.989981 5.1636 1.76038 5.1636H18.1264C18.8968 5.1636 19.5235 4.5369 19.5235 3.7665V1.77064C19.5235 1.00024 18.8968 0.373535 18.1264 0.373535Z" fill="black"/>
<path d="M1.76038 19.5338H7.74797C8.51837 19.5338 9.14507 18.9071 9.14507 18.1367V8.15736C9.14507 7.38695 8.51837 6.76025 7.74797 6.76025H1.76038C0.989981 6.76025 0.363281 7.38695 0.363281 8.15736V18.1367C0.363281 18.9071 0.989981 19.5338 1.76038 19.5338Z" fill="black"/>
<path d="M18.1269 6.76025H12.1393C11.3689 6.76025 10.7422 7.38695 10.7422 8.15736V10.9516C10.7422 11.722 11.3689 12.3487 12.1393 12.3487H18.1269C18.8973 12.3487 19.524 11.722 19.524 10.9516V8.15736C19.524 7.38695 18.8973 6.76025 18.1269 6.76025Z" fill="black"/>
<path d="M18.1269 13.9453H12.1393C11.3689 13.9453 10.7422 14.572 10.7422 15.3424V18.1366C10.7422 18.907 11.3689 19.5337 12.1393 19.5337H18.1269C18.8973 19.5337 19.524 18.907 19.524 18.1366V15.3424C19.524 14.572 18.8973 13.9453 18.1269 13.9453Z" fill="black"/>
</g>
<defs>
<clipPath id="clip0_1862_2211">
<rect width="19.1603" height="19.1603" fill="white" transform="translate(0.363281 0.373535)"/>
</clipPath>
</defs>
</svg>
