<svg width="22" height="24" viewBox="0 0 22 24" fill="none" xmlns="http://www.w3.org/2000/svg">
<path d="M15.4234 5.65769V1.7514C15.4234 1.12866 14.964 0.619141 14.4022 0.619141H1.80643C1.24473 0.619141 0.785156 1.12866 0.785156 1.7514V2.48737V17.2445V17.7542C0.785156 18.1692 1.00643 18.5655 1.32984 18.7542L9.09153 23.2079C9.43196 23.3966 9.84047 23.1326 9.84047 22.6984V18.3581H14.4022C14.964 18.3581 15.4234 17.8487 15.4234 17.2258V11.0361H13.3809V15.5274C13.3809 15.8482 13.1596 16.0935 12.8703 16.0935H9.85749V10.2813V6.60143V6.48821C9.85749 6.07304 9.63621 5.67675 9.31281 5.48804L4.73409 2.88385H12.8703C13.1596 2.88385 13.3809 3.12917 13.3809 3.44998V5.67675H15.4234V5.65769Z" fill="#DB1E1E"/>
<path d="M18.0439 3.80823L21.363 7.48808C21.7885 7.95985 21.7885 8.65808 21.363 9.12985L18.0439 12.8097C17.6183 13.2815 16.9714 13.3005 16.5458 12.8288C16.1375 12.376 16.1884 11.621 16.58 11.1681L18.0777 9.52633H12.2737C11.9845 9.52633 11.6949 9.39424 11.5077 9.14891C11.0311 8.58278 11.1503 7.58262 11.763 7.2052C11.9162 7.11085 12.1034 7.05423 12.2737 7.05423H18.0779C18.0779 7.05423 16.5972 5.41246 16.5802 5.41246C16.1885 4.97842 16.1375 4.20471 16.546 3.77068C16.9545 3.31778 17.6183 3.33646 18.0439 3.80823Z" fill="#DB1E1E"/>
</svg>
