<svg width="21" height="20" viewBox="0 0 21 20" fill="none" xmlns="http://www.w3.org/2000/svg">
<path d="M14.5815 4.8964V1.66815C14.5815 1.1535 14.133 0.732422 13.5844 0.732422H1.28621C0.737779 0.732422 0.289062 1.1535 0.289062 1.66815V2.27637V14.472V14.8932C0.289062 15.2362 0.505111 15.5637 0.820875 15.7196L8.3992 19.4003C8.73158 19.5562 9.13044 19.3381 9.13044 18.9792V15.3923H13.5844C14.133 15.3923 14.5815 14.9713 14.5815 14.4565V9.34125H12.5872V13.053C12.5872 13.3181 12.3712 13.5208 12.0886 13.5208H9.14706V8.71743V5.67632V5.58275C9.14706 5.23965 8.93101 4.91215 8.61525 4.7562L4.1447 2.60403H12.0886C12.3712 2.60403 12.5872 2.80677 12.5872 3.07189V4.91215H14.5815V4.8964Z" fill="#DB1E1E"/>
<path d="M17.1403 3.36778L20.3811 6.40888C20.7965 6.79877 20.7965 7.3758 20.3811 7.76569L17.1403 10.8068C16.7249 11.1967 16.0932 11.2124 15.6777 10.8225C15.279 10.4484 15.3287 9.82444 15.7111 9.45015L17.1734 8.09335H11.5065C11.2241 8.09335 10.9414 7.98418 10.7586 7.78144C10.2933 7.31357 10.4096 6.48702 11.0079 6.17511C11.1575 6.09713 11.3403 6.05035 11.5065 6.05035H17.1736C17.1736 6.05035 15.7279 4.69354 15.7113 4.69354C15.3289 4.33485 15.279 3.69544 15.6779 3.33674C16.0767 2.96245 16.7249 2.97789 17.1403 3.36778Z" fill="#DB1E1E"/>
</svg>
