<svg width="19" height="19" viewBox="0 0 19 19" fill="none" xmlns="http://www.w3.org/2000/svg">
<path d="M18.5766 7.83759L16.3989 7.30317C16.2789 6.92143 16.1262 6.55061 15.9408 6.19069L17.0533 4.33655C17.1841 4.11842 17.1514 3.84575 16.9769 3.67125L15.4282 2.1225C15.2537 1.94799 14.981 1.91527 14.7629 2.04615L12.9087 3.15863C12.5488 2.97322 12.178 2.82052 11.7962 2.70055L11.2727 0.522852C11.2073 0.282905 10.9891 0.108398 10.7383 0.108398H8.55696C8.3061 0.108398 8.08797 0.282905 8.02253 0.522852L7.49901 2.70055C7.11728 2.82052 6.74645 2.97322 6.38653 3.15863L4.5324 2.04615C4.31426 1.91527 4.0416 1.94799 3.86709 2.1225L2.31834 3.67125C2.14383 3.84575 2.11111 4.11842 2.24199 4.33655L3.35447 6.19069C3.16906 6.55061 3.01637 6.92143 2.89639 7.30317L0.791407 7.83759C0.55146 7.89213 0.376953 8.11026 0.376953 8.36111V10.5424C0.376953 10.7933 0.55146 11.0114 0.791407 11.066L2.89639 11.6004C3.01637 11.9821 3.16906 12.353 3.35447 12.7129L2.24199 14.567C2.11111 14.7851 2.14383 15.0578 2.31834 15.2323L3.86709 16.7811C4.0416 16.9556 4.31426 16.9883 4.5324 16.8574L6.38653 15.7449C6.74645 15.9303 7.11728 16.083 7.49901 16.203L8.02253 18.308C8.08797 18.5479 8.3061 18.7225 8.55696 18.7225H10.7383C10.9891 18.7225 11.2073 18.5479 11.2727 18.308L11.7962 16.203C12.178 16.083 12.5488 15.9303 12.9087 15.7449L14.7629 16.8574C14.981 16.9883 15.2537 16.9556 15.4282 16.7811L16.9769 15.2323C17.1514 15.0578 17.1841 14.7851 17.0533 14.567L15.9408 12.7129C16.1262 12.353 16.2789 11.9821 16.3989 11.6004L18.5766 11.066C18.8165 11.0114 18.991 10.7933 18.991 10.5424V8.36111C18.991 8.11026 18.8165 7.89213 18.5766 7.83759ZM9.64763 12.1785C8.1425 12.1785 6.92096 10.9569 6.92096 9.45178C6.92096 7.94666 8.1425 6.72511 9.64763 6.72511C11.1527 6.72511 12.3743 7.94666 12.3743 9.45178C12.3743 10.9569 11.1527 12.1785 9.64763 12.1785Z" fill="white"/>
</svg>
