<svg width="26" height="18" viewBox="0 0 26 18" fill="none" xmlns="http://www.w3.org/2000/svg">
<g opacity="0.7">
<path d="M9.21791 0C4.12699 0 0 3.07217 0 6.8634C0 8.84073 1.12486 10.6221 2.9218 11.8751C2.85398 12.1775 2.5916 13.0853 1.77748 13.9047C1.45673 14.2274 1.24215 14.2571 1.3803 14.5643C1.51149 14.8567 3.97162 14.5718 5.36831 13.1C6.53987 13.5014 7.84317 13.7276 9.21791 13.7276C14.3083 13.7276 18.4364 10.6543 18.4364 6.8634C18.4364 3.07217 14.3085 0 9.21791 0Z" fill="white"/>
<path d="M23.2445 17.2378C22.4301 16.4173 22.1686 15.5109 22.0991 15.2079C23.8966 13.9549 25.0214 12.1738 25.0214 10.1962C25.0214 7.22357 22.4829 4.6934 18.9338 3.73865C19.4619 4.71314 19.754 5.78241 19.754 6.90421C19.754 11.3853 15.0892 15.0356 9.33203 15.0826C10.9964 16.3045 13.2809 17.0602 15.8035 17.0602C17.178 17.0602 18.4816 16.8342 19.6531 16.4329C21.0498 17.9054 23.5091 18.1895 23.6417 17.8971C23.7793 17.5905 23.565 17.5608 23.2445 17.2378Z" fill="white"/>
</g>
</svg>
