<svg width="22" height="25" viewBox="0 0 22 25" fill="none" xmlns="http://www.w3.org/2000/svg">
<path d="M15.3937 5.74568V1.54328C15.3937 0.873335 14.9317 0.325195 14.3666 0.325195H1.69898C1.13407 0.325195 0.671875 0.873335 0.671875 1.54328V2.33504V18.2108V18.7591C0.671875 19.2056 0.894414 19.6319 1.21966 19.8349L9.02566 24.6262C9.36803 24.8293 9.77887 24.5452 9.77887 24.0781V19.4088H14.3666C14.9317 19.4088 15.3937 18.8608 15.3937 18.1907V11.5318H13.3395V16.3635C13.3395 16.7087 13.117 16.9726 12.826 16.9726H9.79599V10.7197V6.76096V6.63915C9.79599 6.19252 9.57345 5.76619 9.2482 5.56317L4.64335 2.76157H12.826C13.117 2.76157 13.3395 3.02549 13.3395 3.37062V5.76619H15.3937V5.74568Z" fill="#DB1E1E"/>
<path d="M18.0282 3.75589L21.3662 7.71467C21.7942 8.22221 21.7942 8.97336 21.3662 9.4809L18.0282 13.4397C17.6002 13.9472 16.9495 13.9677 16.5216 13.4602C16.1109 12.9732 16.1621 12.1609 16.556 11.6737L18.0622 9.90743H12.225C11.9342 9.90743 11.643 9.76532 11.4547 9.5014C10.9754 8.89236 11.0952 7.81638 11.7115 7.41035C11.8655 7.30885 12.0538 7.24794 12.225 7.24794H18.0624C18.0624 7.24794 16.5733 5.48172 16.5561 5.48172C16.1622 5.01478 16.1109 4.18242 16.5217 3.71549C16.9326 3.22825 17.6002 3.24835 18.0282 3.75589Z" fill="#DB1E1E"/>
</svg>
