<svg width="20" height="21" viewBox="0 0 20 21" fill="none" xmlns="http://www.w3.org/2000/svg">
<path d="M18.804 8.8891L16.5624 8.33899C16.4389 7.94606 16.2817 7.56435 16.0908 7.19387L17.236 5.28533C17.3707 5.06079 17.337 4.78013 17.1574 4.6005L15.5632 3.00631C15.3836 2.82668 15.1029 2.793 14.8783 2.92772L12.9698 4.07284C12.5993 3.88199 12.2176 3.72482 11.8247 3.60132L11.2858 1.35972C11.2184 1.11273 10.9939 0.933105 10.7357 0.933105H8.49035C8.23213 0.933105 8.0076 1.11273 7.94024 1.35972L7.40136 3.60132C7.00842 3.72482 6.62671 3.88199 6.25623 4.07284L4.34769 2.92772C4.12316 2.793 3.84249 2.82668 3.66286 3.00631L2.06867 4.6005C1.88904 4.78013 1.85536 5.06079 1.99008 5.28533L3.13521 7.19387C2.94435 7.56435 2.78718 7.94606 2.66368 8.33899L0.496928 8.8891C0.24994 8.94524 0.0703125 9.16977 0.0703125 9.42799V11.6733C0.0703125 11.9315 0.24994 12.1561 0.496928 12.2122L2.66368 12.7623C2.78718 13.1553 2.94435 13.537 3.13521 13.9074L1.99008 15.816C1.85536 16.0405 1.88904 16.3212 2.06867 16.5008L3.66286 18.095C3.84249 18.2746 4.12316 18.3083 4.34769 18.1736L6.25623 17.0285C6.62671 17.2193 7.00842 17.3765 7.40136 17.5L7.94024 19.6667C8.0076 19.9137 8.23213 20.0934 8.49035 20.0934H10.7357C10.9939 20.0934 11.2184 19.9137 11.2858 19.6667L11.8247 17.5C12.2176 17.3765 12.5993 17.2193 12.9698 17.0285L14.8783 18.1736C15.1029 18.3083 15.3836 18.2746 15.5632 18.095L17.1574 16.5008C17.337 16.3212 17.3707 16.0405 17.236 15.816L16.0908 13.9074C16.2817 13.537 16.4389 13.1553 16.5624 12.7623L18.804 12.2122C19.0509 12.1561 19.2306 11.9315 19.2306 11.6733V9.42799C19.2306 9.16977 19.0509 8.94524 18.804 8.8891ZM9.61302 13.3573C8.06373 13.3573 6.80634 12.0999 6.80634 10.5507C6.80634 9.00137 8.06373 7.74398 9.61302 7.74398C11.1623 7.74398 12.4197 9.00137 12.4197 10.5507C12.4197 12.0999 11.1623 13.3573 9.61302 13.3573Z" fill="black"/>
</svg>
