<svg width="20" height="19" viewBox="0 0 20 19" fill="none" xmlns="http://www.w3.org/2000/svg">
<path d="M19.0902 7.81269L16.9125 7.27826C16.7926 6.89653 16.6399 6.5257 16.4544 6.16578L17.5669 4.31165C17.6978 4.09352 17.6651 3.82085 17.4906 3.64634L15.9418 2.09759C15.7673 1.92309 15.4947 1.89037 15.2765 2.02125L13.4224 3.13373C13.0625 2.94832 12.6916 2.79562 12.3099 2.67565L11.7864 0.49795C11.721 0.258003 11.5028 0.0834961 11.252 0.0834961H9.07063C8.81978 0.0834961 8.60164 0.258003 8.5362 0.49795L8.01268 2.67565C7.63095 2.79562 7.26012 2.94832 6.9002 3.13373L5.04607 2.02125C4.82793 1.89037 4.55527 1.92309 4.38076 2.09759L2.83201 3.64634C2.65751 3.82085 2.62479 4.09352 2.75567 4.31165L3.86815 6.16578C3.68273 6.5257 3.53004 6.89653 3.41007 7.27826L1.30508 7.81269C1.06513 7.86722 0.890625 8.08536 0.890625 8.33621V10.5175C0.890625 10.7684 1.06513 10.9865 1.30508 11.0411L3.41007 11.5755C3.53004 11.9572 3.68273 12.3281 3.86815 12.688L2.75567 14.5421C2.62479 14.7602 2.65751 15.0329 2.83201 15.2074L4.38076 16.7562C4.55527 16.9307 4.82793 16.9634 5.04607 16.8325L6.9002 15.72C7.26012 15.9054 7.63095 16.0581 8.01268 16.1781L8.5362 18.2831C8.60164 18.523 8.81978 18.6975 9.07063 18.6975H11.252C11.5028 18.6975 11.721 18.523 11.7864 18.2831L12.3099 16.1781C12.6916 16.0581 13.0625 15.9054 13.4224 15.72L15.2765 16.8325C15.4947 16.9634 15.7673 16.9307 15.9418 16.7562L17.4906 15.2074C17.6651 15.0329 17.6978 14.7602 17.5669 14.5421L16.4544 12.688C16.6399 12.3281 16.7926 11.9572 16.9125 11.5755L19.0902 11.0411C19.3302 10.9865 19.5047 10.7684 19.5047 10.5175V8.33621C19.5047 8.08536 19.3302 7.86722 19.0902 7.81269ZM10.1613 12.1535C8.65618 12.1535 7.43463 10.932 7.43463 9.42688C7.43463 7.92176 8.65618 6.70021 10.1613 6.70021C11.6664 6.70021 12.888 7.92176 12.888 9.42688C12.888 10.932 11.6664 12.1535 10.1613 12.1535Z" fill="black"/>
</svg>
