<svg width="24" height="17" viewBox="0 0 24 17" fill="none" xmlns="http://www.w3.org/2000/svg">
<g opacity="0.7">
<path d="M8.95608 0.0390625C4.21795 0.0390625 0.376953 2.89834 0.376953 6.42685C0.376953 8.26715 1.42386 9.92509 3.09628 11.0913C3.03316 11.3727 2.78896 12.2176 2.03126 12.9802C1.73274 13.2805 1.53303 13.3082 1.6616 13.5941C1.7837 13.8662 4.07335 13.601 5.37325 12.2313C6.46362 12.6048 7.67661 12.8154 8.95608 12.8154C13.6937 12.8154 17.5357 9.95509 17.5357 6.42685C17.5357 2.89834 13.694 0.0390625 8.95608 0.0390625Z" fill="white"/>
<path d="M22.0089 16.0823C21.251 15.3186 21.0075 14.475 20.9429 14.1931C22.6158 13.0269 23.6627 11.3692 23.6627 9.52865C23.6627 6.76199 21.3001 4.40715 17.9969 3.51855C18.4884 4.42551 18.7603 5.42069 18.7603 6.46475C18.7603 10.6353 14.4188 14.0327 9.06055 14.0764C10.6096 15.2136 12.7357 15.917 15.0836 15.917C16.3628 15.917 17.576 15.7066 18.6664 15.3331C19.9663 16.7036 22.2552 16.968 22.3786 16.6959C22.5066 16.4105 22.3072 16.3829 22.0089 16.0823Z" fill="white"/>
</g>
</svg>
