<svg width="19" height="25" viewBox="0 0 19 25" fill="none" xmlns="http://www.w3.org/2000/svg">
<path opacity="0.7" d="M8.33316 24.3473C9.84241 24.3473 11.1049 23.0375 11.3948 21.3039H5.27148C5.56155 23.0375 6.82407 24.3473 8.33316 24.3473Z" fill="black"/>
<path opacity="0.7" d="M14.1772 12.1727C14.1738 12.1727 14.1704 12.1737 14.1671 12.1737C10.9513 12.1737 8.3338 8.98814 8.3338 5.07243C8.3338 3.99598 8.5372 2.97842 8.89136 2.06339C8.70795 2.04221 8.52209 2.02902 8.3338 2.02902C5.11221 2.02902 2.50052 5.20822 2.50052 9.13024V11.9585C2.50052 13.9662 1.77802 15.8613 0.510468 17.1658C0.0879517 17.6051 -0.0995787 18.305 0.0520936 18.9879C0.22879 19.7822 0.873779 20.2895 1.55051 20.2895H15.113C15.823 20.2895 16.4922 19.7294 16.6363 18.8824C16.748 18.227 16.5563 17.5726 16.1388 17.1456C14.9271 15.909 14.2263 14.0919 14.1772 12.1727Z" fill="black"/>
<path d="M17.8333 5.07247C17.8333 7.69416 16.1043 9.64469 14.1666 9.64469C12.229 9.64469 10.5 7.69418 10.5 5.07247C10.5 2.45074 12.229 0.500061 14.1666 0.500061C16.1043 0.500061 17.8333 2.45075 17.8333 5.07247Z" fill="#F24F4F" stroke="black"/>
</svg>
