<svg width="299" height="142" viewBox="0 0 299 142" fill="none" xmlns="http://www.w3.org/2000/svg">
<g filter="url(#filter0_d_857_4552)">
<path d="M18.5077 116.822H17.4883V116.313C17.4883 116.043 17.3809 115.783 17.1897 115.592C16.9985 115.401 16.7392 115.294 16.4688 115.294C16.1984 115.294 15.9391 115.401 15.7479 115.592C15.5568 115.783 15.4494 116.043 15.4494 116.313V116.822H13.4105V116.313C13.4105 116.043 13.3031 115.783 13.1119 115.592C12.9207 115.401 12.6614 115.294 12.391 115.294C12.1206 115.294 11.8613 115.401 11.6702 115.592C11.479 115.783 11.3716 116.043 11.3716 116.313V116.822H9.33266V116.313C9.33266 116.043 9.22526 115.783 9.03407 115.592C8.84289 115.401 8.58359 115.294 8.31321 115.294C8.04284 115.294 7.78354 115.401 7.59235 115.592C7.40117 115.783 7.29376 116.043 7.29376 116.313V116.822H6.27431C5.93647 116.823 5.61258 116.957 5.37368 117.196C5.13479 117.435 5.0004 117.758 5 118.096V128.795C5.0004 129.133 5.13479 129.457 5.37368 129.696C5.61258 129.934 5.93647 130.069 6.27431 130.069H13.9202C13.9878 130.069 14.0526 130.042 14.1004 129.995C14.1482 129.947 14.175 129.882 14.175 129.814C14.175 129.747 14.1482 129.682 14.1004 129.634C14.0526 129.587 13.9878 129.56 13.9202 129.56H6.27431C6.07153 129.56 5.87706 129.479 5.73367 129.336C5.59028 129.193 5.50972 128.998 5.50972 128.795V120.389H19.2723V123.955C19.2723 124.023 19.2991 124.088 19.3469 124.135C19.3947 124.183 19.4596 124.21 19.5272 124.21C19.5948 124.21 19.6596 124.183 19.7074 124.135C19.7552 124.088 19.782 124.023 19.782 123.955V118.096C19.7816 117.758 19.6472 117.435 19.4083 117.196C19.1694 116.957 18.8456 116.823 18.5077 116.822ZM15.9591 116.313C15.9591 116.178 16.0128 116.048 16.1084 115.953C16.204 115.857 16.3336 115.803 16.4688 115.803C16.604 115.803 16.7336 115.857 16.8292 115.953C16.9248 116.048 16.9785 116.178 16.9785 116.313V117.841C16.9785 117.977 16.9248 118.106 16.8292 118.202C16.7336 118.297 16.604 118.351 16.4688 118.351C16.3336 118.351 16.204 118.297 16.1084 118.202C16.0128 118.106 15.9591 117.977 15.9591 117.841V116.313ZM11.8813 116.313C11.8813 116.178 11.935 116.048 12.0306 115.953C12.1262 115.857 12.2558 115.803 12.391 115.803C12.5262 115.803 12.6558 115.857 12.7514 115.953C12.847 116.048 12.9007 116.178 12.9007 116.313V117.841C12.9007 117.977 12.847 118.106 12.7514 118.202C12.6558 118.297 12.5262 118.351 12.391 118.351C12.2558 118.351 12.1262 118.297 12.0306 118.202C11.935 118.106 11.8813 117.977 11.8813 117.841V116.313ZM7.80349 116.313C7.80349 116.178 7.85719 116.048 7.95278 115.953C8.04837 115.857 8.17802 115.803 8.31321 115.803C8.4484 115.803 8.57805 115.857 8.67364 115.953C8.76923 116.048 8.82294 116.178 8.82294 116.313V117.841C8.82294 117.977 8.76923 118.106 8.67364 118.202C8.57805 118.297 8.4484 118.351 8.31321 118.351C8.17802 118.351 8.04837 118.297 7.95278 118.202C7.85719 118.106 7.80349 117.977 7.80349 117.841V116.313ZM5.50972 119.879V118.096C5.50972 117.893 5.59028 117.699 5.73367 117.556C5.87706 117.412 6.07153 117.332 6.27431 117.332H7.29376V117.841C7.29376 118.112 7.40117 118.371 7.59235 118.562C7.78354 118.753 8.04284 118.86 8.31321 118.86C8.58359 118.86 8.84289 118.753 9.03407 118.562C9.22526 118.371 9.33266 118.112 9.33266 117.841V117.332H11.3716V117.841C11.3716 118.112 11.479 118.371 11.6702 118.562C11.8613 118.753 12.1206 118.86 12.391 118.86C12.6614 118.86 12.9207 118.753 13.1119 118.562C13.3031 118.371 13.4105 118.112 13.4105 117.841V117.332H15.4494V117.841C15.4494 118.112 15.5568 118.371 15.7479 118.562C15.9391 118.753 16.1984 118.86 16.4688 118.86C16.7392 118.86 16.9985 118.753 17.1897 118.562C17.3809 118.371 17.4883 118.112 17.4883 117.841V117.332H18.5077C18.7105 117.332 18.905 117.412 19.0484 117.556C19.1917 117.699 19.2723 117.893 19.2723 118.096V119.879H5.50972Z" fill="#3F4047"/>
<path d="M20.0365 125.229C20.1041 125.229 20.1689 125.202 20.2167 125.155C20.2645 125.107 20.2914 125.042 20.2914 124.974C20.2914 124.907 20.2645 124.842 20.2167 124.794C20.1689 124.746 20.1041 124.72 20.0365 124.72H19.0171C18.9495 124.72 18.8847 124.746 18.8369 124.794C18.7891 124.842 18.7622 124.907 18.7622 124.974V125.993C18.7622 126.061 18.7891 126.126 18.8369 126.173C18.8847 126.221 18.9495 126.248 19.0171 126.248C19.0847 126.248 19.1495 126.221 19.1973 126.173C19.2451 126.126 19.2719 126.061 19.2719 125.993V125.66C19.6548 126.209 19.8285 126.876 19.7615 127.541C19.6944 128.206 19.3911 128.826 18.9065 129.286C18.4219 129.747 17.7881 130.019 17.12 130.053C16.452 130.087 15.7939 129.88 15.2652 129.471C14.7364 129.061 14.372 128.476 14.238 127.821C14.104 127.166 14.2093 126.484 14.5348 125.9C14.8603 125.316 15.3844 124.868 16.0122 124.637C16.6399 124.406 17.3296 124.408 17.9563 124.641C18.0197 124.665 18.0899 124.663 18.1514 124.635C18.213 124.606 18.2608 124.555 18.2845 124.492C18.3081 124.428 18.3057 124.358 18.2776 124.297C18.2495 124.235 18.1981 124.187 18.1347 124.164C17.3845 123.883 16.5578 123.883 15.8075 124.164C15.0572 124.445 14.4339 124.987 14.0528 125.692C13.6717 126.396 13.5584 127.215 13.7339 127.996C13.9095 128.777 14.362 129.469 15.0078 129.943C15.6537 130.417 16.4493 130.641 17.2477 130.574C18.0461 130.507 18.7933 130.154 19.3515 129.58C19.9096 129.005 20.2408 128.248 20.2841 127.448C20.3273 126.649 20.0796 125.86 19.5867 125.229H20.0365Z" fill="#3F4047"/>
<path d="M17.2335 126.549V125.229C17.2335 125.161 17.2066 125.097 17.1588 125.049C17.111 125.001 17.0462 124.974 16.9786 124.974C16.911 124.974 16.8462 125.001 16.7984 125.049C16.7506 125.097 16.7238 125.161 16.7238 125.229V126.549C16.6172 126.588 16.5203 126.649 16.4403 126.729C16.3603 126.809 16.299 126.906 16.2609 127.012H15.4494C15.3818 127.012 15.317 127.039 15.2692 127.087C15.2214 127.134 15.1946 127.199 15.1946 127.267C15.1946 127.334 15.2214 127.399 15.2692 127.447C15.317 127.495 15.3818 127.522 15.4494 127.522H16.2609C16.3037 127.643 16.3766 127.752 16.4729 127.838C16.5691 127.924 16.6856 127.984 16.8113 128.012C16.9371 128.041 17.0681 128.037 17.192 128.001C17.3159 127.966 17.4288 127.899 17.52 127.808C17.6112 127.717 17.6778 127.604 17.7135 127.48C17.7493 127.356 17.753 127.225 17.7244 127.1C17.6958 126.974 17.6357 126.858 17.5499 126.761C17.464 126.665 17.3552 126.592 17.2335 126.549ZM16.9786 127.522C16.9282 127.522 16.8789 127.507 16.837 127.479C16.7951 127.451 16.7624 127.411 16.7432 127.364C16.7239 127.318 16.7188 127.267 16.7287 127.217C16.7385 127.168 16.7628 127.122 16.7984 127.087C16.834 127.051 16.8795 127.027 16.9289 127.017C16.9783 127.007 17.0296 127.012 17.0761 127.031C17.1227 127.051 17.1625 127.083 17.1905 127.125C17.2185 127.167 17.2335 127.216 17.2335 127.267C17.2335 127.334 17.2066 127.399 17.1588 127.447C17.111 127.495 17.0462 127.522 16.9786 127.522Z" fill="#3F4047"/>
<path d="M11.3717 123.191H10.3523C10.2171 123.191 10.0874 123.137 9.99182 123.042C9.89623 122.946 9.84253 122.817 9.84253 122.681V121.917C9.84253 121.782 9.89623 121.652 9.99182 121.557C10.0874 121.461 10.2171 121.408 10.3523 121.408H11.3717C11.5069 121.408 11.6365 121.461 11.7321 121.557C11.8277 121.652 11.8814 121.782 11.8814 121.917V122.681C11.8814 122.817 11.8277 122.946 11.7321 123.042C11.6365 123.137 11.5069 123.191 11.3717 123.191ZM10.3523 121.917V122.681H11.3717V121.917H10.3523Z" fill="#3F4047"/>
<path d="M14.4301 123.191H13.4106C13.2754 123.191 13.1458 123.137 13.0502 123.042C12.9546 122.946 12.9009 122.817 12.9009 122.681V121.917C12.9009 121.782 12.9546 121.652 13.0502 121.557C13.1458 121.461 13.2754 121.408 13.4106 121.408H14.4301C14.5652 121.408 14.6949 121.461 14.7905 121.557C14.8861 121.652 14.9398 121.782 14.9398 121.917V122.681C14.9398 122.817 14.8861 122.946 14.7905 123.042C14.6949 123.137 14.5652 123.191 14.4301 123.191ZM13.4106 121.917V122.681H14.4301V121.917H13.4106Z" fill="#3F4047"/>
<path d="M8.31335 123.191H7.2939C7.15872 123.191 7.02907 123.137 6.93347 123.042C6.83788 122.946 6.78418 122.817 6.78418 122.681V121.917C6.78418 121.782 6.83788 121.652 6.93347 121.557C7.02907 121.461 7.15872 121.408 7.2939 121.408H8.31335C8.44854 121.408 8.57819 121.461 8.67378 121.557C8.76938 121.652 8.82308 121.782 8.82308 121.917V122.681C8.82308 122.817 8.76938 122.946 8.67378 123.042C8.57819 123.137 8.44854 123.191 8.31335 123.191ZM7.2939 121.917V122.681H8.31335V121.917H7.2939Z" fill="#3F4047"/>
<path d="M17.4882 123.191H16.4687C16.3335 123.191 16.2039 123.137 16.1083 123.042C16.0127 122.946 15.959 122.817 15.959 122.681V121.917C15.959 121.782 16.0127 121.652 16.1083 121.557C16.2039 121.461 16.3335 121.408 16.4687 121.408H17.4882C17.6233 121.408 17.753 121.461 17.8486 121.557C17.9442 121.652 17.9979 121.782 17.9979 121.917V122.681C17.9979 122.817 17.9442 122.946 17.8486 123.042C17.753 123.137 17.6233 123.191 17.4882 123.191ZM16.4687 121.917V122.681H17.4882V121.917H16.4687Z" fill="#3F4047"/>
<path d="M11.3717 125.994H10.3523C10.2171 125.994 10.0874 125.94 9.99182 125.844C9.89623 125.749 9.84253 125.619 9.84253 125.484V124.72C9.84253 124.585 9.89623 124.455 9.99182 124.36C10.0874 124.264 10.2171 124.21 10.3523 124.21H11.3717C11.5069 124.21 11.6365 124.264 11.7321 124.36C11.8277 124.455 11.8814 124.585 11.8814 124.72V125.484C11.8814 125.619 11.8277 125.749 11.7321 125.844C11.6365 125.94 11.5069 125.994 11.3717 125.994ZM10.3523 124.72V125.484H11.3717V124.72H10.3523Z" fill="#3F4047"/>
<path d="M13.4106 125.994C13.2754 125.994 13.1458 125.94 13.0502 125.844C12.9546 125.749 12.9009 125.619 12.9009 125.484V124.72C12.9009 124.585 12.9546 124.455 13.0502 124.36C13.1458 124.264 13.2754 124.21 13.4106 124.21H14.1752C14.2428 124.21 14.3076 124.237 14.3554 124.285C14.4032 124.333 14.4301 124.398 14.4301 124.465C14.4301 124.533 14.4032 124.598 14.3554 124.645C14.3076 124.693 14.2428 124.72 14.1752 124.72H13.4106V125.484C13.4782 125.484 13.543 125.511 13.5908 125.559C13.6386 125.607 13.6655 125.671 13.6655 125.739C13.6655 125.806 13.6386 125.871 13.5908 125.919C13.543 125.967 13.4782 125.994 13.4106 125.994Z" fill="#3F4047"/>
<path d="M8.31335 125.994H7.2939C7.15872 125.994 7.02907 125.94 6.93347 125.844C6.83788 125.749 6.78418 125.619 6.78418 125.484V124.72C6.78418 124.585 6.83788 124.455 6.93347 124.36C7.02907 124.264 7.15872 124.21 7.2939 124.21H8.31335C8.44854 124.21 8.57819 124.264 8.67378 124.36C8.76938 124.455 8.82308 124.585 8.82308 124.72V125.484C8.82308 125.619 8.76938 125.749 8.67378 125.844C8.57819 125.94 8.44854 125.994 8.31335 125.994ZM7.2939 124.72V125.484H8.31335V124.72H7.2939Z" fill="#3F4047"/>
<path d="M11.3717 128.795H10.3523C10.2171 128.795 10.0874 128.742 9.99182 128.646C9.89623 128.551 9.84253 128.421 9.84253 128.286V127.522C9.84253 127.387 9.89623 127.257 9.99182 127.161C10.0874 127.066 10.2171 127.012 10.3523 127.012H11.3717C11.5069 127.012 11.6365 127.066 11.7321 127.161C11.8277 127.257 11.8814 127.387 11.8814 127.522V128.286C11.8814 128.421 11.8277 128.551 11.7321 128.646C11.6365 128.742 11.5069 128.795 11.3717 128.795ZM10.3523 127.522V128.286H11.3717V127.522H10.3523Z" fill="#3F4047"/>
<path d="M8.31335 128.795H7.2939C7.15872 128.795 7.02907 128.742 6.93347 128.646C6.83788 128.551 6.78418 128.421 6.78418 128.286V127.522C6.78418 127.387 6.83788 127.257 6.93347 127.161C7.02907 127.066 7.15872 127.012 7.2939 127.012H8.31335C8.44854 127.012 8.57819 127.066 8.67378 127.161C8.76938 127.257 8.82308 127.387 8.82308 127.522V128.286C8.82308 128.421 8.76938 128.551 8.67378 128.646C8.57819 128.742 8.44854 128.795 8.31335 128.795ZM7.2939 127.522V128.286H8.31335V127.522H7.2939Z" fill="#3F4047"/>
<path d="M286.508 57.5285H285.488V57.019C285.488 56.7487 285.381 56.4895 285.19 56.2985C284.998 56.1074 284.739 56 284.469 56C284.198 56 283.939 56.1074 283.748 56.2985C283.557 56.4895 283.449 56.7487 283.449 57.019V57.5285H281.41V57.019C281.41 56.7487 281.303 56.4895 281.112 56.2985C280.921 56.1074 280.661 56 280.391 56C280.121 56 279.861 56.1074 279.67 56.2985C279.479 56.4895 279.372 56.7487 279.372 57.019V57.5285H277.333V57.019C277.333 56.7487 277.225 56.4895 277.034 56.2985C276.843 56.1074 276.584 56 276.313 56C276.043 56 275.784 56.1074 275.592 56.2985C275.401 56.4895 275.294 56.7487 275.294 57.019V57.5285H274.274C273.936 57.5289 273.613 57.6632 273.374 57.902C273.135 58.1408 273 58.4645 273 58.8022V69.5015C273 69.8392 273.135 70.163 273.374 70.4017C273.613 70.6405 273.936 70.7749 274.274 70.7753H281.92C281.988 70.7753 282.053 70.7484 282.1 70.7006C282.148 70.6529 282.175 70.5881 282.175 70.5205C282.175 70.453 282.148 70.3882 282.1 70.3404C282.053 70.2926 281.988 70.2658 281.92 70.2658H274.274C274.072 70.2658 273.877 70.1853 273.734 70.0419C273.59 69.8986 273.51 69.7042 273.51 69.5015V61.0949H287.272V64.6614C287.272 64.7289 287.299 64.7937 287.347 64.8415C287.395 64.8893 287.46 64.9161 287.527 64.9161C287.595 64.9161 287.66 64.8893 287.707 64.8415C287.755 64.7937 287.782 64.7289 287.782 64.6614V58.8022C287.782 58.4645 287.647 58.1408 287.408 57.902C287.169 57.6632 286.846 57.5289 286.508 57.5285ZM283.959 57.019C283.959 56.8839 284.013 56.7543 284.108 56.6587C284.204 56.5632 284.334 56.5095 284.469 56.5095C284.604 56.5095 284.734 56.5632 284.829 56.6587C284.925 56.7543 284.979 56.8839 284.979 57.019V58.5475C284.979 58.6826 284.925 58.8122 284.829 58.9077C284.734 59.0033 284.604 59.057 284.469 59.057C284.334 59.057 284.204 59.0033 284.108 58.9077C284.013 58.8122 283.959 58.6826 283.959 58.5475V57.019ZM279.881 57.019C279.881 56.8839 279.935 56.7543 280.031 56.6587C280.126 56.5632 280.256 56.5095 280.391 56.5095C280.526 56.5095 280.656 56.5632 280.751 56.6587C280.847 56.7543 280.901 56.8839 280.901 57.019V58.5475C280.901 58.6826 280.847 58.8122 280.751 58.9077C280.656 59.0033 280.526 59.057 280.391 59.057C280.256 59.057 280.126 59.0033 280.031 58.9077C279.935 58.8122 279.881 58.6826 279.881 58.5475V57.019ZM275.803 57.019C275.803 56.8839 275.857 56.7543 275.953 56.6587C276.048 56.5632 276.178 56.5095 276.313 56.5095C276.448 56.5095 276.578 56.5632 276.674 56.6587C276.769 56.7543 276.823 56.8839 276.823 57.019V58.5475C276.823 58.6826 276.769 58.8122 276.674 58.9077C276.578 59.0033 276.448 59.057 276.313 59.057C276.178 59.057 276.048 59.0033 275.953 58.9077C275.857 58.8122 275.803 58.6826 275.803 58.5475V57.019ZM273.51 60.5854V58.8022C273.51 58.5995 273.59 58.4051 273.734 58.2618C273.877 58.1185 274.072 58.038 274.274 58.038H275.294V58.5475C275.294 58.8177 275.401 59.0769 275.592 59.268C275.784 59.4591 276.043 59.5664 276.313 59.5664C276.584 59.5664 276.843 59.4591 277.034 59.268C277.225 59.0769 277.333 58.8177 277.333 58.5475V58.038H279.372V58.5475C279.372 58.8177 279.479 59.0769 279.67 59.268C279.861 59.4591 280.121 59.5664 280.391 59.5664C280.661 59.5664 280.921 59.4591 281.112 59.268C281.303 59.0769 281.41 58.8177 281.41 58.5475V58.038H283.449V58.5475C283.449 58.8177 283.557 59.0769 283.748 59.268C283.939 59.4591 284.198 59.5664 284.469 59.5664C284.739 59.5664 284.998 59.4591 285.19 59.268C285.381 59.0769 285.488 58.8177 285.488 58.5475V58.038H286.508C286.71 58.038 286.905 58.1185 287.048 58.2618C287.192 58.4051 287.272 58.5995 287.272 58.8022V60.5854H273.51Z" fill="#3F4047"/>
<path d="M288.037 65.9352C288.104 65.9352 288.169 65.9083 288.217 65.8606C288.265 65.8128 288.291 65.748 288.291 65.6804C288.291 65.6129 288.265 65.5481 288.217 65.5003C288.169 65.4525 288.104 65.4257 288.037 65.4257H287.017C286.949 65.4257 286.885 65.4525 286.837 65.5003C286.789 65.5481 286.762 65.6129 286.762 65.6804V66.6994C286.762 66.767 286.789 66.8318 286.837 66.8795C286.885 66.9273 286.949 66.9542 287.017 66.9542C287.085 66.9542 287.149 66.9273 287.197 66.8795C287.245 66.8318 287.272 66.767 287.272 66.6994V66.3665C287.655 66.9147 287.829 67.5819 287.761 68.2471C287.694 68.9124 287.391 69.5316 286.906 69.9924C286.422 70.4533 285.788 70.7253 285.12 70.7591C284.452 70.793 283.794 70.5864 283.265 70.1769C282.736 69.7673 282.372 69.182 282.238 68.5269C282.104 67.8719 282.209 67.1905 282.535 66.6064C282.86 66.0223 283.384 65.5741 284.012 65.3432C284.64 65.1122 285.33 65.1137 285.956 65.3475C286.02 65.3711 286.09 65.3686 286.151 65.3406C286.213 65.3125 286.261 65.2612 286.284 65.1978C286.308 65.1345 286.306 65.0643 286.278 65.0028C286.249 64.9413 286.198 64.8935 286.135 64.8698C285.384 64.589 284.558 64.589 283.808 64.8698C283.057 65.1507 282.434 65.6934 282.053 66.3978C281.672 67.1022 281.558 67.9207 281.734 68.7021C281.909 69.4834 282.362 70.1749 283.008 70.6488C283.654 71.1227 284.449 71.347 285.248 71.2802C286.046 71.2135 286.793 70.8602 287.351 70.2856C287.91 69.7111 288.241 68.9541 288.284 68.1544C288.327 67.3548 288.08 66.5665 287.587 65.9352H288.037Z" fill="#3F4047"/>
<path d="M285.233 67.2555V65.9349C285.233 65.8674 285.207 65.8026 285.159 65.7548C285.111 65.707 285.046 65.6802 284.979 65.6802C284.911 65.6802 284.846 65.707 284.798 65.7548C284.751 65.8026 284.724 65.8674 284.724 65.9349V67.2555C284.617 67.2936 284.52 67.3548 284.44 67.4348C284.36 67.5148 284.299 67.6116 284.261 67.7181H283.449C283.382 67.7181 283.317 67.745 283.269 67.7928C283.221 67.8405 283.195 67.9053 283.195 67.9729C283.195 68.0405 283.221 68.1052 283.269 68.153C283.317 68.2008 283.382 68.2276 283.449 68.2276H284.261C284.304 68.3493 284.377 68.4581 284.473 68.5439C284.569 68.6297 284.686 68.6897 284.811 68.7183C284.937 68.7469 285.068 68.7432 285.192 68.7074C285.316 68.6717 285.429 68.6052 285.52 68.514C285.611 68.4228 285.678 68.31 285.714 68.1862C285.749 68.0623 285.753 67.9314 285.724 67.8057C285.696 67.68 285.636 67.5636 285.55 67.4674C285.464 67.3712 285.355 67.2983 285.233 67.2555ZM284.979 68.2276C284.928 68.2276 284.879 68.2127 284.837 68.1847C284.795 68.1567 284.762 68.1169 284.743 68.0704C284.724 68.0238 284.719 67.9726 284.729 67.9232C284.738 67.8738 284.763 67.8284 284.798 67.7928C284.834 67.7571 284.879 67.7329 284.929 67.723C284.978 67.7132 285.03 67.7183 285.076 67.7375C285.123 67.7568 285.163 67.7895 285.191 67.8314C285.219 67.8733 285.233 67.9225 285.233 67.9729C285.233 68.0405 285.207 68.1052 285.159 68.153C285.111 68.2008 285.046 68.2276 284.979 68.2276Z" fill="#3F4047"/>
<path d="M279.372 63.897H278.352C278.217 63.897 278.087 63.8433 277.992 63.7478C277.896 63.6522 277.843 63.5226 277.843 63.3875V62.6233C277.843 62.4881 277.896 62.3585 277.992 62.263C278.087 62.1674 278.217 62.1138 278.352 62.1138H279.372C279.507 62.1138 279.637 62.1674 279.732 62.263C279.828 62.3585 279.881 62.4881 279.881 62.6233V63.3875C279.881 63.5226 279.828 63.6522 279.732 63.7478C279.637 63.8433 279.507 63.897 279.372 63.897ZM278.352 62.6233V63.3875H279.372V62.6233H278.352Z" fill="#3F4047"/>
<path d="M282.43 63.897H281.411C281.275 63.897 281.146 63.8433 281.05 63.7478C280.955 63.6522 280.901 63.5226 280.901 63.3875V62.6233C280.901 62.4881 280.955 62.3585 281.05 62.263C281.146 62.1674 281.275 62.1138 281.411 62.1138H282.43C282.565 62.1138 282.695 62.1674 282.79 62.263C282.886 62.3585 282.94 62.4881 282.94 62.6233V63.3875C282.94 63.5226 282.886 63.6522 282.79 63.7478C282.695 63.8433 282.565 63.897 282.43 63.897ZM281.411 62.6233V63.3875H282.43V62.6233H281.411Z" fill="#3F4047"/>
<path d="M276.313 63.897H275.294C275.159 63.897 275.029 63.8433 274.933 63.7478C274.838 63.6522 274.784 63.5226 274.784 63.3875V62.6233C274.784 62.4881 274.838 62.3585 274.933 62.263C275.029 62.1674 275.159 62.1138 275.294 62.1138H276.313C276.449 62.1138 276.578 62.1674 276.674 62.263C276.769 62.3585 276.823 62.4881 276.823 62.6233V63.3875C276.823 63.5226 276.769 63.6522 276.674 63.7478C276.578 63.8433 276.449 63.897 276.313 63.897ZM275.294 62.6233V63.3875H276.313V62.6233H275.294Z" fill="#3F4047"/>
<path d="M285.488 63.897H284.469C284.334 63.897 284.204 63.8433 284.108 63.7478C284.013 63.6522 283.959 63.5226 283.959 63.3875V62.6233C283.959 62.4881 284.013 62.3585 284.108 62.263C284.204 62.1674 284.334 62.1138 284.469 62.1138H285.488C285.623 62.1138 285.753 62.1674 285.849 62.263C285.944 62.3585 285.998 62.4881 285.998 62.6233V63.3875C285.998 63.5226 285.944 63.6522 285.849 63.7478C285.753 63.8433 285.623 63.897 285.488 63.897ZM284.469 62.6233V63.3875H285.488V62.6233H284.469Z" fill="#3F4047"/>
<path d="M279.372 66.6997H278.352C278.217 66.6997 278.087 66.646 277.992 66.5505C277.896 66.455 277.843 66.3254 277.843 66.1902V65.426C277.843 65.2909 277.896 65.1613 277.992 65.0657C278.087 64.9702 278.217 64.9165 278.352 64.9165H279.372C279.507 64.9165 279.637 64.9702 279.732 65.0657C279.828 65.1613 279.881 65.2909 279.881 65.426V66.1902C279.881 66.3254 279.828 66.455 279.732 66.5505C279.637 66.646 279.507 66.6997 279.372 66.6997ZM278.352 65.426V66.1902H279.372V65.426H278.352Z" fill="#3F4047"/>
<path d="M281.411 66.6997C281.275 66.6997 281.146 66.646 281.05 66.5505C280.955 66.455 280.901 66.3254 280.901 66.1902V65.426C280.901 65.2909 280.955 65.1613 281.05 65.0657C281.146 64.9702 281.275 64.9165 281.411 64.9165H282.175C282.243 64.9165 282.308 64.9433 282.355 64.9911C282.403 65.0389 282.43 65.1037 282.43 65.1712C282.43 65.2388 282.403 65.3036 282.355 65.3514C282.308 65.3992 282.243 65.426 282.175 65.426H281.411V66.1902C281.478 66.1902 281.543 66.2171 281.591 66.2648C281.639 66.3126 281.665 66.3774 281.665 66.445C281.665 66.5125 281.639 66.5773 281.591 66.6251C281.543 66.6729 281.478 66.6997 281.411 66.6997Z" fill="#3F4047"/>
<path d="M276.313 66.6997H275.294C275.159 66.6997 275.029 66.646 274.933 66.5505C274.838 66.455 274.784 66.3254 274.784 66.1902V65.426C274.784 65.2909 274.838 65.1613 274.933 65.0657C275.029 64.9702 275.159 64.9165 275.294 64.9165H276.313C276.449 64.9165 276.578 64.9702 276.674 65.0657C276.769 65.1613 276.823 65.2909 276.823 65.426V66.1902C276.823 66.3254 276.769 66.455 276.674 66.5505C276.578 66.646 276.449 66.6997 276.313 66.6997ZM275.294 65.426V66.1902H276.313V65.426H275.294Z" fill="#3F4047"/>
<path d="M279.372 69.5015H278.352C278.217 69.5015 278.087 69.4478 277.992 69.3523C277.896 69.2567 277.843 69.1271 277.843 68.992V68.2278C277.843 68.0926 277.896 67.963 277.992 67.8675C278.087 67.7719 278.217 67.7183 278.352 67.7183H279.372C279.507 67.7183 279.637 67.7719 279.732 67.8675C279.828 67.963 279.881 68.0926 279.881 68.2278V68.992C279.881 69.1271 279.828 69.2567 279.732 69.3523C279.637 69.4478 279.507 69.5015 279.372 69.5015ZM278.352 68.2278V68.992H279.372V68.2278H278.352Z" fill="#3F4047"/>
<path d="M276.313 69.5015H275.294C275.159 69.5015 275.029 69.4478 274.933 69.3523C274.838 69.2567 274.784 69.1271 274.784 68.992V68.2278C274.784 68.0926 274.838 67.963 274.933 67.8675C275.029 67.7719 275.159 67.7183 275.294 67.7183H276.313C276.449 67.7183 276.578 67.7719 276.674 67.8675C276.769 67.963 276.823 68.0926 276.823 68.2278V68.992C276.823 69.1271 276.769 69.2567 276.674 69.3523C276.578 69.4478 276.449 69.5015 276.313 69.5015ZM275.294 68.2278V68.992H276.313V68.2278H275.294Z" fill="#3F4047"/>
<path d="M286.508 6.52848H285.488V6.01898C285.488 5.74873 285.381 5.48955 285.19 5.29845C284.998 5.10736 284.739 5 284.469 5C284.198 5 283.939 5.10736 283.748 5.29845C283.557 5.48955 283.449 5.74873 283.449 6.01898V6.52848H281.41V6.01898C281.41 5.74873 281.303 5.48955 281.112 5.29845C280.921 5.10736 280.661 5 280.391 5C280.121 5 279.861 5.10736 279.67 5.29845C279.479 5.48955 279.372 5.74873 279.372 6.01898V6.52848H277.333V6.01898C277.333 5.74873 277.225 5.48955 277.034 5.29845C276.843 5.10736 276.584 5 276.313 5C276.043 5 275.784 5.10736 275.592 5.29845C275.401 5.48955 275.294 5.74873 275.294 6.01898V6.52848H274.274C273.936 6.52888 273.613 6.66321 273.374 6.90199C273.135 7.14077 273 7.46451 273 7.8022V18.5015C273 18.8392 273.135 19.163 273.374 19.4017C273.613 19.6405 273.936 19.7749 274.274 19.7753H281.92C281.988 19.7753 282.053 19.7484 282.1 19.7006C282.148 19.6529 282.175 19.5881 282.175 19.5205C282.175 19.453 282.148 19.3882 282.1 19.3404C282.053 19.2926 281.988 19.2658 281.92 19.2658H274.274C274.072 19.2658 273.877 19.1853 273.734 19.0419C273.59 18.8986 273.51 18.7042 273.51 18.5015V10.0949H287.272V13.6614C287.272 13.7289 287.299 13.7937 287.347 13.8415C287.395 13.8893 287.46 13.9161 287.527 13.9161C287.595 13.9161 287.66 13.8893 287.707 13.8415C287.755 13.7937 287.782 13.7289 287.782 13.6614V7.8022C287.782 7.46451 287.647 7.14077 287.408 6.90199C287.169 6.66321 286.846 6.52888 286.508 6.52848ZM283.959 6.01898C283.959 5.88386 284.013 5.75427 284.108 5.65872C284.204 5.56317 284.334 5.50949 284.469 5.50949C284.604 5.50949 284.734 5.56317 284.829 5.65872C284.925 5.75427 284.979 5.88386 284.979 6.01898V7.54746C284.979 7.68258 284.925 7.81218 284.829 7.90772C284.734 8.00327 284.604 8.05695 284.469 8.05695C284.334 8.05695 284.204 8.00327 284.108 7.90772C284.013 7.81218 283.959 7.68258 283.959 7.54746V6.01898ZM279.881 6.01898C279.881 5.88386 279.935 5.75427 280.031 5.65872C280.126 5.56317 280.256 5.50949 280.391 5.50949C280.526 5.50949 280.656 5.56317 280.751 5.65872C280.847 5.75427 280.901 5.88386 280.901 6.01898V7.54746C280.901 7.68258 280.847 7.81218 280.751 7.90772C280.656 8.00327 280.526 8.05695 280.391 8.05695C280.256 8.05695 280.126 8.00327 280.031 7.90772C279.935 7.81218 279.881 7.68258 279.881 7.54746V6.01898ZM275.803 6.01898C275.803 5.88386 275.857 5.75427 275.953 5.65872C276.048 5.56317 276.178 5.50949 276.313 5.50949C276.448 5.50949 276.578 5.56317 276.674 5.65872C276.769 5.75427 276.823 5.88386 276.823 6.01898V7.54746C276.823 7.68258 276.769 7.81218 276.674 7.90772C276.578 8.00327 276.448 8.05695 276.313 8.05695C276.178 8.05695 276.048 8.00327 275.953 7.90772C275.857 7.81218 275.803 7.68258 275.803 7.54746V6.01898ZM273.51 9.58543V7.8022C273.51 7.59952 273.59 7.40513 273.734 7.26181C273.877 7.11848 274.072 7.03797 274.274 7.03797H275.294V7.54746C275.294 7.81771 275.401 8.07689 275.592 8.26799C275.784 8.45909 276.043 8.56644 276.313 8.56644C276.584 8.56644 276.843 8.45909 277.034 8.26799C277.225 8.07689 277.333 7.81771 277.333 7.54746V7.03797H279.372V7.54746C279.372 7.81771 279.479 8.07689 279.67 8.26799C279.861 8.45909 280.121 8.56644 280.391 8.56644C280.661 8.56644 280.921 8.45909 281.112 8.26799C281.303 8.07689 281.41 7.81771 281.41 7.54746V7.03797H283.449V7.54746C283.449 7.81771 283.557 8.07689 283.748 8.26799C283.939 8.45909 284.198 8.56644 284.469 8.56644C284.739 8.56644 284.998 8.45909 285.19 8.26799C285.381 8.07689 285.488 7.81771 285.488 7.54746V7.03797H286.508C286.71 7.03797 286.905 7.11848 287.048 7.26181C287.192 7.40513 287.272 7.59952 287.272 7.8022V9.58543H273.51Z" fill="#3F4047"/>
<path d="M288.037 14.9352C288.104 14.9352 288.169 14.9083 288.217 14.8606C288.265 14.8128 288.291 14.748 288.291 14.6804C288.291 14.6129 288.265 14.5481 288.217 14.5003C288.169 14.4525 288.104 14.4257 288.037 14.4257H287.017C286.949 14.4257 286.885 14.4525 286.837 14.5003C286.789 14.5481 286.762 14.6129 286.762 14.6804V15.6994C286.762 15.767 286.789 15.8318 286.837 15.8795C286.885 15.9273 286.949 15.9542 287.017 15.9542C287.085 15.9542 287.149 15.9273 287.197 15.8795C287.245 15.8318 287.272 15.767 287.272 15.6994V15.3665C287.655 15.9147 287.829 16.5819 287.761 17.2471C287.694 17.9124 287.391 18.5316 286.906 18.9924C286.422 19.4533 285.788 19.7253 285.12 19.7591C284.452 19.793 283.794 19.5864 283.265 19.1769C282.736 18.7673 282.372 18.182 282.238 17.5269C282.104 16.8719 282.209 16.1905 282.535 15.6064C282.86 15.0223 283.384 14.5741 284.012 14.3432C284.64 14.1122 285.33 14.1137 285.956 14.3475C286.02 14.3711 286.09 14.3686 286.151 14.3406C286.213 14.3125 286.261 14.2612 286.284 14.1978C286.308 14.1345 286.306 14.0643 286.278 14.0028C286.249 13.9413 286.198 13.8935 286.135 13.8698C285.384 13.589 284.558 13.589 283.808 13.8698C283.057 14.1507 282.434 14.6934 282.053 15.3978C281.672 16.1022 281.558 16.9207 281.734 17.7021C281.909 18.4834 282.362 19.1749 283.008 19.6488C283.654 20.1227 284.449 20.347 285.248 20.2802C286.046 20.2135 286.793 19.8602 287.351 19.2856C287.91 18.7111 288.241 17.9541 288.284 17.1544C288.327 16.3548 288.08 15.5665 287.587 14.9352H288.037Z" fill="#3F4047"/>
<path d="M285.233 16.2555V14.9349C285.233 14.8674 285.207 14.8026 285.159 14.7548C285.111 14.707 285.046 14.6802 284.979 14.6802C284.911 14.6802 284.846 14.707 284.798 14.7548C284.751 14.8026 284.724 14.8674 284.724 14.9349V16.2555C284.617 16.2936 284.52 16.3548 284.44 16.4348C284.36 16.5148 284.299 16.6116 284.261 16.7181H283.449C283.382 16.7181 283.317 16.745 283.269 16.7928C283.221 16.8405 283.195 16.9053 283.195 16.9729C283.195 17.0405 283.221 17.1052 283.269 17.153C283.317 17.2008 283.382 17.2276 283.449 17.2276H284.261C284.304 17.3493 284.377 17.4581 284.473 17.5439C284.569 17.6297 284.686 17.6897 284.811 17.7183C284.937 17.7469 285.068 17.7432 285.192 17.7074C285.316 17.6717 285.429 17.6052 285.52 17.514C285.611 17.4228 285.678 17.31 285.714 17.1862C285.749 17.0623 285.753 16.9314 285.724 16.8057C285.696 16.68 285.636 16.5636 285.55 16.4674C285.464 16.3712 285.355 16.2983 285.233 16.2555ZM284.979 17.2276C284.928 17.2276 284.879 17.2127 284.837 17.1847C284.795 17.1567 284.762 17.1169 284.743 17.0704C284.724 17.0238 284.719 16.9726 284.729 16.9232C284.738 16.8738 284.763 16.8284 284.798 16.7928C284.834 16.7571 284.879 16.7329 284.929 16.723C284.978 16.7132 285.03 16.7183 285.076 16.7375C285.123 16.7568 285.163 16.7895 285.191 16.8314C285.219 16.8733 285.233 16.9225 285.233 16.9729C285.233 17.0405 285.207 17.1052 285.159 17.153C285.111 17.2008 285.046 17.2276 284.979 17.2276Z" fill="#3F4047"/>
<path d="M279.372 12.897H278.352C278.217 12.897 278.087 12.8433 277.992 12.7478C277.896 12.6522 277.843 12.5226 277.843 12.3875V11.6233C277.843 11.4881 277.896 11.3585 277.992 11.263C278.087 11.1674 278.217 11.1138 278.352 11.1138H279.372C279.507 11.1138 279.637 11.1674 279.732 11.263C279.828 11.3585 279.881 11.4881 279.881 11.6233V12.3875C279.881 12.5226 279.828 12.6522 279.732 12.7478C279.637 12.8433 279.507 12.897 279.372 12.897ZM278.352 11.6233V12.3875H279.372V11.6233H278.352Z" fill="#3F4047"/>
<path d="M282.43 12.897H281.411C281.275 12.897 281.146 12.8433 281.05 12.7478C280.955 12.6522 280.901 12.5226 280.901 12.3875V11.6233C280.901 11.4881 280.955 11.3585 281.05 11.263C281.146 11.1674 281.275 11.1138 281.411 11.1138H282.43C282.565 11.1138 282.695 11.1674 282.79 11.263C282.886 11.3585 282.94 11.4881 282.94 11.6233V12.3875C282.94 12.5226 282.886 12.6522 282.79 12.7478C282.695 12.8433 282.565 12.897 282.43 12.897ZM281.411 11.6233V12.3875H282.43V11.6233H281.411Z" fill="#3F4047"/>
<path d="M276.313 12.897H275.294C275.159 12.897 275.029 12.8433 274.933 12.7478C274.838 12.6522 274.784 12.5226 274.784 12.3875V11.6233C274.784 11.4881 274.838 11.3585 274.933 11.263C275.029 11.1674 275.159 11.1138 275.294 11.1138H276.313C276.449 11.1138 276.578 11.1674 276.674 11.263C276.769 11.3585 276.823 11.4881 276.823 11.6233V12.3875C276.823 12.5226 276.769 12.6522 276.674 12.7478C276.578 12.8433 276.449 12.897 276.313 12.897ZM275.294 11.6233V12.3875H276.313V11.6233H275.294Z" fill="#3F4047"/>
<path d="M285.488 12.897H284.469C284.334 12.897 284.204 12.8433 284.108 12.7478C284.013 12.6522 283.959 12.5226 283.959 12.3875V11.6233C283.959 11.4881 284.013 11.3585 284.108 11.263C284.204 11.1674 284.334 11.1138 284.469 11.1138H285.488C285.623 11.1138 285.753 11.1674 285.849 11.263C285.944 11.3585 285.998 11.4881 285.998 11.6233V12.3875C285.998 12.5226 285.944 12.6522 285.849 12.7478C285.753 12.8433 285.623 12.897 285.488 12.897ZM284.469 11.6233V12.3875H285.488V11.6233H284.469Z" fill="#3F4047"/>
<path d="M279.372 15.6997H278.352C278.217 15.6997 278.087 15.646 277.992 15.5505C277.896 15.455 277.843 15.3254 277.843 15.1902V14.426C277.843 14.2909 277.896 14.1613 277.992 14.0657C278.087 13.9702 278.217 13.9165 278.352 13.9165H279.372C279.507 13.9165 279.637 13.9702 279.732 14.0657C279.828 14.1613 279.881 14.2909 279.881 14.426V15.1902C279.881 15.3254 279.828 15.455 279.732 15.5505C279.637 15.646 279.507 15.6997 279.372 15.6997ZM278.352 14.426V15.1902H279.372V14.426H278.352Z" fill="#3F4047"/>
<path d="M281.411 15.6997C281.275 15.6997 281.146 15.646 281.05 15.5505C280.955 15.455 280.901 15.3254 280.901 15.1902V14.426C280.901 14.2909 280.955 14.1613 281.05 14.0657C281.146 13.9702 281.275 13.9165 281.411 13.9165H282.175C282.243 13.9165 282.308 13.9433 282.355 13.9911C282.403 14.0389 282.43 14.1037 282.43 14.1712C282.43 14.2388 282.403 14.3036 282.355 14.3514C282.308 14.3992 282.243 14.426 282.175 14.426H281.411V15.1902C281.478 15.1902 281.543 15.2171 281.591 15.2648C281.639 15.3126 281.665 15.3774 281.665 15.445C281.665 15.5125 281.639 15.5773 281.591 15.6251C281.543 15.6729 281.478 15.6997 281.411 15.6997Z" fill="#3F4047"/>
<path d="M276.313 15.6997H275.294C275.159 15.6997 275.029 15.646 274.933 15.5505C274.838 15.455 274.784 15.3254 274.784 15.1902V14.426C274.784 14.2909 274.838 14.1613 274.933 14.0657C275.029 13.9702 275.159 13.9165 275.294 13.9165H276.313C276.449 13.9165 276.578 13.9702 276.674 14.0657C276.769 14.1613 276.823 14.2909 276.823 14.426V15.1902C276.823 15.3254 276.769 15.455 276.674 15.5505C276.578 15.646 276.449 15.6997 276.313 15.6997ZM275.294 14.426V15.1902H276.313V14.426H275.294Z" fill="#3F4047"/>
<path d="M279.372 18.5015H278.352C278.217 18.5015 278.087 18.4478 277.992 18.3523C277.896 18.2567 277.843 18.1271 277.843 17.992V17.2278C277.843 17.0926 277.896 16.963 277.992 16.8675C278.087 16.7719 278.217 16.7183 278.352 16.7183H279.372C279.507 16.7183 279.637 16.7719 279.732 16.8675C279.828 16.963 279.881 17.0926 279.881 17.2278V17.992C279.881 18.1271 279.828 18.2567 279.732 18.3523C279.637 18.4478 279.507 18.5015 279.372 18.5015ZM278.352 17.2278V17.992H279.372V17.2278H278.352Z" fill="#3F4047"/>
<path d="M276.313 18.5015H275.294C275.159 18.5015 275.029 18.4478 274.933 18.3523C274.838 18.2567 274.784 18.1271 274.784 17.992V17.2278C274.784 17.0926 274.838 16.963 274.933 16.8675C275.029 16.7719 275.159 16.7183 275.294 16.7183H276.313C276.449 16.7183 276.578 16.7719 276.674 16.8675C276.769 16.963 276.823 17.0926 276.823 17.2278V17.992C276.823 18.1271 276.769 18.2567 276.674 18.3523C276.578 18.4478 276.449 18.5015 276.313 18.5015ZM275.294 17.2278V17.992H276.313V17.2278H275.294Z" fill="#3F4047"/>
</g>
<defs>
<filter id="filter0_d_857_4552" x="0.4125" y="0.4125" width="298.583" height="140.878" filterUnits="userSpaceOnUse" color-interpolation-filters="sRGB">
<feFlood flood-opacity="0" result="BackgroundImageFix"/>
<feColorMatrix in="SourceAlpha" type="matrix" values="0 0 0 0 0 0 0 0 0 0 0 0 0 0 0 0 0 0 127 0" result="hardAlpha"/>
<feOffset dx="3.05833" dy="3.05833"/>
<feGaussianBlur stdDeviation="3.82292"/>
<feColorMatrix type="matrix" values="0 0 0 0 0.604415 0 0 0 0 0.589992 0 0 0 0 0.589992 0 0 0 0.25 0"/>
<feBlend mode="normal" in2="BackgroundImageFix" result="effect1_dropShadow_857_4552"/>
<feBlend mode="normal" in="SourceGraphic" in2="effect1_dropShadow_857_4552" result="shape"/>
</filter>
</defs>
</svg>
