<svg width="21" height="20" viewBox="0 0 21 20" fill="none" xmlns="http://www.w3.org/2000/svg">
<path d="M14.4057 4.8964V1.66815C14.4057 1.1535 13.9572 0.732422 13.4086 0.732422H1.11043C0.561998 0.732422 0.113281 1.1535 0.113281 1.66815V2.27637V14.472V14.8932C0.113281 15.2362 0.32933 15.5637 0.645093 15.7196L8.22342 19.4003C8.5558 19.5562 8.95466 19.3381 8.95466 18.9792V15.3923H13.4086C13.9572 15.3923 14.4057 14.9713 14.4057 14.4565V9.34125H12.4114V13.053C12.4114 13.3181 12.1954 13.5208 11.9129 13.5208H8.97128V8.71743V5.67632V5.58275C8.97128 5.23965 8.75523 4.91215 8.43946 4.7562L3.96892 2.60403H11.9129C12.1954 2.60403 12.4114 2.80677 12.4114 3.07189V4.91215H14.4057V4.8964Z" fill="#DB1E1E"/>
<path d="M16.9646 3.36778L20.2053 6.40888C20.6208 6.79877 20.6208 7.3758 20.2053 7.76569L16.9646 10.8068C16.5491 11.1967 15.9174 11.2124 15.5019 10.8225C15.1032 10.4484 15.1529 9.82444 15.5353 9.45015L16.9976 8.09335H11.3307C11.0483 8.09335 10.7656 7.98418 10.5828 7.78144C10.1175 7.31357 10.2338 6.48702 10.8321 6.17511C10.9817 6.09713 11.1645 6.05035 11.3307 6.05035H16.9978C16.9978 6.05035 15.5521 4.69354 15.5355 4.69354C15.1531 4.33485 15.1032 3.69544 15.5021 3.33674C15.9009 2.96245 16.5491 2.97789 16.9646 3.36778Z" fill="#DB1E1E"/>
</svg>
