<svg width="22" height="23" viewBox="0 0 22 23" fill="none" xmlns="http://www.w3.org/2000/svg">
<path d="M14.757 5.05276V1.14302C14.757 0.519731 14.295 0.00976562 13.7299 0.00976562H1.06226C0.497354 0.00976562 0.0351562 0.519731 0.0351562 1.14302V1.87964V16.6497V17.1599C0.0351562 17.5752 0.257696 17.9719 0.582946 18.1608L8.38894 22.6184C8.73131 22.8073 9.14215 22.5431 9.14215 22.1085V17.7643H13.7299C14.295 17.7643 14.757 17.2545 14.757 16.631V10.4359H12.7028V14.9312C12.7028 15.2523 12.4802 15.4978 12.1892 15.4978H9.15927V9.68041V5.99733V5.884C9.15927 5.46847 8.93673 5.07183 8.61148 4.88296L4.00663 2.27647H12.1892C12.4802 2.27647 12.7028 2.52201 12.7028 2.8431V5.07183H14.757V5.05276Z" fill="#DB1E1E"/>
<path d="M17.3934 3.20211L20.7315 6.88519C21.1594 7.35738 21.1594 8.05623 20.7315 8.52842L17.3934 12.2115C16.9654 12.6837 16.3148 12.7028 15.8868 12.2306C15.4761 11.7775 15.5273 11.0218 15.9212 10.5685L17.4275 8.92524H11.5902C11.2994 8.92524 11.0082 8.79303 10.8199 8.54749C10.3406 7.98086 10.4604 6.97982 11.0767 6.60207C11.2308 6.50763 11.4191 6.45097 11.5902 6.45097H17.4276C17.4276 6.45097 15.9385 4.80775 15.9214 4.80775C15.5275 4.37333 15.4761 3.59894 15.887 3.16452C16.2978 2.71122 16.9654 2.72992 17.3934 3.20211Z" fill="#DB1E1E"/>
</svg>
