<svg width="22" height="23" viewBox="0 0 22 23" fill="none" xmlns="http://www.w3.org/2000/svg">
<path d="M14.9718 5.05276V1.14302C14.9718 0.519731 14.5098 0.00976562 13.9447 0.00976562H1.27711C0.712197 0.00976562 0.25 0.519731 0.25 1.14302V1.87964V16.6497V17.1599C0.25 17.5752 0.472539 17.9719 0.797789 18.1608L8.60379 22.6184C8.94616 22.8073 9.357 22.5431 9.357 22.1085V17.7643H13.9447C14.5098 17.7643 14.9718 17.2545 14.9718 16.631V10.4359H12.9176V14.9312C12.9176 15.2523 12.6951 15.4978 12.4041 15.4978H9.37412V9.68041V5.99733V5.884C9.37412 5.46847 9.15158 5.07183 8.82633 4.88296L4.22147 2.27647H12.4041C12.6951 2.27647 12.9176 2.52201 12.9176 2.8431V5.07183H14.9718V5.05276Z" fill="#DB1E1E"/>
<path d="M17.6082 3.20211L20.9463 6.88519C21.3743 7.35738 21.3743 8.05623 20.9463 8.52842L17.6082 12.2115C17.1803 12.6837 16.5296 12.7028 16.1016 12.2306C15.691 11.7775 15.7422 11.0218 16.1361 10.5685L17.6423 8.92524H11.8051C11.5142 8.92524 11.2231 8.79303 11.0348 8.54749C10.5554 7.98086 10.6753 6.97982 11.2915 6.60207C11.4456 6.50763 11.6339 6.45097 11.8051 6.45097H17.6425C17.6425 6.45097 16.1533 4.80775 16.1362 4.80775C15.7423 4.37333 15.691 3.59894 16.1018 3.16452C16.5127 2.71122 17.1803 2.72992 17.6082 3.20211Z" fill="#DB1E1E"/>
</svg>
