<svg width="20" height="20" viewBox="0 0 20 20" fill="none" xmlns="http://www.w3.org/2000/svg">
<path d="M19.0969 8.50483L16.8553 7.95472C16.7318 7.56178 16.5747 7.18007 16.3838 6.80959L17.5289 4.90105C17.6636 4.67652 17.63 4.39585 17.4503 4.21622L15.8561 2.62203C15.6765 2.4424 15.3959 2.40872 15.1713 2.54344L13.2628 3.68857C12.8923 3.49771 12.5106 3.34054 12.1177 3.21704L11.5788 0.975443C11.5114 0.728456 11.2869 0.548828 11.0287 0.548828H8.78332C8.5251 0.548828 8.30057 0.728456 8.23321 0.975443L7.69433 3.21704C7.30139 3.34054 6.91968 3.49771 6.5492 3.68857L4.64066 2.54344C4.41613 2.40872 4.13546 2.4424 3.95583 2.62203L2.36164 4.21622C2.18201 4.39585 2.14833 4.67652 2.28305 4.90105L3.42817 6.80959C3.23732 7.18007 3.08015 7.56178 2.95665 7.95472L0.789896 8.50483C0.542909 8.56096 0.363281 8.78549 0.363281 9.04371V11.2891C0.363281 11.5473 0.542909 11.7718 0.789896 11.8279L2.95665 12.378C3.08015 12.771 3.23732 13.1527 3.42817 13.5232L2.28305 15.4317C2.14833 15.6562 2.18201 15.9369 2.36164 16.1165L3.95583 17.7107C4.13546 17.8904 4.41613 17.924 4.64066 17.7893L6.5492 16.6442C6.91968 16.835 7.30139 16.9922 7.69433 17.1157L8.23321 19.2825C8.30057 19.5295 8.5251 19.7091 8.78332 19.7091H11.0287C11.2869 19.7091 11.5114 19.5295 11.5788 19.2825L12.1177 17.1157C12.5106 16.9922 12.8923 16.835 13.2628 16.6442L15.1713 17.7893C15.3959 17.924 15.6765 17.8904 15.8561 17.7107L17.4503 16.1165C17.63 15.9369 17.6636 15.6562 17.5289 15.4317L16.3838 13.5232C16.5747 13.1527 16.7318 12.771 16.8553 12.378L19.0969 11.8279C19.3439 11.7718 19.5235 11.5473 19.5235 11.2891V9.04371C19.5235 8.78549 19.3439 8.56096 19.0969 8.50483ZM9.90599 12.9731C8.3567 12.9731 7.09931 11.7157 7.09931 10.1664C7.09931 8.61709 8.3567 7.3597 9.90599 7.3597C11.4553 7.3597 12.7127 8.61709 12.7127 10.1664C12.7127 11.7157 11.4553 12.9731 9.90599 12.9731Z" fill="white"/>
</svg>
