<svg width="21" height="23" viewBox="0 0 21 23" fill="none" xmlns="http://www.w3.org/2000/svg">
<path opacity="0.7" d="M9.89318 22.2904C11.5196 22.2904 12.8802 21.1024 13.1926 19.5298H6.59375C6.90635 21.1024 8.2669 22.2904 9.89318 22.2904Z" fill="black"/>
<path opacity="0.7" d="M16.1922 11.2466C16.1885 11.2466 16.1849 11.2475 16.1813 11.2475C12.7158 11.2475 9.89504 8.35793 9.89504 4.80604C9.89504 3.82961 10.1142 2.90659 10.4959 2.07658C10.2982 2.05737 10.098 2.04541 9.89504 2.04541C6.42327 2.04541 3.60876 4.92921 3.60876 8.48683V11.0523C3.60876 12.8734 2.83015 14.5924 1.46417 15.7758C1.00884 16.1743 0.806751 16.8092 0.970201 17.4286C1.16062 18.149 1.8557 18.6092 2.58498 18.6092H17.2007C17.9658 18.6092 18.687 18.1012 18.8422 17.3329C18.9626 16.7384 18.7561 16.1448 18.3062 15.7574C17.0004 14.6357 16.2451 12.9875 16.1922 11.2466Z" fill="black"/>
<path d="M20.2065 4.80619C20.2065 7.10102 18.3939 8.94178 16.1815 8.94178C13.9693 8.94178 12.1568 7.10103 12.1568 4.80619C12.1568 2.51133 13.9693 0.670429 16.1815 0.670429C18.3939 0.670429 20.2065 2.51134 20.2065 4.80619Z" fill="#F24F4F" stroke="black" stroke-width="0.930703"/>
</svg>
