<svg width="25" height="18" viewBox="0 0 25 18" fill="none" xmlns="http://www.w3.org/2000/svg">
<g opacity="0.7">
<path d="M9.19415 0.506836C4.31699 0.506836 0.363281 3.45002 0.363281 7.08206C0.363281 8.97637 1.44091 10.6829 3.1624 11.8833C3.09743 12.173 2.84607 13.0427 2.06613 13.8277C1.75885 14.1369 1.55328 14.1653 1.68562 14.4596C1.81131 14.7397 4.16814 14.4668 5.50619 13.0568C6.62856 13.4413 7.87714 13.6581 9.19415 13.6581C14.0708 13.6581 18.0256 10.7138 18.0256 7.08206C18.0256 3.45002 14.0711 0.506836 9.19415 0.506836Z" fill="white"/>
<path d="M22.6291 17.0212C21.8489 16.2352 21.5983 15.3668 21.5318 15.0766C23.2538 13.8762 24.3314 12.1699 24.3314 10.2753C24.3314 7.42747 21.8995 5.00354 18.4994 4.08887C19.0053 5.02244 19.2852 6.04682 19.2852 7.12152C19.2852 11.4145 14.8162 14.9115 9.30078 14.9565C10.8953 16.1271 13.0838 16.8511 15.5006 16.8511C16.8173 16.8511 18.0661 16.6346 19.1885 16.2501C20.5266 17.6608 22.8826 17.933 23.0096 17.6528C23.1414 17.3591 22.9361 17.3306 22.6291 17.0212Z" fill="white"/>
</g>
</svg>
