<svg width="22" height="20" viewBox="0 0 22 20" fill="none" xmlns="http://www.w3.org/2000/svg">
<path d="M15.1831 4.8964V1.66815C15.1831 1.1535 14.7345 0.732422 14.1859 0.732422H1.88777C1.33934 0.732422 0.890625 1.1535 0.890625 1.66815V2.27637V14.472V14.8932C0.890625 15.2362 1.10667 15.5637 1.42244 15.7196L9.00076 19.4003C9.33314 19.5562 9.732 19.3381 9.732 18.9792V15.3923H14.1859C14.7345 15.3923 15.1831 14.9713 15.1831 14.4565V9.34125H13.1888V13.053C13.1888 13.3181 12.9727 13.5208 12.6902 13.5208H9.74862V8.71743V5.67632V5.58275C9.74862 5.23965 9.53257 4.91215 9.21681 4.7562L4.74626 2.60403H12.6902C12.9727 2.60403 13.1888 2.80677 13.1888 3.07189V4.91215H15.1831V4.8964Z" fill="#DB1E1E"/>
<path d="M17.7419 3.36778L20.9826 6.40888C21.3981 6.79877 21.3981 7.3758 20.9826 7.76569L17.7419 10.8068C17.3264 11.1967 16.6947 11.2124 16.2793 10.8225C15.8806 10.4484 15.9302 9.82444 16.3127 9.45015L17.775 8.09335H12.108C11.8257 8.09335 11.543 7.98418 11.3602 7.78144C10.8948 7.31357 11.0112 6.48702 11.6094 6.17511C11.759 6.09713 11.9418 6.05035 12.108 6.05035H17.7751C17.7751 6.05035 16.3294 4.69354 16.3128 4.69354C15.9304 4.33485 15.8806 3.69544 16.2794 3.33674C16.6783 2.96245 17.3264 2.97789 17.7419 3.36778Z" fill="#DB1E1E"/>
</svg>
