<svg width="19" height="22" viewBox="0 0 19 22" fill="none" xmlns="http://www.w3.org/2000/svg">
<path opacity="0.7" d="M8.3334 21.3095C9.84265 21.3095 11.1052 20.1954 11.3951 18.7207H5.27173C5.5618 20.1954 6.82431 21.3095 8.3334 21.3095Z" fill="black"/>
<path opacity="0.7" d="M14.1772 10.9538C14.1738 10.9538 14.1704 10.9545 14.1671 10.9545C10.9513 10.9545 8.3338 8.24484 8.3338 4.91401C8.3338 3.99835 8.5372 3.13278 8.89136 2.35443C8.70795 2.33641 8.52209 2.3252 8.3338 2.3252C5.11221 2.3252 2.50052 5.02952 2.50052 8.36572V10.7716C2.50052 12.4793 1.77802 14.0913 0.510468 15.201C0.0879517 15.5747 -0.0995787 16.1701 0.0520936 16.7509C0.22879 17.4266 0.873779 17.8581 1.55051 17.8581H15.113C15.823 17.8581 16.4922 17.3817 16.6363 16.6612C16.748 16.1037 16.5563 15.5471 16.1388 15.1838C14.9271 14.1319 14.2263 12.5863 14.1772 10.9538Z" fill="black"/>
<path d="M17.8338 4.91387C17.8338 7.03725 16.1759 8.72847 14.1671 8.72847C12.1583 8.72847 10.5005 7.03726 10.5005 4.91387C10.5005 2.79046 12.1584 1.09912 14.1671 1.09912C16.1759 1.09912 17.8338 2.79047 17.8338 4.91387Z" fill="#F24F4F" stroke="black"/>
</svg>
