<svg width="24" height="17" viewBox="0 0 24 17" fill="none" xmlns="http://www.w3.org/2000/svg">
<g opacity="0.7">
<path d="M8.73538 0.0390625C3.99725 0.0390625 0.15625 2.89834 0.15625 6.42685C0.15625 8.26715 1.20316 9.92509 2.87558 11.0913C2.81246 11.3727 2.56826 12.2176 1.81056 12.9802C1.51203 13.2805 1.31233 13.3082 1.44089 13.5941C1.563 13.8662 3.85264 13.601 5.15255 12.2313C6.24292 12.6048 7.45591 12.8154 8.73538 12.8154C13.473 12.8154 17.315 9.95509 17.315 6.42685C17.315 2.89834 13.4733 0.0390625 8.73538 0.0390625Z" fill="white"/>
<path d="M21.7882 16.0823C21.0303 15.3186 20.7868 14.475 20.7222 14.1931C22.3951 13.0269 23.442 11.3692 23.442 9.52865C23.442 6.76199 21.0794 4.40715 17.7762 3.51855C18.2677 4.42551 18.5396 5.42069 18.5396 6.46475C18.5396 10.6353 14.198 14.0327 8.83984 14.0764C10.3889 15.2136 12.515 15.917 14.8629 15.917C16.1421 15.917 17.3553 15.7066 18.4457 15.3331C19.7456 16.7036 22.0345 16.968 22.1579 16.6959C22.2859 16.4105 22.0865 16.3829 21.7882 16.0823Z" fill="white"/>
</g>
</svg>
