<svg width="22" height="24" viewBox="0 0 22 24" fill="none" xmlns="http://www.w3.org/2000/svg">
<path d="M14.757 5.52053V1.6108C14.757 0.987504 14.295 0.477539 13.7299 0.477539H1.06226C0.497354 0.477539 0.0351562 0.987504 0.0351562 1.6108V2.34741V17.1175V17.6277C0.0351562 18.043 0.257696 18.4397 0.582946 18.6285L8.38894 23.0862C8.73131 23.2751 9.14215 23.0108 9.14215 22.5762V18.2321H13.7299C14.295 18.2321 14.757 17.7223 14.757 17.0988V10.9037H12.7028V15.3989C12.7028 15.72 12.4802 15.9656 12.1892 15.9656H9.15927V10.1482V6.4651V6.35177C9.15927 5.93625 8.93673 5.53961 8.61148 5.35073L4.00663 2.74424H12.1892C12.4802 2.74424 12.7028 2.98978 12.7028 3.31087V5.53961H14.757V5.52053Z" fill="#DB1E1E"/>
<path d="M17.3934 3.6694L20.7315 7.35248C21.1594 7.82467 21.1594 8.52351 20.7315 8.9957L17.3934 12.6788C16.9654 13.151 16.3148 13.17 15.8868 12.6979C15.4761 12.2447 15.5273 11.4891 15.9212 11.0358L17.4275 9.39253H11.5902C11.2994 9.39253 11.0082 9.26032 10.8199 9.01478C10.3406 8.44815 10.4604 7.44711 11.0767 7.06935C11.2308 6.97492 11.4191 6.91825 11.5902 6.91825H17.4276C17.4276 6.91825 15.9385 5.27503 15.9214 5.27503C15.5275 4.84062 15.4761 4.06622 15.887 3.63181C16.2978 3.17851 16.9654 3.19721 17.3934 3.6694Z" fill="#DB1E1E"/>
</svg>
