<svg width="25" height="18" viewBox="0 0 25 18" fill="none" xmlns="http://www.w3.org/2000/svg">
<g opacity="0.7">
<path d="M9.19415 0.506836C4.31699 0.506836 0.363281 3.45002 0.363281 7.08206C0.363281 8.97637 1.44091 10.6829 3.1624 11.8833C3.09743 12.173 2.84607 13.0427 2.06613 13.8277C1.75885 14.1369 1.55328 14.1653 1.68562 14.4596C1.81131 14.7397 4.16814 14.4668 5.50619 13.0568C6.62856 13.4413 7.87714 13.6581 9.19415 13.6581C14.0708 13.6581 18.0256 10.7138 18.0256 7.08206C18.0256 3.45002 14.0711 0.506836 9.19415 0.506836Z" fill="white"/>
<path d="M22.633 17.0212C21.8528 16.2352 21.6022 15.3668 21.5357 15.0766C23.2577 13.8762 24.3353 12.1699 24.3353 10.2753C24.3353 7.42747 21.9034 5.00354 18.5033 4.08887C19.0092 5.02244 19.2891 6.04682 19.2891 7.12152C19.2891 11.4145 14.8201 14.9115 9.30469 14.9565C10.8992 16.1271 13.0877 16.8511 15.5045 16.8511C16.8212 16.8511 18.0701 16.6346 19.1924 16.2501C20.5305 17.6608 22.8865 17.933 23.0135 17.6528C23.1453 17.3591 22.94 17.3306 22.633 17.0212Z" fill="white"/>
</g>
</svg>
