<svg width="24" height="24" viewBox="0 0 24 24" fill="none" xmlns="http://www.w3.org/2000/svg">
<mask id="mask0_818_3153" style="mask-type:alpha" maskUnits="userSpaceOnUse" x="4" y="1" width="17" height="22">
<path d="M10.9191 21.1912C8.65455 20.3445 6.76567 17.4465 5.82076 15.7493C5.41251 15.0162 5.62765 14.1163 6.28267 13.5921C6.63534 13.3101 7.0796 13.168 7.53045 13.193C7.98131 13.2181 8.40712 13.4084 8.72642 13.7277L9.48159 14.4829V8.97245C9.48159 8.65475 9.6078 8.35005 9.83245 8.1254C10.0571 7.90074 10.3618 7.77454 10.6795 7.77454C10.9972 7.77454 11.3019 7.90074 11.5266 8.1254C11.7512 8.35005 11.8774 8.65475 11.8774 8.97245V11.8475C11.8774 11.5297 12.0036 11.2251 12.2283 11.0004C12.4529 10.7757 12.7576 10.6495 13.0753 10.6495C13.393 10.6495 13.6977 10.7757 13.9224 11.0004C14.147 11.2251 14.2733 11.5297 14.2733 11.8475V12.8058C14.2733 12.4881 14.3995 12.1834 14.6241 11.9587C14.8488 11.7341 15.1535 11.6079 15.4712 11.6079C15.7889 11.6079 16.0936 11.7341 16.3182 11.9587C16.5429 12.1834 16.6691 12.4881 16.6691 12.8058V13.7641C16.6691 13.4464 16.7953 13.1417 17.02 12.9171C17.2446 12.6924 17.5493 12.5662 17.867 12.5662C18.1847 12.5662 18.4894 12.6924 18.7141 12.9171C18.9387 13.1417 19.0649 13.4464 19.0649 13.7641V17.5342C19.0649 18.0469 18.9379 18.5539 18.6423 18.9731C18.1521 19.6675 17.2704 20.7283 16.1899 21.1912C14.5128 21.91 13.013 21.9742 10.9191 21.1912Z" fill="#555555" stroke="white" stroke-width="1.91667" stroke-linecap="round" stroke-linejoin="round"/>
<path d="M17.6263 6.33704L15.7096 8.2537L13.793 6.33704" stroke="white" stroke-width="1.91667" stroke-linecap="round" stroke-linejoin="round"/>
<path d="M7.08594 6.81621C7.08656 6.21678 7.21214 5.62405 7.45467 5.07587C7.6972 4.52768 8.05135 4.03608 8.49451 3.63244C8.93768 3.22879 9.46013 2.92197 10.0285 2.73155C10.5969 2.54113 11.1987 2.4713 11.7956 2.52651C12.3925 2.58172 12.9714 2.76076 13.4952 3.05221C14.019 3.34366 14.4763 3.7411 14.8379 4.21919C15.1995 4.69727 15.4575 5.2455 15.5953 5.82887C15.7332 6.41223 15.7479 7.01794 15.6386 7.60732" stroke="white" stroke-width="1.91667" stroke-linecap="round"/>
</mask>
<g mask="url(#mask0_818_3153)">
<path d="M0.378906 0.587036H23.3789V23.587H0.378906V0.587036Z" fill="black"/>
</g>
</svg>
