<svg width="24" height="24" viewBox="0 0 24 24" fill="none" xmlns="http://www.w3.org/2000/svg">
<path d="M8.10007 13.34L10.9301 10.51L3.91007 3.50002C3.16092 4.25133 2.74023 5.26903 2.74023 6.33002C2.74023 7.39101 3.16092 8.40871 3.91007 9.16002L8.10007 13.34ZM14.8801 11.53C16.4101 12.24 18.5601 11.74 20.1501 10.15C22.0601 8.24002 22.4301 5.50002 20.9601 4.03002C19.5001 2.57002 16.7601 2.93002 14.8401 4.84002C13.2501 6.43002 12.7501 8.58002 13.4601 10.11L3.70007 19.87L5.11007 21.28L12.0001 14.41L18.8801 21.29L20.2901 19.88L13.4101 13L14.8801 11.53Z" fill="black"/>
</svg>
