<svg width="24" height="24" viewBox="0 0 24 24" fill="none" xmlns="http://www.w3.org/2000/svg">
<path d="M4.8086 18.5506H6.14982L14.4127 10.2878L13.0715 8.94654L4.8086 17.2094V18.5506ZM18.5082 8.89864L14.4366 4.87499L15.7779 3.53377C16.1451 3.16653 16.5963 2.98291 17.1315 2.98291C17.6661 2.98291 18.117 3.16653 18.4842 3.53377L19.8255 4.87499C20.1927 5.24222 20.3843 5.68546 20.4003 6.20471C20.4162 6.72331 20.2406 7.16623 19.8734 7.53347L18.5082 8.89864ZM3.85059 20.4666C3.57915 20.4666 3.35179 20.3747 3.16849 20.1907C2.98455 20.0074 2.89258 19.7801 2.89258 19.5086V16.8022C2.89258 16.6745 2.91653 16.5509 2.96443 16.4315C3.01233 16.3114 3.08418 16.2035 3.17998 16.1077L13.0475 6.24015L17.1191 10.3117L7.25154 20.1792C7.15574 20.275 7.04812 20.3469 6.92869 20.3948C6.80862 20.4427 6.68471 20.4666 6.55698 20.4666H3.85059ZM13.7421 9.61715L13.0715 8.94654L14.4127 10.2878L13.7421 9.61715Z" fill="black"/>
</svg>
