<svg width="21" height="21" viewBox="0 0 21 21" fill="none" xmlns="http://www.w3.org/2000/svg">
<path d="M11.9099 18.1392L6.38246 12.3858V10.742H9.25917C9.9852 10.742 10.6121 10.5055 11.1397 10.0327C11.6668 9.56034 11.9852 8.97486 12.0948 8.27623H5.56055V6.6324H11.8482C11.6153 6.15294 11.2696 5.75897 10.811 5.45048C10.3518 5.14253 9.83452 4.98856 9.25917 4.98856H5.56055V3.34473H15.4236V4.98856H12.7523C12.9441 5.22144 13.1153 5.47486 13.266 5.74883C13.4167 6.02281 13.5331 6.31733 13.6153 6.6324H15.4236V8.27623H13.7592C13.6496 9.44061 13.1701 10.4165 12.3208 11.2039C11.4715 11.9918 10.451 12.3858 9.25917 12.3858H8.66328L14.1907 18.1392H11.9099Z" fill="black"/>
</svg>
