<svg width="23" height="23" viewBox="0 0 23 23" fill="none" xmlns="http://www.w3.org/2000/svg">
<path d="M13.3576 19.9343L7.09867 13.4194V11.558H10.3561C11.1783 11.558 11.8881 11.2902 12.4856 10.7548C13.0825 10.2199 13.443 9.55695 13.5671 8.76586H6.16797V6.90445H13.2878C13.0241 6.36154 12.6326 5.91542 12.1133 5.5661C11.5933 5.2174 11.0076 5.04305 10.3561 5.04305H6.16797V3.18164H17.3364V5.04305H14.3116C14.5288 5.30675 14.7227 5.59371 14.8933 5.90395C15.0639 6.21418 15.1958 6.54768 15.2889 6.90445H17.3364V8.76586H15.4517C15.3276 10.0844 14.7847 11.1894 13.823 12.081C12.8613 12.9733 11.7056 13.4194 10.3561 13.4194H9.68137L15.9403 19.9343H13.3576Z" fill="black"/>
</svg>
