<svg width="27" height="26" viewBox="0 0 27 26" fill="none" xmlns="http://www.w3.org/2000/svg">
<path d="M6.50794 5.72605L10.6681 9.88623L14.8067 5.74761C14.8981 5.65031 15.0083 5.57247 15.1305 5.51876C15.2527 5.46505 15.3846 5.43658 15.5181 5.43506C15.8039 5.43506 16.078 5.54861 16.2801 5.75073C16.4823 5.95285 16.5958 6.22698 16.5958 6.51282C16.5983 6.64496 16.5738 6.77621 16.5238 6.89854C16.4737 7.02086 16.3992 7.13166 16.3048 7.22415L12.1123 11.3628L16.3048 15.5553C16.4825 15.729 16.5866 15.9644 16.5958 16.2127C16.5958 16.4985 16.4823 16.7727 16.2801 16.9748C16.078 17.1769 15.8039 17.2905 15.5181 17.2905C15.3807 17.2962 15.2437 17.2732 15.1156 17.2231C14.9876 17.173 14.8714 17.0969 14.7744 16.9995L10.6681 12.8393L6.51872 16.9887C6.42766 17.0828 6.31887 17.1578 6.19863 17.2096C6.07839 17.2614 5.94908 17.2889 5.81817 17.2905C5.53233 17.2905 5.2582 17.1769 5.05608 16.9748C4.85396 16.7727 4.74041 16.4985 4.74041 16.2127C4.7379 16.0806 4.76241 15.9493 4.81245 15.827C4.86249 15.7047 4.937 15.5939 5.03141 15.5014L9.22391 11.3628L5.03141 7.17026C4.85377 6.99648 4.74961 6.76115 4.74041 6.51282C4.74041 6.22698 4.85396 5.95285 5.05608 5.75073C5.2582 5.54861 5.53233 5.43506 5.81817 5.43506C6.07684 5.43829 6.32472 5.54284 6.50794 5.72605Z" fill="black"/>
</svg>
