<svg width="24" height="24" viewBox="0 0 24 24" fill="none" xmlns="http://www.w3.org/2000/svg">
<path d="M13.1741 20.2018L6.73145 13.4957V11.5796H10.0845C10.9307 11.5796 11.6614 11.304 12.2764 10.7529C12.8908 10.2023 13.2619 9.51991 13.3896 8.7056H5.77344V6.78957H13.1022C12.8308 6.23073 12.4278 5.77152 11.8932 5.41195C11.358 5.05301 10.7551 4.87355 10.0845 4.87355H5.77344V2.95752H17.2696V4.87355H14.156C14.3796 5.14498 14.5792 5.44037 14.7548 5.75971C14.9304 6.07905 15.0662 6.42233 15.162 6.78957H17.2696V8.7056H15.3296C15.2019 10.0628 14.643 11.2003 13.6531 12.118C12.6631 13.0365 11.4736 13.4957 10.0845 13.4957H9.38994L15.8326 20.2018H13.1741Z" fill="black"/>
</svg>
