<svg width="20" height="20" viewBox="0 0 20 20" fill="none" xmlns="http://www.w3.org/2000/svg">
<path d="M11.5238 16.9621L6.15396 11.3727V9.77574H8.94866C9.65399 9.77574 10.263 9.54604 10.7756 9.08664C11.2877 8.62778 11.597 8.05899 11.7034 7.38028H5.35547V5.7833H11.4639C11.2377 5.31752 10.9018 4.93478 10.4562 4.63508C10.0101 4.33591 9.5076 4.18633 8.94866 4.18633H5.35547V2.58936H14.9373V4.18633H12.3422C12.5285 4.41257 12.6949 4.65877 12.8413 4.92493C12.9877 5.19109 13.1008 5.47722 13.1806 5.7833H14.9373V7.38028H13.3204C13.2139 8.51147 12.7481 9.45954 11.923 10.2245C11.0979 10.99 10.1065 11.3727 8.94866 11.3727H8.36976L13.7396 16.9621H11.5238Z" fill="black"/>
</svg>
