<svg width="19" height="19" viewBox="0 0 19 19" fill="none" xmlns="http://www.w3.org/2000/svg">
<path d="M4.33038 14.6472H5.36281L11.7233 8.28666L10.6909 7.25422L4.33038 13.6148V14.6472ZM14.876 7.21735L11.7418 4.12004L12.7742 3.08761C13.0569 2.80492 13.4043 2.66357 13.8162 2.66357C14.2277 2.66357 14.5748 2.80492 14.8575 3.08761L15.89 4.12004C16.1726 4.40274 16.3201 4.74393 16.3324 5.14363C16.3447 5.54284 16.2095 5.88379 15.9268 6.16648L14.876 7.21735ZM3.59292 16.1221C3.38398 16.1221 3.20895 16.0513 3.06786 15.9097C2.92626 15.7686 2.85547 15.5936 2.85547 15.3846V13.3013C2.85547 13.203 2.87391 13.1079 2.91078 13.0159C2.94765 12.9235 3.00296 12.8404 3.0767 12.7667L10.6725 5.17092L13.8067 8.30509L6.21088 15.9009C6.13714 15.9746 6.0543 16.0299 5.96236 16.0668C5.86993 16.1037 5.77456 16.1221 5.67623 16.1221H3.59292ZM11.2071 7.77044L10.6909 7.25422L11.7233 8.28666L11.2071 7.77044Z" fill="black"/>
</svg>
