<svg width="20" height="20" viewBox="0 0 20 20" fill="none" xmlns="http://www.w3.org/2000/svg">
<path d="M11.1058 17.5666L5.73599 11.9772V10.3802H8.53069C9.23602 10.3802 9.845 10.1505 10.3576 9.69113C10.8697 9.23227 11.179 8.66348 11.2855 7.98477H4.9375V6.38779H11.0459C10.8197 5.92201 10.4838 5.53927 10.0382 5.23957C9.59214 4.9404 9.08963 4.79082 8.53069 4.79082H4.9375V3.19385H14.5193V4.79082H11.9243C12.1106 5.01706 12.2769 5.26326 12.4233 5.52942C12.5697 5.79558 12.6828 6.08171 12.7627 6.38779H14.5193V7.98477H12.9024C12.7959 9.11596 12.3302 10.064 11.5051 10.829C10.68 11.5945 9.6885 11.9772 8.53069 11.9772H7.95179L13.3216 17.5666H11.1058Z" fill="black"/>
</svg>
