<svg width="23" height="23" viewBox="0 0 23 23" fill="none" xmlns="http://www.w3.org/2000/svg">
<path d="M4.79305 18.2675H6.09603L14.1233 10.2402L12.8204 8.93718L4.79305 16.9645V18.2675ZM18.1021 8.89064L14.1466 4.98169L15.4496 3.67871C15.8064 3.32194 16.2447 3.14355 16.7647 3.14355C17.284 3.14355 17.7221 3.32194 18.0788 3.67871L19.3818 4.98169C19.7386 5.33846 19.9247 5.76907 19.9402 6.27351C19.9557 6.77733 19.7851 7.20762 19.4283 7.56439L18.1021 8.89064ZM3.86234 20.1289C3.59864 20.1289 3.37776 20.0395 3.19968 19.8608C3.02099 19.6828 2.93164 19.4619 2.93164 19.1982V16.5689C2.93164 16.4448 2.95491 16.3248 3.00144 16.2088C3.04798 16.0921 3.11778 15.9873 3.21085 15.8942L12.7971 6.30794L16.7526 10.2634L7.16634 19.8497C7.07327 19.9427 6.96872 20.0125 6.85269 20.0591C6.73604 20.1056 6.61567 20.1289 6.49158 20.1289H3.86234ZM13.4718 9.58867L12.8204 8.93718L14.1233 10.2402L13.4718 9.58867Z" fill="black"/>
</svg>
