<svg width="23" height="23" viewBox="0 0 23 23" fill="none" xmlns="http://www.w3.org/2000/svg">
<path d="M6.68476 16.4371H15.9918V14.5757H6.68476V16.4371ZM11.3383 13.645L15.0611 9.92218L13.7581 8.6192L12.269 10.0618V6.19937H10.4076V10.0618L8.91845 8.6192L7.61547 9.92218L11.3383 13.645ZM11.3383 21.0906C10.0508 21.0906 8.84089 20.8462 7.70854 20.3572C6.57618 19.8689 5.59119 19.2059 4.75356 18.3683C3.91592 17.5307 3.25295 16.5457 2.76464 15.4133C2.27571 14.281 2.03125 13.0711 2.03125 11.7836C2.03125 10.4961 2.27571 9.2862 2.76464 8.15385C3.25295 7.02149 3.91592 6.0365 4.75356 5.19887C5.59119 4.36124 6.57618 3.69795 7.70854 3.20903C8.84089 2.72072 10.0508 2.47656 11.3383 2.47656C12.6257 2.47656 13.8357 2.72072 14.968 3.20903C16.1004 3.69795 17.0854 4.36124 17.923 5.19887C18.7606 6.0365 19.4236 7.02149 19.9119 8.15385C20.4008 9.2862 20.6453 10.4961 20.6453 11.7836C20.6453 13.0711 20.4008 14.281 19.9119 15.4133C19.4236 16.5457 18.7606 17.5307 17.923 18.3683C17.0854 19.2059 16.1004 19.8689 14.968 20.3572C13.8357 20.8462 12.6257 21.0906 11.3383 21.0906Z" fill="black"/>
</svg>
