<svg width="18" height="18" viewBox="0 0 18 18" fill="none" xmlns="http://www.w3.org/2000/svg">
<path d="M10.495 15.0834L5.75723 10.1518V8.74285H8.22299C8.8453 8.74285 9.3826 8.54019 9.83488 8.13486C10.2867 7.73001 10.5596 7.22817 10.6535 6.62935H5.05273V5.22035H10.4422C10.2426 4.80939 9.9462 4.4717 9.55308 4.20727C9.1595 3.94332 8.71614 3.81134 8.22299 3.81134H5.05273V2.40234H13.5067V3.81134H11.2171C11.3815 4.01095 11.5283 4.22817 11.6574 4.46301C11.7866 4.69784 11.8864 4.95029 11.9568 5.22035H13.5067V6.62935H12.0801C11.9862 7.62739 11.5752 8.46387 10.8473 9.13878C10.1193 9.81416 9.24451 10.1518 8.22299 10.1518H7.71222L12.45 15.0834H10.495Z" fill="black"/>
</svg>
