<svg width="24" height="24" viewBox="0 0 24 24" fill="none" xmlns="http://www.w3.org/2000/svg">
<path d="M5.4336 18.283H6.77482L15.0377 10.0202L13.6965 8.67896L5.4336 16.9418V18.283ZM19.1332 8.63106L15.0616 4.60741L16.4029 3.26619C16.7701 2.89895 17.2213 2.71533 17.7565 2.71533C18.2911 2.71533 18.742 2.89895 19.1092 3.26619L20.4505 4.60741C20.8177 4.97465 21.0093 5.41789 21.0253 5.93713C21.0412 6.45573 20.8656 6.89866 20.4984 7.26589L19.1332 8.63106ZM4.47559 20.1991C4.20415 20.1991 3.97679 20.1071 3.79349 19.9232C3.60955 19.7399 3.51758 19.5125 3.51758 19.2411V16.5347C3.51758 16.4069 3.54153 16.2833 3.58943 16.1639C3.63733 16.0438 3.70918 15.9359 3.80498 15.8401L13.6725 5.97258L17.7441 10.0441L7.87654 19.9117C7.78074 20.0075 7.67312 20.0793 7.55369 20.1272C7.43362 20.1751 7.30971 20.1991 7.18198 20.1991H4.47559ZM14.3671 9.34957L13.6965 8.67896L15.0377 10.0202L14.3671 9.34957Z" fill="black"/>
</svg>
