<svg width="24" height="24" viewBox="0 0 24 24" fill="none" xmlns="http://www.w3.org/2000/svg">
<path d="M5.57032 19.1536H6.91154L15.1744 10.8908L13.8332 9.54957L5.57032 17.8124V19.1536ZM19.2699 9.50167L15.1984 5.47801L16.5396 4.13679C16.9068 3.76956 17.358 3.58594 17.8932 3.58594C18.4278 3.58594 18.8787 3.76956 19.246 4.13679L20.5872 5.47801C20.9544 5.84525 21.146 6.28849 21.162 6.80773C21.1779 7.32634 21.0023 7.76926 20.6351 8.1365L19.2699 9.50167ZM4.61231 21.0697C4.34087 21.0697 4.1135 20.9777 3.9302 20.7938C3.74627 20.6105 3.6543 20.3831 3.6543 20.1117V17.4053C3.6543 17.2775 3.67825 17.154 3.72615 17.0345C3.77405 16.9145 3.8459 16.8065 3.9417 16.7107L13.8092 6.84318L17.8808 10.9147L8.01326 20.7823C7.91745 20.8781 7.80984 20.9499 7.69041 20.9978C7.57033 21.0457 7.44643 21.0697 7.3187 21.0697H4.61231ZM14.5038 10.2202L13.8332 9.54957L15.1744 10.8908L14.5038 10.2202Z" fill="black"/>
</svg>
