<svg width="24" height="24" viewBox="0 0 24 24" fill="none" xmlns="http://www.w3.org/2000/svg">
<path d="M13.176 20.6446L6.7334 13.9385V12.0225H10.0864C10.9327 12.0225 11.6633 11.7469 12.2784 11.1957C12.8928 10.6452 13.2639 9.96278 13.3916 9.14847H5.77539V7.23244H13.1042C12.8328 6.6736 12.4297 6.21439 11.8952 5.85482C11.36 5.49588 10.7571 5.31642 10.0864 5.31642H5.77539V3.40039H17.2715V5.31642H14.158C14.3815 5.58785 14.5811 5.88324 14.7568 6.20258C14.9324 6.52192 15.0681 6.8652 15.1639 7.23244H17.2715V9.14847H15.3316C15.2038 10.5057 14.645 11.6431 13.655 12.5609C12.6651 13.4793 11.4756 13.9385 10.0864 13.9385H9.39189L15.8345 20.6446H13.176Z" fill="black"/>
</svg>
