<svg width="24" height="24" viewBox="0 0 24 24" fill="none" xmlns="http://www.w3.org/2000/svg">
<path d="M7.03225 16.5802H16.6124V14.6641H7.03225V16.5802ZM11.8223 13.7061L15.6544 9.87406L14.3132 8.53285L12.7803 10.0178V6.04201H10.8643V10.0178L9.33148 8.53285L7.99026 9.87406L11.8223 13.7061ZM11.8223 21.3702C10.4971 21.3702 9.25165 21.1186 8.08607 20.6153C6.92048 20.1127 5.90659 19.4302 5.04438 18.568C4.18216 17.7058 3.49974 16.6919 2.9971 15.5263C2.49383 14.3608 2.24219 13.1153 2.24219 11.7901C2.24219 10.4648 2.49383 9.21942 2.9971 8.05384C3.49974 6.88826 4.18216 5.87436 5.04438 5.01215C5.90659 4.14994 6.92048 3.46719 8.08607 2.96392C9.25165 2.46128 10.4971 2.20996 11.8223 2.20996C13.1476 2.20996 14.393 2.46128 15.5586 2.96392C16.7241 3.46719 17.738 4.14994 18.6003 5.01215C19.4625 5.87436 20.1449 6.88826 20.6475 8.05384C21.1508 9.21942 21.4024 10.4648 21.4024 11.7901C21.4024 13.1153 21.1508 14.3608 20.6475 15.5263C20.1449 16.6919 19.4625 17.7058 18.6003 18.568C17.738 19.4302 16.7241 20.1127 15.5586 20.6153C14.393 21.1186 13.1476 21.3702 11.8223 21.3702Z" fill="black"/>
</svg>
