<svg width="20" height="20" viewBox="0 0 20 20" fill="none" xmlns="http://www.w3.org/2000/svg">
<path d="M11.5238 17.0983L6.15396 11.5089V9.91197H8.94866C9.65399 9.91197 10.263 9.68227 10.7756 9.22287C11.2877 8.76401 11.597 8.19522 11.7034 7.51651H5.35547V5.91953H11.4639C11.2377 5.45375 10.9018 5.07101 10.4562 4.77131C10.0101 4.47214 9.5076 4.32256 8.94866 4.32256H5.35547V2.72559H14.9373V4.32256H12.3422C12.5285 4.5488 12.6949 4.795 12.8413 5.06116C12.9877 5.32732 13.1008 5.61345 13.1806 5.91953H14.9373V7.51651H13.3204C13.2139 8.6477 12.7481 9.59577 11.923 10.3607C11.0979 11.1262 10.1065 11.5089 8.94866 11.5089H8.36976L13.7396 17.0983H11.5238Z" fill="black"/>
</svg>
