<svg width="24" height="24" viewBox="0 0 24 24" fill="none" xmlns="http://www.w3.org/2000/svg">
<path d="M4.8086 18.8602H6.14982L14.4127 10.5973L13.0715 9.25611L4.8086 17.519V18.8602ZM18.5082 9.20821L14.4366 5.18456L15.7779 3.84334C16.1451 3.4761 16.5963 3.29248 17.1315 3.29248C17.6661 3.29248 18.117 3.4761 18.4842 3.84334L19.8255 5.18456C20.1927 5.55179 20.3843 5.99503 20.4003 6.51428C20.4162 7.03288 20.2406 7.4758 19.8734 7.84304L18.5082 9.20821ZM3.85059 20.7762C3.57915 20.7762 3.35179 20.6842 3.16849 20.5003C2.98455 20.317 2.89258 20.0896 2.89258 19.8182V17.1118C2.89258 16.9841 2.91653 16.8605 2.96443 16.7411C3.01233 16.621 3.08418 16.5131 3.17998 16.4173L13.0475 6.54972L17.1191 10.6213L7.25154 20.4888C7.15574 20.5846 7.04812 20.6565 6.92869 20.7044C6.80862 20.7523 6.68471 20.7762 6.55698 20.7762H3.85059ZM13.7421 9.92672L13.0715 9.25611L14.4127 10.5973L13.7421 9.92672Z" fill="black"/>
</svg>
