<svg width="24" height="24" viewBox="0 0 24 24" fill="none" xmlns="http://www.w3.org/2000/svg">
<path d="M13.8167 20.8018L7.37403 14.0958V12.1797H10.7271C11.5733 12.1797 12.304 11.9041 12.919 11.353C13.5334 10.8024 13.9045 10.12 14.0322 9.30569H6.41602V7.38967H13.7448C13.4734 6.83083 13.0704 6.37162 12.5358 6.01205C12.0006 5.65311 11.3977 5.47364 10.7271 5.47364H6.41602V3.55762H17.9122V5.47364H14.7986C15.0222 5.74508 15.2218 6.04047 15.3974 6.35981C15.573 6.67914 15.7087 7.02243 15.8045 7.38967H17.9122V9.30569H15.9722C15.8445 10.6629 15.2856 11.8004 14.2957 12.7181C13.3057 13.6366 12.1162 14.0958 10.7271 14.0958H10.0325L16.4752 20.8018H13.8167Z" fill="black"/>
</svg>
