<svg width="24" height="23" viewBox="0 0 24 23" fill="none" xmlns="http://www.w3.org/2000/svg">
<path d="M7.25117 15.9049H16.5582V14.0435H7.25117V15.9049ZM11.9047 13.1128L15.6275 9.38996L14.3245 8.08697L12.8354 9.52956V5.66715H10.974V9.52956L9.48486 8.08697L8.18187 9.38996L11.9047 13.1128ZM11.9047 20.5584C10.6172 20.5584 9.4073 20.3139 8.27494 19.825C7.14259 19.3367 6.15759 18.6737 5.31996 17.8361C4.48233 16.9985 3.81936 16.0135 3.33105 14.8811C2.84212 13.7487 2.59766 12.5388 2.59766 11.2514C2.59766 9.96389 2.84212 8.75398 3.33105 7.62162C3.81936 6.48927 4.48233 5.50427 5.31996 4.66664C6.15759 3.82901 7.14259 3.16573 8.27494 2.6768C9.4073 2.18849 10.6172 1.94434 11.9047 1.94434C13.1922 1.94434 14.4021 2.18849 15.5344 2.6768C16.6668 3.16573 17.6518 3.82901 18.4894 4.66664C19.327 5.50427 19.99 6.48927 20.4783 7.62162C20.9672 8.75398 21.2117 9.96389 21.2117 11.2514C21.2117 12.5388 20.9672 13.7487 20.4783 14.8811C19.99 16.0135 19.327 16.9985 18.4894 17.8361C17.6518 18.6737 16.6668 19.3367 15.5344 19.825C14.4021 20.3139 13.1922 20.5584 11.9047 20.5584Z" fill="black"/>
</svg>
