<svg width="24" height="24" viewBox="0 0 24 24" fill="none" xmlns="http://www.w3.org/2000/svg">
<path d="M13.8167 20.6954L7.37403 13.9893V12.0733H10.7271C11.5733 12.0733 12.304 11.7977 12.919 11.2465C13.5334 10.696 13.9045 10.0136 14.0322 9.19925H6.41602V7.28322H13.7448C13.4734 6.72438 13.0704 6.26517 12.5358 5.9056C12.0006 5.54667 11.3977 5.3672 10.7271 5.3672H6.41602V3.45117H17.9122V5.3672H14.7986C15.0222 5.63863 15.2218 5.93402 15.3974 6.25336C15.573 6.5727 15.7087 6.91599 15.8045 7.28322H17.9122V9.19925H15.9722C15.8445 10.5564 15.2856 11.6939 14.2957 12.6117C13.3057 13.5301 12.1162 13.9893 10.7271 13.9893H10.0325L16.4752 20.6954H13.8167Z" fill="black"/>
</svg>
