<svg width="24" height="24" viewBox="0 0 24 24" fill="none" xmlns="http://www.w3.org/2000/svg">
<path d="M13.176 20.3126L6.7334 13.6065V11.6905H10.0864C10.9327 11.6905 11.6633 11.4149 12.2784 10.8637C12.8928 10.3132 13.2639 9.63075 13.3916 8.81644H5.77539V6.90041H13.1042C12.8328 6.34157 12.4297 5.88236 11.8952 5.52279C11.36 5.16385 10.7571 4.98439 10.0864 4.98439H5.77539V3.06836H17.2715V4.98439H14.158C14.3815 5.25582 14.5811 5.55121 14.7568 5.87055C14.9324 6.18988 15.0681 6.53317 15.1639 6.90041H17.2715V8.81644H15.3316C15.2038 10.1736 14.645 11.3111 13.655 12.2289C12.6651 13.1473 11.4756 13.6065 10.0864 13.6065H9.39189L15.8345 20.3126H13.176Z" fill="black"/>
</svg>
