<svg width="21" height="21" viewBox="0 0 21 21" fill="none" xmlns="http://www.w3.org/2000/svg">
<path d="M11.9118 18.1529L6.38442 12.3995V10.7557H9.26113C9.98715 10.7557 10.614 10.5192 11.1417 10.0463C11.6688 9.57401 11.9872 8.98853 12.0967 8.2899H5.5625V6.64607H11.8502C11.6173 6.16662 11.2715 5.77264 10.8129 5.46415C10.3537 5.15621 9.83647 5.00223 9.26113 5.00223H5.5625V3.3584H15.4255V5.00223H12.7543C12.9461 5.23511 13.1173 5.48853 13.268 5.76251C13.4187 6.03648 13.5351 6.331 13.6173 6.64607H15.4255V8.2899H13.7611C13.6515 9.45429 13.1721 10.4302 12.3228 11.2176C11.4735 12.0055 10.4529 12.3995 9.26113 12.3995H8.66524L14.1926 18.1529H11.9118Z" fill="black"/>
</svg>
