<svg width="24" height="24" viewBox="0 0 24 24" fill="none" xmlns="http://www.w3.org/2000/svg">
<path d="M7.40335 16.9962H16.9835V15.0801H7.40335V16.9962ZM12.1934 14.1221L16.0255 10.2901L14.6842 8.94886L13.1514 10.4338V6.45803H11.2354V10.4338L9.70258 8.94886L8.36136 10.2901L12.1934 14.1221ZM12.1934 21.7862C10.8682 21.7862 9.62274 21.5346 8.45716 21.0313C7.29158 20.5287 6.27768 19.8463 5.41547 18.984C4.55326 18.1218 3.87083 17.1079 3.3682 15.9424C2.86492 14.7768 2.61328 13.5314 2.61328 12.2061C2.61328 10.8809 2.86492 9.63544 3.3682 8.46986C3.87083 7.30427 4.55326 6.29038 5.41547 5.42816C6.27768 4.56595 7.29158 3.88321 8.45716 3.37993C9.62274 2.8773 10.8682 2.62598 12.1934 2.62598C13.5187 2.62598 14.7641 2.8773 15.9297 3.37993C17.0952 3.88321 18.1091 4.56595 18.9714 5.42816C19.8336 6.29038 20.516 7.30427 21.0186 8.46986C21.5219 9.63544 21.7735 10.8809 21.7735 12.2061C21.7735 13.5314 21.5219 14.7768 21.0186 15.9424C20.516 17.1079 19.8336 18.1218 18.9714 18.984C18.1091 19.8463 17.0952 20.5287 15.9297 21.0313C14.7641 21.5346 13.5187 21.7862 12.1934 21.7862Z" fill="black"/>
</svg>
