<svg width="20" height="20" viewBox="0 0 20 20" fill="none" xmlns="http://www.w3.org/2000/svg">
<path d="M11.5238 17.03L6.15396 11.4406V9.84361H8.94866C9.65399 9.84361 10.263 9.61391 10.7756 9.15451C11.2877 8.69565 11.597 8.12686 11.7034 7.44815H5.35547V5.85117H11.4639C11.2377 5.38539 10.9018 5.00265 10.4562 4.70295C10.0101 4.40378 9.5076 4.2542 8.94866 4.2542H5.35547V2.65723H14.9373V4.2542H12.3422C12.5285 4.48044 12.6949 4.72664 12.8413 4.9928C12.9877 5.25896 13.1008 5.54509 13.1806 5.85117H14.9373V7.44815H13.3204C13.2139 8.57934 12.7481 9.52741 11.923 10.2924C11.0979 11.0578 10.1065 11.4406 8.94866 11.4406H8.36976L13.7396 17.03H11.5238Z" fill="black"/>
</svg>
