<svg width="24" height="24" viewBox="0 0 24 24" fill="none" xmlns="http://www.w3.org/2000/svg">
<path d="M5.05665 18.9115H6.39787L14.6607 10.6486L13.3195 9.30738L5.05665 17.5702V18.9115ZM18.7562 9.25948L14.6847 5.23583L16.0259 3.89461C16.3931 3.52737 16.8444 3.34375 17.3796 3.34375C17.9141 3.34375 18.365 3.52737 18.7323 3.89461L20.0735 5.23583C20.4407 5.60306 20.6323 6.0463 20.6483 6.56555C20.6643 7.08415 20.4886 7.52707 20.1214 7.89431L18.7562 9.25948ZM4.09864 20.8275C3.8272 20.8275 3.59983 20.7355 3.41653 20.5516C3.23259 20.3683 3.14062 20.1409 3.14062 19.8695V17.1631C3.14062 17.0354 3.16458 16.9118 3.21248 16.7923C3.26038 16.6723 3.33223 16.5643 3.42803 16.4685L13.2956 6.60099L17.3671 10.6725L7.49958 20.5401C7.40378 20.6359 7.29617 20.7077 7.17673 20.7556C7.05666 20.8035 6.93276 20.8275 6.80502 20.8275H4.09864ZM13.9901 9.97799L13.3195 9.30738L14.6607 10.6486L13.9901 9.97799Z" fill="white"/>
</svg>
