<svg width="21" height="21" viewBox="0 0 21 21" fill="none" xmlns="http://www.w3.org/2000/svg">
<path d="M11.9099 18.1793L6.38246 12.4259V10.782H9.25917C9.9852 10.782 10.6121 10.5456 11.1397 10.0727C11.6668 9.60038 11.9852 9.0149 12.0948 8.31627H5.56055V6.67243H11.8482C11.6153 6.19298 11.2696 5.79901 10.811 5.49052C10.3518 5.18257 9.83452 5.0286 9.25917 5.0286H5.56055V3.38477H15.4236V5.0286H12.7523C12.9441 5.26148 13.1153 5.5149 13.266 5.78887C13.4167 6.06285 13.5331 6.35737 13.6153 6.67243H15.4236V8.31627H13.7592C13.6496 9.48065 13.1701 10.4565 12.3208 11.2439C11.4715 12.0319 10.451 12.4259 9.25917 12.4259H8.66328L14.1907 18.1793H11.9099Z" fill="black"/>
</svg>
