<svg width="17" height="17" viewBox="0 0 17 17" fill="none" xmlns="http://www.w3.org/2000/svg">
<g clip-path="url(#clip0_852_8581)">
<path fill-rule="evenodd" clip-rule="evenodd" d="M8.42776 2.04492V6.19631C8.42777 6.43446 8.51649 6.66407 8.6766 6.84036C8.83672 7.01666 9.05675 7.12699 9.29381 7.14985L9.38578 7.15432H13.5372V13.5411C13.5373 13.8633 13.4156 14.1737 13.1964 14.41C12.9773 14.6463 12.677 14.7911 12.3556 14.8152L12.2598 14.8184H4.59571C4.27345 14.8185 3.96306 14.6968 3.72676 14.4777C3.49046 14.2586 3.34572 13.9582 3.32155 13.6369L3.31836 13.5411V3.32227C3.31826 3.00001 3.43997 2.68962 3.65909 2.45332C3.87821 2.21703 4.17856 2.07228 4.49991 2.04812L4.59571 2.04492H8.42776ZM7.75077 8.76698C7.6361 8.65122 7.48152 8.58366 7.31867 8.57813C7.15582 8.57261 6.99702 8.62953 6.87477 8.73726C6.75252 8.84498 6.67607 8.99536 6.66106 9.15761C6.64605 9.31986 6.69362 9.48171 6.79403 9.61003L6.84704 9.67007L7.52404 10.3477L6.84704 11.0247C6.73128 11.1394 6.66372 11.2939 6.6582 11.4568C6.65267 11.6196 6.7096 11.7784 6.81732 11.9007C6.92505 12.0229 7.07542 12.0994 7.23767 12.1144C7.39992 12.1294 7.56177 12.0818 7.69009 11.9814L7.75013 11.9284L8.42776 11.2514L9.10476 11.9284C9.21943 12.0442 9.374 12.1117 9.53685 12.1173C9.6997 12.1228 9.8585 12.0659 9.98075 11.9581C10.103 11.8504 10.1795 11.7 10.1945 11.5378C10.2095 11.3755 10.1619 11.2137 10.0615 11.0854L10.0085 11.0253L9.33149 10.3483L10.0085 9.67007C10.123 9.55513 10.1895 9.40091 10.1945 9.23872C10.1994 9.07652 10.1425 8.91853 10.0351 8.79682C9.92783 8.67511 9.77821 8.59881 9.61667 8.58342C9.45514 8.56804 9.2938 8.61471 9.16543 8.71397L9.1054 8.76698L8.42776 9.44397L7.75077 8.76698ZM9.70511 2.07238C9.91165 2.11623 10.1041 2.21059 10.2652 2.34702L10.3438 2.41919L13.1629 5.2383C13.3125 5.38782 13.4227 5.57217 13.4835 5.77479L13.5091 5.87697H9.70511V2.07238Z" fill="black"/>
</g>
<defs>
<clipPath id="clip0_852_8581">
<rect width="15.3282" height="15.3282" fill="white" transform="translate(0.761719 0.767578)"/>
</clipPath>
</defs>
</svg>
