<svg width="17" height="17" viewBox="0 0 17 17" fill="none" xmlns="http://www.w3.org/2000/svg">
<g clip-path="url(#clip0_818_3130)">
<path fill-rule="evenodd" clip-rule="evenodd" d="M8.74349 2.16235V6.49569C8.7435 6.74428 8.8361 6.98395 9.00324 7.16797C9.17037 7.35198 9.40005 7.46716 9.64749 7.49102L9.74349 7.49569H14.0768V14.1624C14.0769 14.4987 13.9499 14.8227 13.7212 15.0694C13.4924 15.316 13.1789 15.4671 12.8435 15.4924L12.7435 15.4957H4.74349C4.40711 15.4958 4.08311 15.3687 3.83646 15.14C3.5898 14.9113 3.43872 14.5978 3.41349 14.2624L3.41016 14.1624V3.49569C3.41005 3.1593 3.53709 2.83531 3.76582 2.58865C3.99455 2.342 4.30805 2.19092 4.64349 2.16569L4.74349 2.16235H8.74349ZM8.03682 9.17902C7.91713 9.05818 7.75578 8.98766 7.58579 8.9819C7.41581 8.97613 7.25005 9.03555 7.12244 9.148C6.99483 9.26044 6.91502 9.41741 6.89935 9.58677C6.88369 9.75613 6.93334 9.92507 7.03816 10.059L7.09349 10.1217L7.80016 10.829L7.09349 11.5357C6.97265 11.6554 6.90213 11.8167 6.89637 11.9867C6.8906 12.1567 6.95002 12.3225 7.06247 12.4501C7.17491 12.5777 7.33188 12.6575 7.50124 12.6732C7.6706 12.6888 7.83954 12.6392 7.97349 12.5344L8.03616 12.479L8.74349 11.7724L9.45016 12.479C9.56985 12.5999 9.7312 12.6704 9.90119 12.6761C10.0712 12.6819 10.2369 12.6225 10.3645 12.51C10.4922 12.3976 10.572 12.2406 10.5876 12.0713C10.6033 11.9019 10.5536 11.733 10.4488 11.599L10.3935 11.5364L9.68682 10.8297L10.3935 10.1217C10.5131 10.0017 10.5825 9.84073 10.5876 9.67143C10.5928 9.50213 10.5333 9.33721 10.4213 9.21017C10.3093 9.08312 10.1531 9.00348 9.98451 8.98742C9.81589 8.97136 9.64748 9.02008 9.51349 9.12369L9.45082 9.17902L8.74349 9.88569L8.03682 9.17902ZM10.0768 2.19102C10.2924 2.23679 10.4933 2.33528 10.6615 2.47769L10.7435 2.55302L13.6862 5.49569C13.8424 5.65176 13.9574 5.84419 14.0208 6.05569L14.0475 6.16235H10.0768V2.19102Z" fill="black"/>
</g>
<defs>
<clipPath id="clip0_818_3130">
<rect width="16" height="16" fill="white" transform="translate(0.742188 0.828979)"/>
</clipPath>
</defs>
</svg>
