<svg width="16" height="17" viewBox="0 0 16 17" fill="none" xmlns="http://www.w3.org/2000/svg">
<g clip-path="url(#clip0_852_8576)">
<path fill-rule="evenodd" clip-rule="evenodd" d="M8.3262 2.04492V6.19631C8.32621 6.43446 8.41492 6.66407 8.57504 6.84036C8.73515 7.01666 8.95519 7.12699 9.19224 7.14985L9.28421 7.15432H13.4356V13.5411C13.4357 13.8633 13.314 14.1737 13.0949 14.41C12.8757 14.6463 12.5754 14.7911 12.2541 14.8152L12.1583 14.8184H4.49415C4.17189 14.8185 3.8615 14.6968 3.6252 14.4777C3.3889 14.2586 3.24416 13.9582 3.21999 13.6369L3.2168 13.5411V3.32227C3.21669 3.00001 3.3384 2.68962 3.55753 2.45332C3.77665 2.21703 4.07699 2.07228 4.39835 2.04812L4.49415 2.04492H8.3262ZM7.6492 8.76698C7.53453 8.65122 7.37996 8.58366 7.21711 8.57813C7.05426 8.57261 6.89546 8.62953 6.77321 8.73726C6.65096 8.84498 6.5745 8.99536 6.55949 9.15761C6.54448 9.31986 6.59205 9.48171 6.69247 9.61003L6.74548 9.67007L7.42247 10.3477L6.74548 11.0247C6.62972 11.1394 6.56216 11.2939 6.55663 11.4568C6.55111 11.6196 6.60803 11.7784 6.71576 11.9007C6.82348 12.0229 6.97386 12.0994 7.13611 12.1144C7.29836 12.1294 7.46021 12.0818 7.58853 11.9814L7.64857 11.9284L8.3262 11.2514L9.0032 11.9284C9.11786 12.0442 9.27244 12.1117 9.43529 12.1173C9.59814 12.1228 9.75694 12.0659 9.87919 11.9581C10.0014 11.8504 10.0779 11.7 10.0929 11.5378C10.1079 11.3755 10.0603 11.2137 9.95993 11.0854L9.90692 11.0253L9.22993 10.3483L9.90692 9.67007C10.0215 9.55513 10.088 9.40091 10.0929 9.23872C10.0979 9.07652 10.0409 8.91853 9.93359 8.79682C9.82627 8.67511 9.67665 8.59881 9.51511 8.58342C9.35357 8.56804 9.19224 8.61471 9.06387 8.71397L9.00383 8.76698L8.3262 9.44397L7.6492 8.76698ZM9.60355 2.07238C9.81008 2.11623 10.0025 2.21059 10.1637 2.34702L10.2422 2.41919L13.0613 5.2383C13.211 5.38782 13.3212 5.57217 13.382 5.77479L13.4075 5.87697H9.60355V2.07238Z" fill="black"/>
</g>
<defs>
<clipPath id="clip0_852_8576">
<rect width="15.3282" height="15.3282" fill="white" transform="translate(0.662109 0.767578)"/>
</clipPath>
</defs>
</svg>
