<svg width="25" height="25" viewBox="0 0 25 25" fill="none" xmlns="http://www.w3.org/2000/svg">
<path d="M6.83439 10.2759C6.30074 10.2759 5.78895 10.4879 5.4116 10.8652C5.03426 11.2426 4.82227 11.7544 4.82227 12.288C4.82227 12.8217 5.03426 13.3334 5.4116 13.7108C5.78895 14.0881 6.30074 14.3001 6.83439 14.3001C7.36804 14.3001 7.87983 14.0881 8.25718 13.7108C8.63453 13.3334 8.84652 12.8217 8.84652 12.288C8.84652 11.7544 8.63453 11.2426 8.25718 10.8652C7.87983 10.4879 7.36804 10.2759 6.83439 10.2759ZM12.8708 10.2759C12.3371 10.2759 11.8253 10.4879 11.448 10.8652C11.0706 11.2426 10.8586 11.7544 10.8586 12.288C10.8586 12.8217 11.0706 13.3334 11.448 13.7108C11.8253 14.0881 12.3371 14.3001 12.8708 14.3001C13.4044 14.3001 13.9162 14.0881 14.2936 13.7108C14.6709 13.3334 14.8829 12.8217 14.8829 12.288C14.8829 11.7544 14.6709 11.2426 14.2936 10.8652C13.9162 10.4879 13.4044 10.2759 12.8708 10.2759ZM18.9072 10.2759C18.3735 10.2759 17.8617 10.4879 17.4844 10.8652C17.107 11.2426 16.895 11.7544 16.895 12.288C16.895 12.8217 17.107 13.3334 17.4844 13.7108C17.8617 14.0881 18.3735 14.3001 18.9072 14.3001C19.4408 14.3001 19.9526 14.0881 20.3299 13.7108C20.7073 13.3334 20.9193 12.8217 20.9193 12.288C20.9193 11.7544 20.7073 11.2426 20.3299 10.8652C19.9526 10.4879 19.4408 10.2759 18.9072 10.2759Z" fill="black"/>
</svg>
