<svg width="25" height="25" viewBox="0 0 25 25" fill="none" xmlns="http://www.w3.org/2000/svg">
<path d="M6.03752 10.8369C5.50387 10.8369 4.99208 11.0489 4.61473 11.4263C4.23738 11.8036 4.02539 12.3154 4.02539 12.849C4.02539 13.3827 4.23738 13.8945 4.61473 14.2718C4.99208 14.6492 5.50387 14.8612 6.03752 14.8612C6.57117 14.8612 7.08296 14.6492 7.46031 14.2718C7.83765 13.8945 8.04965 13.3827 8.04965 12.849C8.04965 12.3154 7.83765 11.8036 7.46031 11.4263C7.08296 11.0489 6.57117 10.8369 6.03752 10.8369ZM12.0739 10.8369C11.5403 10.8369 11.0285 11.0489 10.6511 11.4263C10.2738 11.8036 10.0618 12.3154 10.0618 12.849C10.0618 13.3827 10.2738 13.8945 10.6511 14.2718C11.0285 14.6492 11.5403 14.8612 12.0739 14.8612C12.6075 14.8612 13.1193 14.6492 13.4967 14.2718C13.874 13.8945 14.086 13.3827 14.086 12.849C14.086 12.3154 13.874 11.8036 13.4967 11.4263C13.1193 11.0489 12.6075 10.8369 12.0739 10.8369ZM18.1103 10.8369C17.5766 10.8369 17.0648 11.0489 16.6875 11.4263C16.3101 11.8036 16.0982 12.3154 16.0982 12.849C16.0982 13.3827 16.3101 13.8945 16.6875 14.2718C17.0648 14.6492 17.5766 14.8612 18.1103 14.8612C18.6439 14.8612 19.1557 14.6492 19.5331 14.2718C19.9104 13.8945 20.1224 13.3827 20.1224 12.849C20.1224 12.3154 19.9104 11.8036 19.5331 11.4263C19.1557 11.0489 18.6439 10.8369 18.1103 10.8369Z" fill="black"/>
</svg>
