<svg width="25" height="25" viewBox="0 0 25 25" fill="none" xmlns="http://www.w3.org/2000/svg">
<path d="M6.21525 10.5703C5.6816 10.5703 5.16981 10.7823 4.79246 11.1597C4.41512 11.537 4.20313 12.0488 4.20312 12.5824C4.20313 13.1161 4.41512 13.6279 4.79246 14.0052C5.16981 14.3826 5.6816 14.5946 6.21525 14.5946C6.7489 14.5946 7.26069 14.3826 7.63804 14.0052C8.01539 13.6279 8.22738 13.1161 8.22738 12.5824C8.22738 12.0488 8.01539 11.537 7.63804 11.1597C7.26069 10.7823 6.7489 10.5703 6.21525 10.5703ZM12.2516 10.5703C11.718 10.5703 11.2062 10.7823 10.8288 11.1597C10.4515 11.537 10.2395 12.0488 10.2395 12.5824C10.2395 13.1161 10.4515 13.6279 10.8288 14.0052C11.2062 14.3826 11.718 14.5946 12.2516 14.5946C12.7853 14.5946 13.2971 14.3826 13.6744 14.0052C14.0518 13.6279 14.2638 13.1161 14.2638 12.5824C14.2638 12.0488 14.0518 11.537 13.6744 11.1597C13.2971 10.7823 12.7853 10.5703 12.2516 10.5703ZM18.288 10.5703C17.7544 10.5703 17.2426 10.7823 16.8652 11.1597C16.4879 11.537 16.2759 12.0488 16.2759 12.5824C16.2759 13.1161 16.4879 13.6279 16.8652 14.0052C17.2426 14.3826 17.7544 14.5946 18.288 14.5946C18.8217 14.5946 19.3335 14.3826 19.7108 14.0052C20.0882 13.6279 20.3001 13.1161 20.3001 12.5824C20.3001 12.0488 20.0882 11.537 19.7108 11.1597C19.3335 10.7823 18.8217 10.5703 18.288 10.5703Z" fill="black"/>
</svg>
