<svg width="26" height="25" viewBox="0 0 26 25" fill="none" xmlns="http://www.w3.org/2000/svg">
<path d="M7.00822 10.0586C6.47457 10.0586 5.96278 10.2706 5.58543 10.6479C5.20809 11.0253 4.99609 11.5371 4.99609 12.0707C4.99609 12.6044 5.20809 13.1162 5.58543 13.4935C5.96278 13.8709 6.47457 14.0828 7.00822 14.0828C7.54187 14.0828 8.05366 13.8709 8.43101 13.4935C8.80836 13.1162 9.02035 12.6044 9.02035 12.0707C9.02035 11.5371 8.80836 11.0253 8.43101 10.6479C8.05366 10.2706 7.54187 10.0586 7.00822 10.0586ZM13.0446 10.0586C12.511 10.0586 11.9992 10.2706 11.6218 10.6479C11.2445 11.0253 11.0325 11.5371 11.0325 12.0707C11.0325 12.6044 11.2445 13.1162 11.6218 13.4935C11.9992 13.8709 12.511 14.0828 13.0446 14.0828C13.5783 14.0828 14.09 13.8709 14.4674 13.4935C14.8447 13.1162 15.0567 12.6044 15.0567 12.0707C15.0567 11.5371 14.8447 11.0253 14.4674 10.6479C14.09 10.2706 13.5783 10.0586 13.0446 10.0586ZM19.081 10.0586C18.5473 10.0586 18.0355 10.2706 17.6582 10.6479C17.2808 11.0253 17.0689 11.5371 17.0689 12.0707C17.0689 12.6044 17.2808 13.1162 17.6582 13.4935C18.0355 13.8709 18.5473 14.0828 19.081 14.0828C19.6146 14.0828 20.1264 13.8709 20.5038 13.4935C20.8811 13.1162 21.0931 12.6044 21.0931 12.0707C21.0931 11.5371 20.8811 11.0253 20.5038 10.6479C20.1264 10.2706 19.6146 10.0586 19.081 10.0586Z" fill="black"/>
</svg>
