<svg width="25" height="25" viewBox="0 0 25 25" fill="none" xmlns="http://www.w3.org/2000/svg">
<path d="M6.24314 10.4302C5.70831 10.4302 5.19539 10.6426 4.81721 11.0208C4.43902 11.399 4.22656 11.9119 4.22656 12.4468C4.22656 12.9816 4.43902 13.4945 4.81721 13.8727C5.19539 14.2509 5.70831 14.4633 6.24314 14.4633C6.77797 14.4633 7.2909 14.2509 7.66908 13.8727C8.04726 13.4945 8.25972 12.9816 8.25972 12.4468C8.25972 11.9119 8.04726 11.399 7.66908 11.0208C7.2909 10.6426 6.77797 10.4302 6.24314 10.4302ZM12.2929 10.4302C11.7581 10.4302 11.2451 10.6426 10.8669 11.0208C10.4888 11.399 10.2763 11.9119 10.2763 12.4468C10.2763 12.9816 10.4888 13.4945 10.8669 13.8727C11.2451 14.2509 11.7581 14.4633 12.2929 14.4633C12.8277 14.4633 13.3406 14.2509 13.7188 13.8727C14.097 13.4945 14.3095 12.9816 14.3095 12.4468C14.3095 11.9119 14.097 11.399 13.7188 11.0208C13.3406 10.6426 12.8277 10.4302 12.2929 10.4302ZM18.3426 10.4302C17.8078 10.4302 17.2949 10.6426 16.9167 11.0208C16.5385 11.399 16.326 11.9119 16.326 12.4468C16.326 12.9816 16.5385 13.4945 16.9167 13.8727C17.2949 14.2509 17.8078 14.4633 18.3426 14.4633C18.8775 14.4633 19.3904 14.2509 19.7686 13.8727C20.1467 13.4945 20.3592 12.9816 20.3592 12.4468C20.3592 11.9119 20.1467 11.399 19.7686 11.0208C19.3904 10.6426 18.8775 10.4302 18.3426 10.4302Z" fill="black"/>
</svg>
