<svg width="25" height="26" viewBox="0 0 25 26" fill="none" xmlns="http://www.w3.org/2000/svg">
<path d="M6.13713 10.9731C5.60348 10.9731 5.09169 11.1851 4.71434 11.5625C4.33699 11.9398 4.125 12.4516 4.125 12.9853C4.125 13.5189 4.33699 14.0307 4.71434 14.4081C5.09169 14.7854 5.60348 14.9974 6.13713 14.9974C6.67078 14.9974 7.18257 14.7854 7.55992 14.4081C7.93726 14.0307 8.14925 13.5189 8.14925 12.9853C8.14925 12.4516 7.93726 11.9398 7.55992 11.5625C7.18257 11.1851 6.67078 10.9731 6.13713 10.9731ZM12.1735 10.9731C11.6399 10.9731 11.1281 11.1851 10.7507 11.5625C10.3734 11.9398 10.1614 12.4516 10.1614 12.9853C10.1614 13.5189 10.3734 14.0307 10.7507 14.4081C11.1281 14.7854 11.6399 14.9974 12.1735 14.9974C12.7072 14.9974 13.219 14.7854 13.5963 14.4081C13.9736 14.0307 14.1856 13.5189 14.1856 12.9853C14.1856 12.4516 13.9736 11.9398 13.5963 11.5625C13.219 11.1851 12.7072 10.9731 12.1735 10.9731ZM18.2099 10.9731C17.6762 10.9731 17.1645 11.1851 16.7871 11.5625C16.4098 11.9398 16.1978 12.4516 16.1978 12.9853C16.1978 13.5189 16.4098 14.0307 16.7871 14.4081C17.1645 14.7854 17.6762 14.9974 18.2099 14.9974C18.7435 14.9974 19.2553 14.7854 19.6327 14.4081C20.01 14.0307 20.222 13.5189 20.222 12.9853C20.222 12.4516 20.01 11.9398 19.6327 11.5625C19.2553 11.1851 18.7435 10.9731 18.2099 10.9731Z" fill="black"/>
</svg>
