<svg width="26" height="25" viewBox="0 0 26 25" fill="none" xmlns="http://www.w3.org/2000/svg">
<path d="M7.00822 10.9248C6.47457 10.9248 5.96278 11.1368 5.58543 11.5141C5.20809 11.8915 4.99609 12.4033 4.99609 12.9369C4.99609 13.4706 5.20809 13.9824 5.58543 14.3597C5.96278 14.7371 6.47457 14.9491 7.00822 14.9491C7.54187 14.9491 8.05366 14.7371 8.43101 14.3597C8.80836 13.9824 9.02035 13.4706 9.02035 12.9369C9.02035 12.4033 8.80836 11.8915 8.43101 11.5141C8.05366 11.1368 7.54187 10.9248 7.00822 10.9248ZM13.0446 10.9248C12.511 10.9248 11.9992 11.1368 11.6218 11.5141C11.2445 11.8915 11.0325 12.4033 11.0325 12.9369C11.0325 13.4706 11.2445 13.9824 11.6218 14.3597C11.9992 14.7371 12.511 14.9491 13.0446 14.9491C13.5783 14.9491 14.09 14.7371 14.4674 14.3597C14.8447 13.9824 15.0567 13.4706 15.0567 12.9369C15.0567 12.4033 14.8447 11.8915 14.4674 11.5141C14.09 11.1368 13.5783 10.9248 13.0446 10.9248ZM19.081 10.9248C18.5473 10.9248 18.0355 11.1368 17.6582 11.5141C17.2808 11.8915 17.0689 12.4033 17.0689 12.9369C17.0689 13.4706 17.2808 13.9824 17.6582 14.3597C18.0355 14.7371 18.5473 14.9491 19.081 14.9491C19.6146 14.9491 20.1264 14.7371 20.5038 14.3597C20.8811 13.9824 21.0931 13.4706 21.0931 12.9369C21.0931 12.4033 20.8811 11.8915 20.5038 11.5141C20.1264 11.1368 19.6146 10.9248 19.081 10.9248Z" fill="black"/>
</svg>
