<svg width="44" height="44" viewBox="0 0 44 44" fill="none" xmlns="http://www.w3.org/2000/svg">
<g filter="url(#filter0_d_852_6883)">
<ellipse cx="22.1133" cy="16.3203" rx="9.89645" ry="9.77834" fill="#333333"/>
</g>
<path d="M25.2604 15.5192H23.1833V13.4668C23.1833 13.215 22.9766 13.0107 22.7217 13.0107H22.2601C22.0052 13.0107 21.7985 13.215 21.7985 13.4668V15.5192H19.7214C19.4665 15.5192 19.2598 15.7234 19.2598 15.9753V16.4313C19.2598 16.6832 19.4665 16.8874 19.7214 16.8874H21.7985V18.9398C21.7985 19.1916 22.0052 19.3959 22.2601 19.3959H22.7217C22.9766 19.3959 23.1833 19.1916 23.1833 18.9398V16.8874H25.2604C25.5153 16.8874 25.722 16.6832 25.722 16.4313V15.9753C25.722 15.7234 25.5153 15.5192 25.2604 15.5192Z" fill="white"/>
<defs>
<filter id="filter0_d_852_6883" x="0.720642" y="0.793914" width="42.7853" height="42.549" filterUnits="userSpaceOnUse" color-interpolation-filters="sRGB">
<feFlood flood-opacity="0" result="BackgroundImageFix"/>
<feColorMatrix in="SourceAlpha" type="matrix" values="0 0 0 0 0 0 0 0 0 0 0 0 0 0 0 0 0 0 127 0" result="hardAlpha"/>
<feMorphology radius="0.958013" operator="dilate" in="SourceAlpha" result="effect1_dropShadow_852_6883"/>
<feOffset dy="5.74808"/>
<feGaussianBlur stdDeviation="5.26907"/>
<feColorMatrix type="matrix" values="0 0 0 0 0.921569 0 0 0 0 0.156863 0 0 0 0 0.890196 0 0 0 0.2 0"/>
<feBlend mode="normal" in2="BackgroundImageFix" result="effect1_dropShadow_852_6883"/>
<feBlend mode="normal" in="SourceGraphic" in2="effect1_dropShadow_852_6883" result="shape"/>
</filter>
</defs>
</svg>
