<svg width="20" height="19" viewBox="0 0 20 19" fill="none" xmlns="http://www.w3.org/2000/svg">
<path d="M15.9538 2.05762H6.06504C5.44853 2.05953 4.85783 2.30529 4.42189 2.74123C3.98595 3.17716 3.7402 3.76787 3.73828 4.38437V16.5998C3.73828 16.7541 3.79957 16.9021 3.90865 17.0112C4.01774 17.1203 4.1657 17.1815 4.31997 17.1815H14.7904C14.9447 17.1815 15.0926 17.1203 15.2017 17.0112C15.3108 16.9021 15.3721 16.7541 15.3721 16.5998C15.3721 16.4456 15.3108 16.2976 15.2017 16.1885C15.0926 16.0794 14.9447 16.0182 14.7904 16.0182H4.90166C4.90166 15.7096 5.02423 15.4137 5.24241 15.1955C5.46058 14.9774 5.75649 14.8548 6.06504 14.8548H15.9538C16.108 14.8548 16.256 14.7935 16.3651 14.6844C16.4742 14.5753 16.5354 14.4274 16.5354 14.2731V2.63931C16.5354 2.48503 16.4742 2.33708 16.3651 2.22799C16.256 2.1189 16.108 2.05762 15.9538 2.05762ZM14.2087 9.03789L12.3473 7.64183C12.2974 7.60292 12.236 7.58178 12.1728 7.58178C12.1095 7.58178 12.0481 7.60292 11.9983 7.64183L10.1369 9.03789V3.221H14.2087V9.03789Z" fill="black"/>
</svg>
