<svg width="20" height="20" viewBox="0 0 20 20" fill="none" xmlns="http://www.w3.org/2000/svg">
<path d="M15.7224 2.27539H5.54347C4.90887 2.27736 4.30084 2.53033 3.85211 2.97906C3.40338 3.42779 3.15041 4.03583 3.14844 4.67042V17.2443C3.14844 17.4031 3.21152 17.5554 3.32381 17.6677C3.4361 17.78 3.5884 17.8431 3.7472 17.8431H14.5248C14.6836 17.8431 14.8359 17.78 14.9482 17.6677C15.0605 17.5554 15.1236 17.4031 15.1236 17.2443C15.1236 17.0855 15.0605 16.9332 14.9482 16.821C14.8359 16.7087 14.6836 16.6456 14.5248 16.6456H4.34595C4.34595 16.328 4.47212 16.0234 4.6967 15.7988C4.92128 15.5742 5.22587 15.4481 5.54347 15.4481H15.7224C15.8812 15.4481 16.0335 15.385 16.1457 15.2727C16.258 15.1604 16.3211 15.0081 16.3211 14.8493V2.87415C16.3211 2.71535 16.258 2.56305 16.1457 2.45076C16.0335 2.33847 15.8812 2.27539 15.7224 2.27539ZM13.9261 9.46049L12.0101 8.02347C11.9587 7.98341 11.8955 7.96165 11.8304 7.96165C11.7653 7.96165 11.7021 7.98341 11.6508 8.02347L9.73478 9.46049V3.47291H13.9261V9.46049Z" fill="black"/>
</svg>
