<svg width="20" height="20" viewBox="0 0 20 20" fill="none" xmlns="http://www.w3.org/2000/svg">
<path d="M16.3474 1.9165H6.16847C5.53387 1.91848 4.92584 2.17144 4.47711 2.62017C4.02838 3.0689 3.77541 3.67694 3.77344 4.31154V16.8855C3.77344 17.0443 3.83652 17.1966 3.94881 17.3088C4.0611 17.4211 4.2134 17.4842 4.3722 17.4842H15.1498C15.3086 17.4842 15.4609 17.4211 15.5732 17.3088C15.6855 17.1966 15.7486 17.0443 15.7486 16.8855C15.7486 16.7267 15.6855 16.5744 15.5732 16.4621C15.4609 16.3498 15.3086 16.2867 15.1498 16.2867H4.97095C4.97095 15.9691 5.09712 15.6645 5.3217 15.4399C5.54628 15.2153 5.85087 15.0892 6.16847 15.0892H16.3474C16.5062 15.0892 16.6585 15.0261 16.7707 14.9138C16.883 14.8015 16.9461 14.6492 16.9461 14.4904V2.51526C16.9461 2.35646 16.883 2.20416 16.7707 2.09188C16.6585 1.97959 16.5062 1.9165 16.3474 1.9165ZM14.5511 9.1016L12.6351 7.66458C12.5837 7.62452 12.5205 7.60277 12.4554 7.60277C12.3903 7.60277 12.3271 7.62452 12.2758 7.66458L10.3598 9.1016V3.11402H14.5511V9.1016Z" fill="black"/>
</svg>
