<svg width="20" height="20" viewBox="0 0 20 20" fill="none" xmlns="http://www.w3.org/2000/svg">
<path d="M15.9567 2.5625H5.77784C5.14325 2.56447 4.53521 2.81744 4.08648 3.26617C3.63775 3.7149 3.38479 4.32294 3.38281 4.95753V17.5315C3.38281 17.6903 3.4459 17.8426 3.55818 17.9548C3.67047 18.0671 3.82277 18.1302 3.98157 18.1302H14.7592C14.918 18.1302 15.0703 18.0671 15.1826 17.9548C15.2949 17.8426 15.358 17.6903 15.358 17.5315C15.358 17.3727 15.2949 17.2204 15.1826 17.1081C15.0703 16.9958 14.918 16.9327 14.7592 16.9327H4.58033C4.58033 16.6151 4.7065 16.3105 4.93107 16.0859C5.15565 15.8613 5.46024 15.7352 5.77784 15.7352H15.9567C16.1155 15.7352 16.2678 15.6721 16.3801 15.5598C16.4924 15.4475 16.5555 15.2952 16.5555 15.1364V3.16126C16.5555 3.00246 16.4924 2.85016 16.3801 2.73787C16.2678 2.62558 16.1155 2.5625 15.9567 2.5625ZM14.1605 9.7476L12.2444 8.31058C12.1931 8.27052 12.1299 8.24876 12.0648 8.24876C11.9997 8.24876 11.9365 8.27052 11.8852 8.31058L9.96915 9.7476V3.76002H14.1605V9.7476Z" fill="black"/>
</svg>
