<svg width="19" height="19" viewBox="0 0 19 19" fill="none" xmlns="http://www.w3.org/2000/svg">
<g clip-path="url(#clip0_1862_2315)">
<path d="M9.65985 9.51273C11.2459 9.51273 12.3968 8.73098 12.9882 7.252C13.4421 6.1169 13.5033 4.77793 13.5033 3.61782C13.5033 1.49738 12.0665 0.231445 9.65985 0.231445C7.25322 0.231445 5.81641 1.49735 5.81641 3.61782C5.81641 4.77793 5.87763 6.1169 6.33149 7.252C6.92293 8.73098 8.07384 9.51273 9.65985 9.51273Z" fill="black"/>
<path d="M11.0861 10.5146H8.21121C5.45833 10.5146 3.21875 12.7543 3.21875 15.5071V15.8483C3.21875 17.4957 4.55896 18.8359 6.20638 18.8359H13.0909C14.7383 18.8359 16.0786 17.4957 16.0786 15.8483V15.5071C16.0785 12.7542 13.8389 10.5146 11.0861 10.5146V10.5146Z" fill="black"/>
<path d="M14.6667 3.61741C14.6667 5.55181 14.4739 7.67265 13.1895 9.15182C13.5098 9.2775 13.8688 9.34188 14.2637 9.34188C15.4651 9.34188 16.3368 8.7499 16.7846 7.62986C17.1177 6.79696 17.1626 5.82575 17.1626 4.98554C17.1626 3.51161 16.2269 2.51187 14.5321 2.41895C14.6211 2.79555 14.6667 3.19612 14.6667 3.61741V3.61741Z" fill="black"/>
<path d="M5.12158 9.34206C5.49611 9.34206 5.83855 9.28451 6.14615 9.17137C4.84506 7.69028 4.65223 5.54992 4.65223 3.61758C4.65223 3.1979 4.69745 2.79875 4.78587 2.42334C3.22316 2.53226 2.22266 3.44788 2.22266 4.98568C2.22266 5.82586 2.26756 6.7971 2.60061 7.63004C3.04851 8.75008 3.92021 9.34206 5.12158 9.34206V9.34206Z" fill="black"/>
<path d="M2.05436 15.5072C2.05436 13.2648 3.25966 11.2989 5.05632 10.2227H4.09213C2.0436 10.2227 0.376953 11.8893 0.376953 13.9379V14.1803C0.376953 15.2442 1.10599 16.1409 2.09072 16.3974C2.04753 16.0721 2.05436 15.8734 2.05436 15.5072V15.5072Z" fill="black"/>
<path d="M15.2766 10.2227H14.2402C16.0366 11.299 17.2416 13.265 17.2416 15.5072C17.2416 15.8699 17.249 16.0782 17.2028 16.4151C18.2253 16.1856 18.9917 15.271 18.9917 14.1803V13.9379C18.9917 11.8893 17.3251 10.2227 15.2766 10.2227Z" fill="black"/>
</g>
<defs>
<clipPath id="clip0_1862_2315">
<rect width="18.6141" height="18.6141" fill="white" transform="translate(0.376953 0.226562)"/>
</clipPath>
</defs>
</svg>
