<svg width="19" height="19" viewBox="0 0 19 19" fill="none" xmlns="http://www.w3.org/2000/svg">
<g clip-path="url(#clip0_1862_2566)">
<path d="M9.4411 9.51273C11.0271 9.51273 12.178 8.73098 12.7695 7.252C13.2233 6.1169 13.2845 4.77793 13.2845 3.61782C13.2845 1.49738 11.8477 0.231445 9.4411 0.231445C7.03447 0.231445 5.59766 1.49735 5.59766 3.61782C5.59766 4.77793 5.65888 6.1169 6.11274 7.252C6.70418 8.73098 7.85509 9.51273 9.4411 9.51273Z" fill="black"/>
<path d="M10.8634 10.5146H7.98855C5.23567 10.5146 2.99609 12.7543 2.99609 15.5071V15.8483C2.99609 17.4957 4.33631 18.8359 5.98372 18.8359H12.8683C14.5156 18.8359 15.8559 17.4957 15.8559 15.8483V15.5071C15.8559 12.7542 13.6163 10.5146 10.8634 10.5146V10.5146Z" fill="black"/>
<path d="M14.446 3.61741C14.446 5.55181 14.2532 7.67265 12.9688 9.15182C13.2891 9.2775 13.6481 9.34188 14.043 9.34188C15.2444 9.34188 16.1161 8.7499 16.5639 7.62986C16.897 6.79696 16.9419 5.82575 16.9419 4.98554C16.9419 3.51161 16.0062 2.51187 14.3114 2.41895C14.4004 2.79555 14.446 3.19612 14.446 3.61741V3.61741Z" fill="black"/>
<path d="M4.90283 9.34206C5.27736 9.34206 5.6198 9.28451 5.9274 9.17137C4.62631 7.69028 4.43348 5.54992 4.43348 3.61758C4.43348 3.1979 4.4787 2.79875 4.56712 2.42334C3.00441 2.53226 2.00391 3.44788 2.00391 4.98568C2.00391 5.82586 2.04881 6.7971 2.38186 7.63004C2.82976 8.75008 3.70146 9.34206 4.90283 9.34206V9.34206Z" fill="black"/>
<path d="M1.83366 15.5072C1.83366 13.2648 3.03896 11.2989 4.83561 10.2227H3.87143C1.8229 10.2227 0.15625 11.8893 0.15625 13.9379V14.1803C0.15625 15.2442 0.885288 16.1409 1.87002 16.3974C1.82682 16.0721 1.83366 15.8734 1.83366 15.5072V15.5072Z" fill="black"/>
<path d="M15.0559 10.2227H14.0195C15.8159 11.299 17.0209 13.265 17.0209 15.5072C17.0209 15.8699 17.0283 16.0782 16.9821 16.4151C18.0046 16.1856 18.771 15.271 18.771 14.1803V13.9379C18.771 11.8893 17.1044 10.2227 15.0559 10.2227Z" fill="black"/>
</g>
<defs>
<clipPath id="clip0_1862_2566">
<rect width="18.6141" height="18.6141" fill="white" transform="translate(0.15625 0.226562)"/>
</clipPath>
</defs>
</svg>
