<svg width="20" height="20" viewBox="0 0 20 20" fill="none" xmlns="http://www.w3.org/2000/svg">
<g clip-path="url(#clip0_1862_801)">
<path d="M9.97337 9.97759C11.6775 9.97759 12.9141 9.13763 13.5495 7.54853C14.0372 6.32892 14.103 4.89025 14.103 3.64376C14.103 1.36544 12.5592 0.00524902 9.97337 0.00524902C7.38754 0.00524902 5.84375 1.36541 5.84375 3.64376C5.84375 4.89025 5.90953 6.32892 6.39719 7.54853C7.03266 9.13763 8.26926 9.97759 9.97337 9.97759Z" fill="black"/>
<path d="M11.5039 11.054H8.41496C5.45711 11.054 3.05078 13.4603 3.05078 16.4181V16.7847C3.05078 18.5548 4.49078 19.9948 6.26086 19.9948H13.658C15.428 19.9948 16.8681 18.5548 16.8681 16.7847V16.4181C16.868 13.4603 14.4617 11.054 11.5039 11.054Z" fill="black"/>
<path d="M15.3529 3.64377C15.3529 5.72221 15.1457 8.00096 13.7656 9.59026C14.1098 9.7253 14.4955 9.79448 14.9198 9.79448C16.2107 9.79448 17.1473 9.15842 17.6285 7.95499C17.9863 7.06006 18.0346 6.01655 18.0346 5.11377C18.0346 3.5301 17.0293 2.45592 15.2082 2.35608C15.3039 2.76073 15.3529 3.19112 15.3529 3.64377Z" fill="black"/>
<path d="M5.09914 9.79434C5.50156 9.79434 5.86949 9.7325 6.2 9.61094C4.80203 8.01958 4.59484 5.71985 4.59484 3.64364C4.59484 3.1927 4.64344 2.76383 4.73844 2.36047C3.05937 2.4775 1.98438 3.46129 1.98438 5.1136C1.98438 6.01633 2.03262 7.05989 2.39047 7.95485C2.87172 9.15829 3.80832 9.79434 5.09914 9.79434Z" fill="black"/>
<path d="M1.8023 16.4181C1.8023 14.0087 3.09734 11.8964 5.02777 10.7401H3.9918C1.79074 10.7401 0 12.5309 0 14.7319V14.9924C0 16.1355 0.78332 17.099 1.84137 17.3746C1.79496 17.0251 1.8023 16.8116 1.8023 16.4181Z" fill="black"/>
<path d="M16.008 10.7401H14.8945C16.8247 11.8966 18.1194 14.009 18.1194 16.4181C18.1194 16.8079 18.1273 17.0316 18.0776 17.3936C19.1763 17.147 19.9998 16.1644 19.9998 14.9924V14.7319C19.9998 12.5309 18.2091 10.7401 16.008 10.7401Z" fill="black"/>
</g>
<defs>
<clipPath id="clip0_1862_801">
<rect width="20" height="20" fill="white"/>
</clipPath>
</defs>
</svg>
