<svg width="20" height="20" viewBox="0 0 20 20" fill="none" xmlns="http://www.w3.org/2000/svg">
<g clip-path="url(#clip0_1862_1928)">
<path d="M9.91716 9.99748C11.5497 9.99748 12.7344 9.19279 13.3432 7.67041C13.8104 6.50201 13.8734 5.12374 13.8734 3.92959C13.8734 1.74693 12.3944 0.443848 9.91716 0.443848C7.43991 0.443848 5.96094 1.74689 5.96094 3.92959C5.96094 5.12374 6.02396 6.50201 6.49114 7.67041C7.09993 9.19279 8.28461 9.99748 9.91716 9.99748Z" fill="black"/>
<path d="M11.3853 11.0283H8.42606C5.5924 11.0283 3.28711 13.3337 3.28711 16.1673V16.5185C3.28711 18.2142 4.66665 19.5938 6.36241 19.5938H13.449C15.1447 19.5938 16.5243 18.2142 16.5243 16.5185V16.1673C16.5242 13.3336 14.2189 11.0283 11.3853 11.0283V11.0283Z" fill="black"/>
<path d="M15.0714 3.92894C15.0714 5.92011 14.873 8.10318 13.5508 9.62575C13.8805 9.75512 14.2501 9.82139 14.6565 9.82139C15.8932 9.82139 16.7904 9.21205 17.2514 8.05914C17.5943 7.20179 17.6405 6.20209 17.6405 5.33722C17.6405 3.82004 16.6774 2.79096 14.9328 2.69531C15.0245 3.08297 15.0714 3.49529 15.0714 3.92894V3.92894Z" fill="black"/>
<path d="M5.2457 9.82145C5.63123 9.82145 5.98371 9.76221 6.30034 9.64575C4.96107 8.1212 4.76258 5.91803 4.76258 3.92899C4.76258 3.49699 4.80914 3.08613 4.90015 2.69971C3.29158 2.81182 2.26172 3.75431 2.26172 5.33724C2.26172 6.20207 2.30794 7.20181 2.65076 8.05919C3.11181 9.2121 4.00908 9.82145 5.2457 9.82145V9.82145Z" fill="black"/>
<path d="M2.08991 16.1671C2.08991 13.8589 3.33058 11.8353 5.17995 10.7275H4.18747C2.07884 10.7275 0.363281 12.4431 0.363281 14.5518V14.8013C0.363281 15.8964 1.11371 16.8195 2.12733 17.0835C2.08288 16.7486 2.08991 16.5441 2.08991 16.1671V16.1671Z" fill="black"/>
<path d="M15.6976 10.7275H14.6309C16.48 11.8354 17.7203 13.8592 17.7203 16.1671C17.7203 16.5405 17.7279 16.7549 17.6803 17.1017C18.7328 16.8654 19.5218 15.924 19.5218 14.8013V14.5518C19.5218 12.4431 17.8062 10.7275 15.6976 10.7275Z" fill="black"/>
</g>
<defs>
<clipPath id="clip0_1862_1928">
<rect width="19.1603" height="19.1603" fill="white" transform="translate(0.363281 0.438477)"/>
</clipPath>
</defs>
</svg>
