<svg width="24" height="24" viewBox="0 0 24 24" fill="none" xmlns="http://www.w3.org/2000/svg">
<path d="M18.2433 4.69923H16.3272V3.74122C16.3272 3.48714 16.2263 3.24346 16.0466 3.0638C15.867 2.88414 15.6233 2.7832 15.3692 2.7832C15.1151 2.7832 14.8715 2.88414 14.6918 3.0638C14.5121 3.24346 14.4112 3.48714 14.4112 3.74122V4.69923H8.66312V3.74122C8.66312 3.48714 8.56219 3.24346 8.38253 3.0638C8.20286 2.88414 7.95919 2.7832 7.70511 2.7832C7.45103 2.7832 7.20735 2.88414 7.02769 3.0638C6.84803 3.24346 6.7471 3.48714 6.7471 3.74122V4.69923H4.83107C4.06883 4.69923 3.3378 5.00203 2.79882 5.54102C2.25983 6.08 1.95703 6.81103 1.95703 7.57327V19.0694C1.95703 19.8317 2.25983 20.5627 2.79882 21.1017C3.3378 21.6407 4.06883 21.9435 4.83107 21.9435H18.2433C19.0055 21.9435 19.7365 21.6407 20.2755 21.1017C20.8145 20.5627 21.1173 19.8317 21.1173 19.0694V7.57327C21.1173 6.81103 20.8145 6.08 20.2755 5.54102C19.7365 5.00203 19.0055 4.69923 18.2433 4.69923ZM19.2013 19.0694C19.2013 19.3235 19.1003 19.5672 18.9207 19.7468C18.741 19.9265 18.4973 20.0274 18.2433 20.0274H4.83107C4.57699 20.0274 4.33332 19.9265 4.15365 19.7468C3.97399 19.5672 3.87306 19.3235 3.87306 19.0694V12.3633H19.2013V19.0694ZM19.2013 10.4473H3.87306V7.57327C3.87306 7.31919 3.97399 7.07551 4.15365 6.89585C4.33332 6.71619 4.57699 6.61525 4.83107 6.61525H6.7471V7.57327C6.7471 7.82735 6.84803 8.07102 7.02769 8.25069C7.20735 8.43035 7.45103 8.53128 7.70511 8.53128C7.95919 8.53128 8.20286 8.43035 8.38253 8.25069C8.56219 8.07102 8.66312 7.82735 8.66312 7.57327V6.61525H14.4112V7.57327C14.4112 7.82735 14.5121 8.07102 14.6918 8.25069C14.8715 8.43035 15.1151 8.53128 15.3692 8.53128C15.6233 8.53128 15.867 8.43035 16.0466 8.25069C16.2263 8.07102 16.3272 7.82735 16.3272 7.57327V6.61525H18.2433C18.4973 6.61525 18.741 6.71619 18.9207 6.89585C19.1003 7.07551 19.2013 7.31919 19.2013 7.57327V10.4473Z" fill="black"/>
</svg>
