<svg width="24" height="24" viewBox="0 0 24 24" fill="none" xmlns="http://www.w3.org/2000/svg">
<path d="M18.9171 4.53126H17.0011V3.57325C17.0011 3.31917 16.9001 3.07549 16.7205 2.89583C16.5408 2.71617 16.2971 2.61523 16.043 2.61523C15.789 2.61523 15.5453 2.71617 15.3656 2.89583C15.186 3.07549 15.085 3.31917 15.085 3.57325V4.53126H9.33695V3.57325C9.33695 3.31917 9.23602 3.07549 9.05635 2.89583C8.87669 2.71617 8.63302 2.61523 8.37894 2.61523C8.12486 2.61523 7.88118 2.71617 7.70152 2.89583C7.52186 3.07549 7.42092 3.31917 7.42092 3.57325V4.53126H5.5049C4.74266 4.53126 4.01163 4.83406 3.47265 5.37305C2.93366 5.91203 2.63086 6.64306 2.63086 7.4053V18.9015C2.63086 19.6637 2.93366 20.3947 3.47265 20.9337C4.01163 21.4727 4.74266 21.7755 5.5049 21.7755H18.9171C19.6793 21.7755 20.4103 21.4727 20.9493 20.9337C21.4883 20.3947 21.7911 19.6637 21.7911 18.9015V7.4053C21.7911 6.64306 21.4883 5.91203 20.9493 5.37305C20.4103 4.83406 19.6793 4.53126 18.9171 4.53126ZM19.8751 18.9015C19.8751 19.1555 19.7742 19.3992 19.5945 19.5789C19.4148 19.7585 19.1712 19.8595 18.9171 19.8595H5.5049C5.25082 19.8595 5.00714 19.7585 4.82748 19.5789C4.64782 19.3992 4.54689 19.1555 4.54689 18.9015V12.1954H19.8751V18.9015ZM19.8751 10.2793H4.54689V7.4053C4.54689 7.15122 4.64782 6.90754 4.82748 6.72788C5.00714 6.54822 5.25082 6.44729 5.5049 6.44729H7.42092V7.4053C7.42092 7.65938 7.52186 7.90305 7.70152 8.08272C7.88118 8.26238 8.12486 8.36331 8.37894 8.36331C8.63302 8.36331 8.87669 8.26238 9.05635 8.08272C9.23602 7.90305 9.33695 7.65938 9.33695 7.4053V6.44729H15.085V7.4053C15.085 7.65938 15.186 7.90305 15.3656 8.08272C15.5453 8.26238 15.789 8.36331 16.043 8.36331C16.2971 8.36331 16.5408 8.26238 16.7205 8.08272C16.9001 7.90305 17.0011 7.65938 17.0011 7.4053V6.44729H18.9171C19.1712 6.44729 19.4148 6.54822 19.5945 6.72788C19.7742 6.90754 19.8751 7.15122 19.8751 7.4053V10.2793Z" fill="black"/>
</svg>
