<svg width="24" height="24" viewBox="0 0 24 24" fill="none" xmlns="http://www.w3.org/2000/svg">
<path d="M18.4425 4.69923H16.5264V3.74122C16.5264 3.48714 16.4255 3.24346 16.2458 3.0638C16.0662 2.88414 15.8225 2.7832 15.5684 2.7832C15.3144 2.7832 15.0707 2.88414 14.891 3.0638C14.7114 3.24346 14.6104 3.48714 14.6104 3.74122V4.69923H8.86234V3.74122C8.86234 3.48714 8.76141 3.24346 8.58174 3.0638C8.40208 2.88414 8.15841 2.7832 7.90433 2.7832C7.65025 2.7832 7.40657 2.88414 7.22691 3.0638C7.04725 3.24346 6.94631 3.48714 6.94631 3.74122V4.69923H5.03029C4.26805 4.69923 3.53702 5.00203 2.99804 5.54102C2.45905 6.08 2.15625 6.81103 2.15625 7.57327V19.0694C2.15625 19.8317 2.45905 20.5627 2.99804 21.1017C3.53702 21.6407 4.26805 21.9435 5.03029 21.9435H18.4425C19.2047 21.9435 19.9357 21.6407 20.4747 21.1017C21.0137 20.5627 21.3165 19.8317 21.3165 19.0694V7.57327C21.3165 6.81103 21.0137 6.08 20.4747 5.54102C19.9357 5.00203 19.2047 4.69923 18.4425 4.69923ZM19.4005 19.0694C19.4005 19.3235 19.2996 19.5672 19.1199 19.7468C18.9402 19.9265 18.6966 20.0274 18.4425 20.0274H5.03029C4.77621 20.0274 4.53253 19.9265 4.35287 19.7468C4.17321 19.5672 4.07228 19.3235 4.07228 19.0694V12.3633H19.4005V19.0694ZM19.4005 10.4473H4.07228V7.57327C4.07228 7.31919 4.17321 7.07551 4.35287 6.89585C4.53253 6.71619 4.77621 6.61525 5.03029 6.61525H6.94631V7.57327C6.94631 7.82735 7.04725 8.07102 7.22691 8.25069C7.40657 8.43035 7.65025 8.53128 7.90433 8.53128C8.15841 8.53128 8.40208 8.43035 8.58174 8.25069C8.76141 8.07102 8.86234 7.82735 8.86234 7.57327V6.61525H14.6104V7.57327C14.6104 7.82735 14.7114 8.07102 14.891 8.25069C15.0707 8.43035 15.3144 8.53128 15.5684 8.53128C15.8225 8.53128 16.0662 8.43035 16.2458 8.25069C16.4255 8.07102 16.5264 7.82735 16.5264 7.57327V6.61525H18.4425C18.6966 6.61525 18.9402 6.71619 19.1199 6.89585C19.2996 7.07551 19.4005 7.31919 19.4005 7.57327V10.4473Z" fill="black"/>
</svg>
