<svg width="24" height="24" viewBox="0 0 24 24" fill="none" xmlns="http://www.w3.org/2000/svg">
<path d="M18.7042 4.69972H16.7882V3.7417C16.7882 3.48762 16.6872 3.24395 16.5076 3.06429C16.3279 2.88462 16.0842 2.78369 15.8301 2.78369C15.5761 2.78369 15.3324 2.88462 15.1527 3.06429C14.9731 3.24395 14.8721 3.48762 14.8721 3.7417V4.69972H9.12406V3.7417C9.12406 3.48762 9.02313 3.24395 8.84346 3.06429C8.6638 2.88462 8.42013 2.78369 8.16605 2.78369C7.91197 2.78369 7.66829 2.88462 7.48863 3.06429C7.30897 3.24395 7.20803 3.48762 7.20803 3.7417V4.69972H5.29201C4.52977 4.69972 3.79874 5.00252 3.25976 5.5415C2.72077 6.08049 2.41797 6.81151 2.41797 7.57376V19.0699C2.41797 19.8322 2.72077 20.5632 3.25976 21.1022C3.79874 21.6412 4.52977 21.944 5.29201 21.944H18.7042C19.4664 21.944 20.1975 21.6412 20.7364 21.1022C21.2754 20.5632 21.5782 19.8322 21.5782 19.0699V7.57376C21.5782 6.81151 21.2754 6.08049 20.7364 5.5415C20.1975 5.00252 19.4664 4.69972 18.7042 4.69972ZM19.6622 19.0699C19.6622 19.324 19.5613 19.5677 19.3816 19.7473C19.2019 19.927 18.9583 20.0279 18.7042 20.0279H5.29201C5.03793 20.0279 4.79425 19.927 4.61459 19.7473C4.43493 19.5677 4.33399 19.324 4.33399 19.0699V12.3638H19.6622V19.0699ZM19.6622 10.4478H4.33399V7.57376C4.33399 7.31968 4.43493 7.076 4.61459 6.89634C4.79425 6.71668 5.03793 6.61574 5.29201 6.61574H7.20803V7.57376C7.20803 7.82784 7.30897 8.07151 7.48863 8.25117C7.66829 8.43084 7.91197 8.53177 8.16605 8.53177C8.42013 8.53177 8.6638 8.43084 8.84346 8.25117C9.02313 8.07151 9.12406 7.82784 9.12406 7.57376V6.61574H14.8721V7.57376C14.8721 7.82784 14.9731 8.07151 15.1527 8.25117C15.3324 8.43084 15.5761 8.53177 15.8301 8.53177C16.0842 8.53177 16.3279 8.43084 16.5076 8.25117C16.6872 8.07151 16.7882 7.82784 16.7882 7.57376V6.61574H18.7042C18.9583 6.61574 19.2019 6.71668 19.3816 6.89634C19.5613 7.076 19.6622 7.31968 19.6622 7.57376V10.4478Z" fill="black"/>
</svg>
