<svg width="24" height="24" viewBox="0 0 24 24" fill="none" xmlns="http://www.w3.org/2000/svg">
<path d="M18.2257 4.73731H16.3096V3.7793C16.3096 3.52522 16.2087 3.28155 16.0291 3.10188C15.8494 2.92222 15.6057 2.82129 15.3516 2.82129C15.0976 2.82129 14.8539 2.92222 14.6742 3.10188C14.4946 3.28155 14.3936 3.52522 14.3936 3.7793V4.73731H8.64554V3.7793C8.64554 3.52522 8.54461 3.28155 8.36495 3.10188C8.18529 2.92222 7.94161 2.82129 7.68753 2.82129C7.43345 2.82129 7.18978 2.92222 7.01011 3.10188C6.83045 3.28155 6.72952 3.52522 6.72952 3.7793V4.73731H4.81349C4.05125 4.73731 3.32023 5.04011 2.78124 5.5791C2.24225 6.11809 1.93945 6.84911 1.93945 7.61135V19.1075C1.93945 19.8698 2.24225 20.6008 2.78124 21.1398C3.32023 21.6787 4.05125 21.9815 4.81349 21.9815H18.2257C18.9879 21.9815 19.7189 21.6787 20.2579 21.1398C20.7969 20.6008 21.0997 19.8698 21.0997 19.1075V7.61135C21.0997 6.84911 20.7969 6.11809 20.2579 5.5791C19.7189 5.04011 18.9879 4.73731 18.2257 4.73731ZM19.1837 19.1075C19.1837 19.3616 19.0828 19.6053 18.9031 19.7849C18.7234 19.9646 18.4798 20.0655 18.2257 20.0655H4.81349C4.55941 20.0655 4.31574 19.9646 4.13607 19.7849C3.95641 19.6053 3.85548 19.3616 3.85548 19.1075V12.4014H19.1837V19.1075ZM19.1837 10.4854H3.85548V7.61135C3.85548 7.35727 3.95641 7.1136 4.13607 6.93394C4.31574 6.75427 4.55941 6.65334 4.81349 6.65334H6.72952V7.61135C6.72952 7.86543 6.83045 8.10911 7.01011 8.28877C7.18978 8.46843 7.43345 8.56937 7.68753 8.56937C7.94161 8.56937 8.18529 8.46843 8.36495 8.28877C8.54461 8.10911 8.64554 7.86543 8.64554 7.61135V6.65334H14.3936V7.61135C14.3936 7.86543 14.4946 8.10911 14.6742 8.28877C14.8539 8.46843 15.0976 8.56937 15.3516 8.56937C15.6057 8.56937 15.8494 8.46843 16.0291 8.28877C16.2087 8.10911 16.3096 7.86543 16.3096 7.61135V6.65334H18.2257C18.4798 6.65334 18.7234 6.75427 18.9031 6.93394C19.0828 7.1136 19.1837 7.35727 19.1837 7.61135V10.4854Z" fill="black"/>
</svg>
