<svg width="24" height="24" viewBox="0 0 24 24" fill="none" xmlns="http://www.w3.org/2000/svg">
<path d="M19.0909 4.52345H17.1749V3.56543C17.1749 3.31135 17.0739 3.06768 16.8943 2.88802C16.7146 2.70836 16.4709 2.60742 16.2169 2.60742C15.9628 2.60742 15.7191 2.70836 15.5395 2.88802C15.3598 3.06768 15.2589 3.31135 15.2589 3.56543V4.52345H9.51078V3.56543C9.51078 3.31135 9.40984 3.06768 9.23018 2.88802C9.05052 2.70836 8.80685 2.60742 8.55276 2.60742C8.29868 2.60742 8.05501 2.70836 7.87535 2.88802C7.69569 3.06768 7.59475 3.31135 7.59475 3.56543V4.52345H5.67873C4.91648 4.52345 4.18546 4.82625 3.64647 5.36523C3.10749 5.90422 2.80469 6.63524 2.80469 7.39749V18.8936C2.80469 19.6559 3.10749 20.3869 3.64647 20.9259C4.18546 21.4649 4.91648 21.7677 5.67873 21.7677H19.0909C19.8531 21.7677 20.5842 21.4649 21.1232 20.9259C21.6621 20.3869 21.9649 19.6559 21.9649 18.8936V7.39749C21.9649 6.63524 21.6621 5.90422 21.1232 5.36523C20.5842 4.82625 19.8531 4.52345 19.0909 4.52345ZM20.0489 18.8936C20.0489 19.1477 19.948 19.3914 19.7683 19.5711C19.5887 19.7507 19.345 19.8517 19.0909 19.8517H5.67873C5.42465 19.8517 5.18097 19.7507 5.00131 19.5711C4.82165 19.3914 4.72071 19.1477 4.72071 18.8936V12.1876H20.0489V18.8936ZM20.0489 10.2715H4.72071V7.39749C4.72071 7.14341 4.82165 6.89973 5.00131 6.72007C5.18097 6.54041 5.42465 6.43947 5.67873 6.43947H7.59475V7.39749C7.59475 7.65157 7.69569 7.89524 7.87535 8.0749C8.05501 8.25457 8.29868 8.3555 8.55276 8.3555C8.80685 8.3555 9.05052 8.25457 9.23018 8.0749C9.40984 7.89524 9.51078 7.65157 9.51078 7.39749V6.43947H15.2589V7.39749C15.2589 7.65157 15.3598 7.89524 15.5395 8.0749C15.7191 8.25457 15.9628 8.3555 16.2169 8.3555C16.4709 8.3555 16.7146 8.25457 16.8943 8.0749C17.0739 7.89524 17.1749 7.65157 17.1749 7.39749V6.43947H19.0909C19.345 6.43947 19.5887 6.54041 19.7683 6.72007C19.948 6.89973 20.0489 7.14341 20.0489 7.39749V10.2715Z" fill="black"/>
</svg>
