<svg width="23" height="24" viewBox="0 0 23 24" fill="none" xmlns="http://www.w3.org/2000/svg">
<path d="M17.693 4.69295H15.8316V3.76225C15.8316 3.51541 15.7336 3.27868 15.559 3.10414C15.3845 2.9296 15.1478 2.83154 14.9009 2.83154C14.6541 2.83154 14.4174 2.9296 14.2428 3.10414C14.0683 3.27868 13.9702 3.51541 13.9702 3.76225V4.69295H8.38601V3.76225C8.38601 3.51541 8.28796 3.27868 8.11342 3.10414C7.93888 2.9296 7.70215 2.83154 7.45531 2.83154C7.20847 2.83154 6.97174 2.9296 6.7972 3.10414C6.62266 3.27868 6.52461 3.51541 6.52461 3.76225V4.69295H4.6632C3.92269 4.69295 3.21251 4.98712 2.68888 5.51074C2.16526 6.03436 1.87109 6.74454 1.87109 7.48506V18.6535C1.87109 19.394 2.16526 20.1042 2.68888 20.6278C3.21251 21.1514 3.92269 21.4456 4.6632 21.4456H17.693C18.4336 21.4456 19.1437 21.1514 19.6674 20.6278C20.191 20.1042 20.4851 19.394 20.4851 18.6535V7.48506C20.4851 6.74454 20.191 6.03436 19.6674 5.51074C19.1437 4.98712 18.4336 4.69295 17.693 4.69295ZM18.6237 18.6535C18.6237 18.9003 18.5257 19.1371 18.3511 19.3116C18.1766 19.4861 17.9399 19.5842 17.693 19.5842H4.6632C4.41636 19.5842 4.17964 19.4861 4.0051 19.3116C3.83056 19.1371 3.7325 18.9003 3.7325 18.6535V12.1386H18.6237V18.6535ZM18.6237 10.2772H3.7325V7.48506C3.7325 7.23822 3.83056 7.00149 4.0051 6.82695C4.17964 6.65241 4.41636 6.55435 4.6632 6.55435H6.52461V7.48506C6.52461 7.73189 6.62266 7.96862 6.7972 8.14316C6.97174 8.3177 7.20847 8.41576 7.45531 8.41576C7.70215 8.41576 7.93888 8.3177 8.11342 8.14316C8.28796 7.96862 8.38601 7.73189 8.38601 7.48506V6.55435H13.9702V7.48506C13.9702 7.73189 14.0683 7.96862 14.2428 8.14316C14.4174 8.3177 14.6541 8.41576 14.9009 8.41576C15.1478 8.41576 15.3845 8.3177 15.559 8.14316C15.7336 7.96862 15.8316 7.73189 15.8316 7.48506V6.55435H17.693C17.9399 6.55435 18.1766 6.65241 18.3511 6.82695C18.5257 7.00149 18.6237 7.23822 18.6237 7.48506V10.2772Z" fill="black"/>
</svg>
