<svg width="24" height="24" viewBox="0 0 24 24" fill="none" xmlns="http://www.w3.org/2000/svg">
<path d="M18.4425 4.75685H16.5264V3.79883C16.5264 3.54475 16.4255 3.30108 16.2458 3.12142C16.0662 2.94175 15.8225 2.84082 15.5684 2.84082C15.3144 2.84082 15.0707 2.94175 14.891 3.12142C14.7114 3.30108 14.6104 3.54475 14.6104 3.79883V4.75685H8.86234V3.79883C8.86234 3.54475 8.76141 3.30108 8.58174 3.12142C8.40208 2.94175 8.15841 2.84082 7.90433 2.84082C7.65025 2.84082 7.40657 2.94175 7.22691 3.12142C7.04725 3.30108 6.94631 3.54475 6.94631 3.79883V4.75685H5.03029C4.26805 4.75685 3.53702 5.05965 2.99804 5.59863C2.45905 6.13762 2.15625 6.86864 2.15625 7.63089V19.127C2.15625 19.8893 2.45905 20.6203 2.99804 21.1593C3.53702 21.6983 4.26805 22.0011 5.03029 22.0011H18.4425C19.2047 22.0011 19.9357 21.6983 20.4747 21.1593C21.0137 20.6203 21.3165 19.8893 21.3165 19.127V7.63089C21.3165 6.86864 21.0137 6.13762 20.4747 5.59863C19.9357 5.05965 19.2047 4.75685 18.4425 4.75685ZM19.4005 19.127C19.4005 19.3811 19.2996 19.6248 19.1199 19.8045C18.9402 19.9841 18.6966 20.0851 18.4425 20.0851H5.03029C4.77621 20.0851 4.53253 19.9841 4.35287 19.8045C4.17321 19.6248 4.07228 19.3811 4.07228 19.127V12.4209H19.4005V19.127ZM19.4005 10.5049H4.07228V7.63089C4.07228 7.3768 4.17321 7.13313 4.35287 6.95347C4.53253 6.77381 4.77621 6.67287 5.03029 6.67287H6.94631V7.63089C6.94631 7.88497 7.04725 8.12864 7.22691 8.3083C7.40657 8.48796 7.65025 8.5889 7.90433 8.5889C8.15841 8.5889 8.40208 8.48796 8.58174 8.3083C8.76141 8.12864 8.86234 7.88497 8.86234 7.63089V6.67287H14.6104V7.63089C14.6104 7.88497 14.7114 8.12864 14.891 8.3083C15.0707 8.48796 15.3144 8.5889 15.5684 8.5889C15.8225 8.5889 16.0662 8.48796 16.2458 8.3083C16.4255 8.12864 16.5264 7.88497 16.5264 7.63089V6.67287H18.4425C18.6966 6.67287 18.9402 6.77381 19.1199 6.95347C19.2996 7.13313 19.4005 7.3768 19.4005 7.63089V10.5049Z" fill="black"/>
</svg>
