<svg width="23" height="24" viewBox="0 0 23 24" fill="none" xmlns="http://www.w3.org/2000/svg">
<path d="M18.2985 4.69295H16.4371V3.76225C16.4371 3.51541 16.339 3.27868 16.1645 3.10414C15.99 2.9296 15.7532 2.83154 15.5064 2.83154C15.2596 2.83154 15.0228 2.9296 14.8483 3.10414C14.6738 3.27868 14.5757 3.51541 14.5757 3.76225V4.69295H8.99148V3.76225C8.99148 3.51541 8.89343 3.27868 8.71888 3.10414C8.54434 2.9296 8.30762 2.83154 8.06078 2.83154C7.81394 2.83154 7.57721 2.9296 7.40267 3.10414C7.22813 3.27868 7.13008 3.51541 7.13008 3.76225V4.69295H5.26867C4.52816 4.69295 3.81797 4.98712 3.29435 5.51074C2.77073 6.03436 2.47656 6.74454 2.47656 7.48506V18.6535C2.47656 19.394 2.77073 20.1042 3.29435 20.6278C3.81797 21.1514 4.52816 21.4456 5.26867 21.4456H18.2985C19.039 21.4456 19.7492 21.1514 20.2728 20.6278C20.7964 20.1042 21.0906 19.394 21.0906 18.6535V7.48506C21.0906 6.74454 20.7964 6.03436 20.2728 5.51074C19.7492 4.98712 19.039 4.69295 18.2985 4.69295ZM19.2292 18.6535C19.2292 18.9003 19.1312 19.1371 18.9566 19.3116C18.7821 19.4861 18.5453 19.5842 18.2985 19.5842H5.26867C5.02183 19.5842 4.78511 19.4861 4.61056 19.3116C4.43602 19.1371 4.33797 18.9003 4.33797 18.6535V12.1386H19.2292V18.6535ZM19.2292 10.2772H4.33797V7.48506C4.33797 7.23822 4.43602 7.00149 4.61056 6.82695C4.78511 6.65241 5.02183 6.55435 5.26867 6.55435H7.13008V7.48506C7.13008 7.73189 7.22813 7.96862 7.40267 8.14316C7.57721 8.3177 7.81394 8.41576 8.06078 8.41576C8.30762 8.41576 8.54434 8.3177 8.71888 8.14316C8.89343 7.96862 8.99148 7.73189 8.99148 7.48506V6.55435H14.5757V7.48506C14.5757 7.73189 14.6738 7.96862 14.8483 8.14316C15.0228 8.3177 15.2596 8.41576 15.5064 8.41576C15.7532 8.41576 15.99 8.3177 16.1645 8.14316C16.339 7.96862 16.4371 7.73189 16.4371 7.48506V6.55435H18.2985C18.5453 6.55435 18.7821 6.65241 18.9566 6.82695C19.1312 7.00149 19.2292 7.23822 19.2292 7.48506V10.2772Z" fill="black"/>
</svg>
