<svg width="23" height="24" viewBox="0 0 23 24" fill="none" xmlns="http://www.w3.org/2000/svg">
<path d="M18.2341 4.70076H16.3727V3.77006C16.3727 3.52322 16.2746 3.28649 16.1001 3.11195C15.9255 2.93741 15.6888 2.83936 15.4419 2.83936C15.1951 2.83936 14.9584 2.93741 14.7838 3.11195C14.6093 3.28649 14.5112 3.52322 14.5112 3.77006V4.70076H8.92703V3.77006C8.92703 3.52322 8.82897 3.28649 8.65443 3.11195C8.47989 2.93741 8.24316 2.83936 7.99633 2.83936C7.74949 2.83936 7.51276 2.93741 7.33822 3.11195C7.16368 3.28649 7.06562 3.52322 7.06562 3.77006V4.70076H5.20422C4.4637 4.70076 3.75352 4.99493 3.2299 5.51855C2.70628 6.04217 2.41211 6.75236 2.41211 7.49287V18.6613C2.41211 19.4018 2.70628 20.112 3.2299 20.6356C3.75352 21.1592 4.4637 21.4534 5.20422 21.4534H18.2341C18.9746 21.4534 19.6848 21.1592 20.2084 20.6356C20.732 20.112 21.0262 19.4018 21.0262 18.6613V7.49287C21.0262 6.75236 20.732 6.04217 20.2084 5.51855C19.6848 4.99493 18.9746 4.70076 18.2341 4.70076ZM19.1648 18.6613C19.1648 18.9081 19.0667 19.1449 18.8922 19.3194C18.7176 19.4939 18.4809 19.592 18.2341 19.592H5.20422C4.95738 19.592 4.72065 19.4939 4.54611 19.3194C4.37157 19.1449 4.27351 18.9081 4.27351 18.6613V12.1464H19.1648V18.6613ZM19.1648 10.285H4.27351V7.49287C4.27351 7.24603 4.37157 7.0093 4.54611 6.83476C4.72065 6.66022 4.95738 6.56217 5.20422 6.56217H7.06562V7.49287C7.06562 7.73971 7.16368 7.97643 7.33822 8.15097C7.51276 8.32552 7.74949 8.42357 7.99633 8.42357C8.24316 8.42357 8.47989 8.32552 8.65443 8.15097C8.82897 7.97643 8.92703 7.73971 8.92703 7.49287V6.56217H14.5112V7.49287C14.5112 7.73971 14.6093 7.97643 14.7838 8.15097C14.9584 8.32552 15.1951 8.42357 15.4419 8.42357C15.6888 8.42357 15.9255 8.32552 16.1001 8.15097C16.2746 7.97643 16.3727 7.73971 16.3727 7.49287V6.56217H18.2341C18.4809 6.56217 18.7176 6.66022 18.8922 6.83476C19.0667 7.0093 19.1648 7.24603 19.1648 7.49287V10.285Z" fill="black"/>
</svg>
