<svg width="23" height="23" viewBox="0 0 23 23" fill="none" xmlns="http://www.w3.org/2000/svg">
<path d="M17.6872 3.86141H15.8258V2.9307C15.8258 2.68386 15.7277 2.44714 15.5532 2.2726C15.3786 2.09806 15.1419 2 14.8951 2C14.6482 2 14.4115 2.09806 14.237 2.2726C14.0624 2.44714 13.9644 2.68386 13.9644 2.9307V3.86141H8.38015V2.9307C8.38015 2.68386 8.2821 2.44714 8.10756 2.2726C7.93302 2.09806 7.69629 2 7.44945 2C7.20261 2 6.96589 2.09806 6.79134 2.2726C6.6168 2.44714 6.51875 2.68386 6.51875 2.9307V3.86141H4.65734C3.91683 3.86141 3.20665 4.15557 2.68302 4.67919C2.1594 5.20282 1.86523 5.913 1.86523 6.65351V17.8219C1.86523 18.5625 2.1594 19.2726 2.68302 19.7963C3.20665 20.3199 3.91683 20.6141 4.65734 20.6141H17.6872C18.4277 20.6141 19.1379 20.3199 19.6615 19.7963C20.1851 19.2726 20.4793 18.5625 20.4793 17.8219V6.65351C20.4793 5.913 20.1851 5.20282 19.6615 4.67919C19.1379 4.15557 18.4277 3.86141 17.6872 3.86141ZM18.6179 17.8219C18.6179 18.0688 18.5198 18.3055 18.3453 18.4801C18.1707 18.6546 17.934 18.7526 17.6872 18.7526H4.65734C4.4105 18.7526 4.17378 18.6546 3.99924 18.4801C3.8247 18.3055 3.72664 18.0688 3.72664 17.8219V11.307H18.6179V17.8219ZM18.6179 9.44562H3.72664V6.65351C3.72664 6.40668 3.8247 6.16995 3.99924 5.99541C4.17378 5.82087 4.4105 5.72281 4.65734 5.72281H6.51875V6.65351C6.51875 6.90035 6.6168 7.13708 6.79134 7.31162C6.96589 7.48616 7.20261 7.58422 7.44945 7.58422C7.69629 7.58422 7.93302 7.48616 8.10756 7.31162C8.2821 7.13708 8.38015 6.90035 8.38015 6.65351V5.72281H13.9644V6.65351C13.9644 6.90035 14.0624 7.13708 14.237 7.31162C14.4115 7.48616 14.6482 7.58422 14.8951 7.58422C15.1419 7.58422 15.3786 7.48616 15.5532 7.31162C15.7277 7.13708 15.8258 6.90035 15.8258 6.65351V5.72281H17.6872C17.934 5.72281 18.1707 5.82087 18.3453 5.99541C18.5198 6.16995 18.6179 6.40668 18.6179 6.65351V9.44562Z" fill="black"/>
</svg>
