<svg width="20" height="20" viewBox="0 0 20 20" fill="none" xmlns="http://www.w3.org/2000/svg">
<g clip-path="url(#clip0_852_7161)">
<path d="M11.1386 0.180178C11.4203 0.180178 11.6722 0.355494 11.7671 0.617989L12.4434 2.49282C12.6858 2.55318 12.8937 2.61353 13.07 2.67676C13.2625 2.74574 13.5106 2.85016 13.8172 2.9929L15.3922 2.15943C15.5207 2.09132 15.6679 2.06674 15.8116 2.08937C15.9553 2.11199 16.0878 2.18062 16.1893 2.28493L17.5745 3.71716C17.7585 3.90781 17.8102 4.18659 17.7067 4.42992L16.9681 6.16105C17.0907 6.38619 17.1885 6.57875 17.2632 6.73969C17.3437 6.91501 17.4433 7.15643 17.5621 7.46778L19.2836 8.20545C19.5423 8.31562 19.7023 8.57429 19.685 8.85115L19.5586 10.839C19.5499 10.9682 19.5036 11.0919 19.4252 11.195C19.3469 11.298 19.24 11.3758 19.1179 11.4186L17.4874 11.9982C17.4404 12.2234 17.3916 12.4159 17.3398 12.5788C17.2564 12.8303 17.1611 13.0777 17.0543 13.3203L17.8734 15.1309C17.9313 15.2581 17.9468 15.4005 17.9179 15.5372C17.8889 15.6739 17.8169 15.7978 17.7125 15.8906L16.1548 17.2817C16.0522 17.3729 15.9242 17.4306 15.7879 17.447C15.6516 17.4635 15.5135 17.4379 15.3922 17.3736L13.7866 16.5229C13.5354 16.6559 13.2762 16.7733 13.0106 16.8745L12.3093 17.137L11.6866 18.8614C11.6404 18.9877 11.5572 19.0971 11.4478 19.1752C11.3384 19.2534 11.2079 19.2966 11.0735 19.2992L9.25324 19.3404C9.11525 19.3441 8.97953 19.3048 8.86475 19.2281C8.74998 19.1514 8.66179 19.0411 8.61233 18.9122L7.87849 16.9703C7.62811 16.8847 7.38021 16.7921 7.13507 16.6925C6.93458 16.6057 6.73711 16.5121 6.54302 16.4118L4.7228 17.1897C4.60286 17.2409 4.47064 17.2561 4.34222 17.2334C4.2138 17.2108 4.09473 17.1514 3.9995 17.0623L2.65253 15.7987C2.55225 15.705 2.48395 15.5822 2.4573 15.4475C2.43066 15.3129 2.44701 15.1734 2.50404 15.0485L3.28674 13.3433C3.18264 13.1413 3.08613 12.9355 2.99742 12.7263C2.89386 12.4703 2.79801 12.2112 2.71001 11.9494L0.995169 11.4272C0.855779 11.3851 0.734201 11.2981 0.649317 11.1798C0.564432 11.0615 0.520992 10.9185 0.525743 10.7729L0.592804 8.93258C0.597577 8.81251 0.635087 8.69602 0.701277 8.59572C0.767468 8.49542 0.859819 8.41513 0.968345 8.36352L2.76749 7.4994C2.85084 7.19379 2.92365 6.9562 2.98784 6.7828C3.07822 6.5512 3.17858 6.32362 3.28865 6.1007L2.50883 4.45292C2.44965 4.32778 2.43168 4.1871 2.4575 4.05111C2.48332 3.91512 2.5516 3.79082 2.65253 3.69608L3.99758 2.42576C4.09187 2.33683 4.20985 2.27704 4.33732 2.25359C4.46479 2.23013 4.59632 2.24401 4.71609 2.29355L6.5344 3.04464C6.73558 2.91051 6.9176 2.80226 7.08238 2.71508C7.27878 2.61066 7.54127 2.50144 7.87179 2.38361L8.50407 0.619905C8.55082 0.490831 8.63626 0.379331 8.74874 0.30063C8.86122 0.221929 8.99525 0.179863 9.13253 0.180178H11.1386ZM10.1289 6.90447C8.53186 6.90447 7.23758 8.18342 7.23758 9.76222C7.23758 11.341 8.53186 12.6209 10.1289 12.6209C11.7249 12.6209 13.0192 11.341 13.0192 9.76222C13.0192 8.18342 11.7259 6.90447 10.1289 6.90447Z" fill="black"/>
</g>
<defs>
<clipPath id="clip0_852_7161">
<rect width="19.1603" height="19.1603" fill="white" transform="translate(0.525391 0.180176)"/>
</clipPath>
</defs>
</svg>
