<svg width="20" height="21" viewBox="0 0 20 21" fill="none" xmlns="http://www.w3.org/2000/svg">
<g clip-path="url(#clip0_852_8193)">
<path d="M10.8749 0.855959C11.1566 0.855959 11.4086 1.03128 11.5034 1.29377L12.1798 3.1686C12.4221 3.22896 12.63 3.28931 12.8063 3.35254C12.9989 3.42152 13.247 3.52594 13.5535 3.66868L15.1285 2.83521C15.2571 2.76711 15.4042 2.74252 15.548 2.76515C15.6917 2.78778 15.8242 2.8564 15.9256 2.96071L17.3109 4.39294C17.4948 4.58359 17.5465 4.86237 17.4431 5.1057L16.7044 6.83683C16.8271 7.06197 16.9248 7.25453 16.9995 7.41547C17.08 7.59079 17.1796 7.83221 17.2984 8.14356L19.02 8.88123C19.2786 8.9914 19.4386 9.25007 19.4214 9.52693L19.2949 11.5148C19.2863 11.644 19.2399 11.7677 19.1616 11.8708C19.0832 11.9738 18.9764 12.0516 18.8542 12.0944L17.2237 12.674C17.1767 12.8991 17.1279 13.0917 17.0762 13.2546C16.9927 13.5061 16.8974 13.7535 16.7907 13.9961L17.6098 15.8067C17.6676 15.9339 17.6831 16.0763 17.6542 16.213C17.6252 16.3497 17.5533 16.4736 17.4488 16.5664L15.8911 17.9574C15.7885 18.0487 15.6605 18.1064 15.5242 18.1228C15.3879 18.1392 15.2498 18.1136 15.1285 18.0494L13.5229 17.1987C13.2717 17.3317 13.0125 17.4491 12.7469 17.5503L12.0456 17.8128L11.4229 19.5372C11.3768 19.6635 11.2935 19.7729 11.1841 19.851C11.0747 19.9291 10.9442 19.9724 10.8098 19.975L8.98957 20.0162C8.85158 20.0198 8.71586 19.9806 8.60108 19.9039C8.48631 19.8272 8.39812 19.7169 8.34866 19.588L7.61482 17.6461C7.36444 17.5605 7.11653 17.4679 6.8714 17.3683C6.6709 17.2815 6.47344 17.1879 6.27935 17.0876L4.45913 17.8655C4.33919 17.9166 4.20696 17.9318 4.07855 17.9092C3.95013 17.8866 3.83106 17.8271 3.73583 17.7381L2.38886 16.4744C2.28858 16.3808 2.22028 16.2579 2.19363 16.1233C2.16698 15.9887 2.18333 15.8491 2.24037 15.7243L3.02306 14.0191C2.91897 13.8171 2.82246 13.6113 2.73374 13.4021C2.63018 13.146 2.53434 12.8869 2.44634 12.6251L0.731497 12.103C0.592107 12.0609 0.470529 11.9739 0.385645 11.8556C0.30076 11.7373 0.25732 11.5942 0.262071 11.4487L0.329132 9.60836C0.333905 9.48829 0.371415 9.3718 0.437606 9.2715C0.503796 9.17121 0.596147 9.09091 0.704673 9.0393L2.50382 8.17518C2.58717 7.86957 2.65998 7.63198 2.72416 7.45858C2.81454 7.22698 2.91491 6.9994 3.02498 6.77648L2.24516 5.1287C2.18598 5.00356 2.16801 4.86288 2.19383 4.72689C2.21965 4.5909 2.28793 4.4666 2.38886 4.37187L3.73391 3.10154C3.8282 3.01261 3.94618 2.95282 4.07365 2.92937C4.20112 2.90591 4.33265 2.91979 4.45242 2.96934L6.27073 3.72042C6.47191 3.5863 6.65393 3.47804 6.81871 3.39086C7.0151 3.28644 7.2776 3.17722 7.60811 3.05939L8.2404 1.29569C8.28715 1.16661 8.37259 1.05511 8.48507 0.976411C8.59755 0.89771 8.73158 0.855644 8.86886 0.855959H10.8749ZM9.86519 7.58025C8.26818 7.58025 6.97391 8.8592 6.97391 10.438C6.97391 12.0168 8.26818 13.2967 9.86519 13.2967C11.4612 13.2967 12.7555 12.0168 12.7555 10.438C12.7555 8.8592 11.4622 7.58025 9.86519 7.58025Z" fill="white"/>
</g>
<defs>
<clipPath id="clip0_852_8193">
<rect width="19.1603" height="19.1603" fill="white" transform="translate(0.261719 0.855957)"/>
</clipPath>
</defs>
</svg>
