<svg width="19" height="20" viewBox="0 0 19 20" fill="none" xmlns="http://www.w3.org/2000/svg">
<path d="M2.55344 17.8963H3.93342L12.4351 8.82485L11.0551 7.35238L2.55344 16.4238V17.8963ZM16.649 7.29979L12.4597 2.8824L13.8397 1.40994C14.2176 1.00676 14.6819 0.805176 15.2325 0.805176C15.7826 0.805176 16.2465 1.00676 16.6243 1.40994L18.0043 2.8824C18.3822 3.28558 18.5793 3.77219 18.5957 4.34224C18.6122 4.9116 18.4315 5.39786 18.0536 5.80104L16.649 7.29979ZM1.56773 19.9998C1.28845 19.9998 1.05451 19.8988 0.865914 19.6969C0.676659 19.4957 0.582031 19.246 0.582031 18.948V15.9768C0.582031 15.8366 0.606674 15.7009 0.655959 15.5698C0.705244 15.438 0.779172 15.3195 0.877742 15.2143L11.0305 4.38116L15.2197 8.85114L5.06698 19.6843C4.96841 19.7894 4.85768 19.8683 4.7348 19.9209C4.61125 19.9735 4.48377 19.9998 4.35234 19.9998H1.56773ZM11.7451 8.08861L11.0551 7.35238L12.4351 8.82485L11.7451 8.08861Z" fill="black"/>
</svg>
